{
.appVersion = "3151";
.formatVersion = 3;
classes = (
{
automatic = 1;
code = "A Aacute Abreve Acircumflex Adblgrave Adieresis Agrave Ainvertedbreve Amacron Aogonek Aring Atilde AE B C Cacute Ccaron Ccedilla Ccircumflex Cdotaccent D DZ DZcaron Eth Dcaron Dcroat Dz Dzcaron E Eacute Ecaron Ecircumflex Edblgrave Edieresis Edotaccent Egrave Einvertedbreve Emacron Eogonek F G Gacute Gbreve Gcircumflex Gcommaaccent Gdotaccent H Hbar Hcircumflex I IJ Iacute Ibreve Icircumflex Idblgrave Idieresis Idotaccent Igrave Iinvertedbreve Imacron Iogonek Itilde J Jcircumflex K Kcommaaccent L LJ Lacute Lcaron Lcommaaccent Ldot Lj Lslash M N NJ Nacute Ncaron Ncommaaccent Nj Ntilde Eng O Oacute Obreve Ocircumflex Odblgrave Odieresis Ograve Ohungarumlaut Oinvertedbreve Omacron Oslash Otilde OE P Thorn Q R Racute Rcaron Rcommaaccent Rdblgrave Rinvertedbreve S Sacute Scaron Scedilla Scommaaccent T Tcaron Tcedilla Tcommaaccent U Uacute Ubreve Ucircumflex Udblgrave Udieresis Ugrave Uhungarumlaut Uinvertedbreve Umacron Uogonek Uring Utilde V W Wacute Wcircumflex Wdieresis Wgrave X Y Yacute Ycircumflex Ydieresis Ygrave Z Zacute Zcaron Zdotaccent";
name = Uppercase;
}
);
customParameters = (
{
name = fsType;
value = (
);
},
{
name = "Use Typo Metrics";
value = 1;
}
);
date = "2016-09-14 13:18:40 +0000";
familyName = Trocchi;
featurePrefixes = (
{
automatic = 1;
code = "languagesystem DFLT dflt;

languagesystem latn dflt;
languagesystem latn AZE;
languagesystem latn CRT;
languagesystem latn KAZ;
languagesystem latn TAT;
languagesystem latn TRK;
languagesystem latn ROM;
languagesystem latn MOL;
languagesystem latn CAT;
";
name = Languagesystems;
}
);
features = (
{
automatic = 1;
code = "feature locl;
feature sups;
feature frac;
feature ordn;
";
tag = aalt;
},
{
code = "lookup ccmp_Other_1 {

glyphs = (
{
glyphname = A;
kernLeft = A;
kernRight = A;
lastChange = "2023-03-16 12:53:48 +0000";
layers = (
{
anchors = (
{
name = bottom;
pos = (831,0);
},
{
name = ogonek;
pos = (1554,6);
},
{
name = top;
pos = (831,1505);
}
);
background = {
shapes = (
{
closed = 1;
nodes = (
(635,0,l),
(635,143,l),
(383,143,l),
(514,504,l),
(1092,504,l),
(1231,143,l),
(1008,143,l),
(1008,0,l),
(1655,0,l),
(1655,143,l),
(1487,143,l),
(952,1505,l),
(715,1505,l),
(188,143,l),
(8,143,l),
(8,0,l)
);
},
{
closed = 1;
nodes = (
(795,1309,l),
(1042,631,l),
(561,631,l)
);
}
);
};
layerId = "EE746D13-63D7-48F9-B77E-C723CA6A668B";
shapes = (
{
closed = 1;
nodes = (
(635,0,l),
(635,143,l),
(383,143,l),
(514,504,l),
(1092,504,l),
(1231,143,l),
(1008,143,l),
(1008,0,l),
(1655,0,l),
(1655,143,l),
(1487,143,l),
(952,1505,l),
(715,1505,l),
(188,143,l),
(8,143,l),
(8,0,l)
);
},
{
closed = 1;
nodes = (
(795,1309,l),
(1042,631,l),
(561,631,l)
);
}
);
width = 1662;
}
);
note = A;
unicode = 65;
},
{
glyphname = Aacute;
kernLeft = A;
kernRight = A;
lastChange = "2023-03-16 12:53:48 +0000";
layers = (
{
background = {
shapes = (
{
closed = 1;
nodes = (
(635,0,l),
(635,143,l),
(383,143,l),
(514,504,l),
(1092,504,l),
(1231,143,l),
(1008,143,l),
(1008,0,l),
(1655,0,l),
(1655,143,l),
(1487,143,l),
(952,1505,l),
(715,1505,l),
(188,143,l),
(8,143,l),
(8,0,l)
);
},
{
closed = 1;
nodes = (
(795,1309,l),
(1042,631,l),
(561,631,l)
);
},
{
closed = 1;
nodes = (
(688,1682,ls),
(841,1739,o),
(1062,1842,o),
(1121,1902,c),
(1020,2041,l),
(942,1984,ls),
(837,1909,o),
(653,1769,o),
(545,1677,c),
(574,1638,l)
);
}
);
};
layerId = "EE746D13-63D7-48F9-B77E-C723CA6A668B";
shapes = (
{
ref = A;
},
{
pos = (465,432);
ref = acutecomb;
}
);
width = 1662;
}
);
note = Aacute;
unicode = 193;
},
{
glyphname = Abreve;
kernLeft = A;
kernRight = A;
lastChange = "2023-03-16 12:53:48 +0000";
layers = (
{
background = {
shapes = (
{
closed = 1;
nodes = (
(910,1638,o),
(976,1674,o),
(1013,1724,cs),
(1049,1774,o),
(1069,1829,o),
(1072,1880,c),
(943,1880,l),
(939,1807,o),
(887,1757,o),
(831,1757,cs),
(772,1757,o),
(721,1808,o),
(720,1884,c),
(591,1884,l),
(594,1831,o),
(614,1774,o),
(652,1723,cs),
(690,1672,o),
(756,1638,o),
(833,1638,cs)
);
},
{
closed = 1;
nodes = (
(635,0,l),
(635,143,l),
(383,143,l),
(514,504,l),
(1092,504,l),
(1231,143,l),
(1008,143,l),
(1008,0,l),
(1655,0,l),
(1655,143,l),
(1487,143,l),
(952,1505,l),
(715,1505,l),
(188,143,l),
(8,143,l),
(8,0,l)
);
},
{
closed = 1;
nodes = (
(795,1309,l),
(1042,631,l),
(561,631,l)
);
}
);
};
layerId = "EE746D13-63D7-48F9-B77E-C723CA6A668B";
shapes = (
{
ref = A;
},
{
pos = (252,432);
ref = brevecomb;
}
);
width = 1662;
}
);
note = Abreve;
unicode = 258;
},
{
glyphname = Acircumflex;
kernLeft = A;
kernRight = A;
lastChange = "2023-03-16 12:53:48 +0000";
layers = (
{
background = {
shapes = (
{
closed = 1;
nodes = (
(1158,1728,l),
(830,2085,l),
(504,1734,l),
(603,1642,l),
(642,1693,ls),
(695,1762,o),
(783,1870,o),
(830,1911,c),
(882,1864,o),
(958,1773,o),
(1059,1638,c)
);
},
{
closed = 1;
nodes = (
(635,0,l),
(635,143,l),
(383,143,l),
(514,504,l),
(1092,504,l),
(1231,143,l),
(1008,143,l),
(1008,0,l),
(1655,0,l),
(1655,143,l),
(1487,143,l),
(952,1505,l),
(715,1505,l),
(188,143,l),
(8,143,l),
(8,0,l)
);
},
{
closed = 1;
nodes = (
(795,1309,l),
(1042,631,l),
(561,631,l)
);
}
);
};
layerId = "EE746D13-63D7-48F9-B77E-C723CA6A668B";
shapes = (
{
ref = A;
},
{
pos = (424,432);
ref = circumflexcomb;
}
);
width = 1662;
}
);
note = Acircumflex;
unicode = 194;
},
{
glyphname = Adblgrave;
kernLeft = A;
kernRight = A;
lastChange = "2023-03-16 12:53:48 +0000";
layers = (
{
background = {
shapes = (
{
closed = 1;
nodes = (
(1207,1677,l),
(1086,1781,o),
(941,1916,o),
(773,2082,c),
(672,1943,l),
(731,1883,o),
(969,1746,o),
(1063,1698,cs),
(1110,1673,o),
(1148,1653,o),
(1178,1638,c)
);
},
{
closed = 1;
nodes = (
(818,1677,l),
(697,1781,o),
(552,1916,o),
(383,2082,c),
(283,1943,l),
(342,1883,o),
(580,1746,o),
(674,1698,cs),
(721,1673,o),
(759,1653,o),
(789,1638,c)
);
},
{
closed = 1;
nodes = (
(635,0,l),
(635,143,l),
(383,143,l),
(514,504,l),
(1092,504,l),
(1231,143,l),
(1008,143,l),
(1008,0,l),
(1655,0,l),
(1655,143,l),
(1487,143,l),
(952,1505,l),
(715,1505,l),
(188,143,l),
(8,143,l),
(8,0,l)
);
},
{
closed = 1;
nodes = (
(795,1309,l),
(1042,631,l),
(561,631,l)
);
}
);
};
layerId = "EE746D13-63D7-48F9-B77E-C723CA6A668B";
shapes = (
{
ref = A;
},
{
pos = (178,444);
ref = dblgravecomb;
}
);
width = 1662;
}
);
note = uni0200;
unicode = 512;
},
{
glyphname = Adieresis;
kernLeft = A;
kernRight = A;
lastChange = "2023-03-16 12:53:48 +0000";
layers = (
{
background = {
shapes = (
{
closed = 1;
nodes = (
(1143,1638,o),
(1208,1702,o),
(1208,1775,cs),
(1208,1851,o),
(1143,1914,o),
(1068,1914,cs),
(992,1914,o),
(931,1851,o),
(931,1775,cs),
(931,1700,o),
(992,1638,o),
(1068,1638,cs)
);
},
{
closed = 1;
nodes = (
(666,1638,o),
(730,1702,o),
(730,1775,cs),
(730,1851,o),
(668,1914,o),
(593,1914,cs),
(517,1914,o),
(456,1851,o),
(456,1775,cs),
(456,1700,o),
(517,1638,o),
(593,1638,cs)
);
},
{
closed = 1;
nodes = (
(635,0,l),
(635,143,l),
(383,143,l),
(514,504,l),
(1092,504,l),
(1231,143,l),
(1008,143,l),
(1008,0,l),
(1655,0,l),
(1655,143,l),
(1487,143,l),
(952,1505,l),
(715,1505,l),
(188,143,l),
(8,143,l),
(8,0,l)
);
},
{
closed = 1;
nodes = (
(795,1309,l),
(1042,631,l),
(561,631,l)
);
}
);
};
layerId = "EE746D13-63D7-48F9-B77E-C723CA6A668B";
shapes = (
{
ref = A;
},
{
pos = (377,432);
ref = dieresiscomb;
}
);
width = 1662;
}
);
note = Adieresis;
unicode = 196;
},
{
glyphname = Agrave;
kernLeft = A;
kernRight = A;
lastChange = "2023-03-16 12:53:48 +0000";
layers = (
{
background = {
shapes = (
{
closed = 1;
nodes = (
(635,0,l),
(635,143,l),
(383,143,l),
(514,504,l),
(1092,504,l),
(1231,143,l),
(1008,143,l),
(1008,0,l),
(1655,0,l),
(1655,143,l),
(1487,143,l),
(952,1505,l),
(715,1505,l),
(188,143,l),
(8,143,l),
(8,0,l)
);
},
{
closed = 1;
nodes = (
(795,1309,l),
(1042,631,l),
(561,631,l)
);
},
{
closed = 1;
nodes = (
(1121,1677,l),
(1000,1781,o),
(841,1902,o),
(646,2041,c),
(545,1902,l),
(582,1863,o),
(688,1806,o),
(779,1766,cs),
(870,1725,o),
(1002,1672,o),
(1043,1657,cs),
(1064,1649,o),
(1080,1643,o),
(1092,1638,c)
);
}
);
};
layerId = "EE746D13-63D7-48F9-B77E-C723CA6A668B";
shapes = (
{
ref = A;
},
{
pos = (465,432);
ref = gravecomb;
}
);
width = 1662;
}
);
note = Agrave;
unicode = 192;
},
{
glyphname = Ainvertedbreve;
kernLeft = A;
kernRight = A;
lastChange = "2023-03-16 12:53:48 +0000";
layers = (
{
background = {
shapes = (
{
closed = 1;
nodes = (
(635,0,l),
(635,143,l),
(383,143,l),
(514,504,l),
(1092,504,l),
(1231,143,l),
(1008,143,l),
(1008,0,l),
(1655,0,l),
(1655,143,l),
(1487,143,l),
(952,1505,l),
(715,1505,l),
(188,143,l),
(8,143,l),
(8,0,l)
);
},
{
closed = 1;
nodes = (
(795,1309,l),
(1042,631,l),
(561,631,l)
);
},
{
closed = 1;
nodes = (
(1074,1638,l),
(1071,1691,o),
(1052,1748,o),
(1014,1799,cs),
(976,1850,o),
(909,1884,o),
(832,1884,cs),
(755,1884,o),
(689,1849,o),
(653,1799,cs),
(616,1749,o),
(596,1693,o),
(593,1642,c),
(722,1642,l),
(726,1715,o),
(778,1765,o),
(834,1765,cs),
(893,1765,o),
(944,1714,o),
(945,1638,c)
);
}
);
};
layerId = "EE746D13-63D7-48F9-B77E-C723CA6A668B";
shapes = (
{
ref = A;
},
{
pos = (252,432);
ref = breveinvertedcomb;
}
);
width = 1662;
}
);
note = uni0202;
unicode = 514;
},
{
glyphname = Amacron;
kernLeft = A;
kernRight = A;
lastChange = "2023-03-16 12:53:48 +0000";
layers = (
{
background = {
shapes = (
{
closed = 1;
nodes = (
(1151,1638,l),
(1151,1776,l),
(569,1776,l),
(569,1638,l)
);
},
{
closed = 1;
nodes = (
(635,0,l),
(635,143,l),
(383,143,l),
(514,504,l),
(1092,504,l),
(1231,143,l),
(1008,143,l),
(1008,0,l),
(1655,0,l),
(1655,143,l),
(1487,143,l),
(952,1505,l),
(715,1505,l),
(188,143,l),
(8,143,l),
(8,0,l)
);
},
{
closed = 1;
nodes = (
(795,1309,l),
(1042,631,l),
(561,631,l)
);
}
);
};
layerId = "EE746D13-63D7-48F9-B77E-C723CA6A668B";
shapes = (
{
ref = A;
},
{
pos = (387,432);
ref = macroncomb;
}
);
width = 1662;
}
);
note = Amacron;
unicode = 256;
},
{
glyphname = Aogonek;
kernLeft = A;
kernRight = A;
lastChange = "2023-03-16 12:53:48 +0000";
layers = (
{
background = {
shapes = (
{
closed = 1;
nodes = (
(1514,-246,l),
(1395,-230,o),
(1358,-184,o),
(1358,-123,cs),
(1358,-68,o),
(1411,-19,o),
(1516,0,c),
(1516,31,l),
(1443,31,o),
(1368,14,o),
(1305,-17,cs),
(1241,-49,o),
(1198,-106,o),
(1198,-174,cs),
(1198,-285,o),
(1316,-385,o),
(1487,-385,c)
);
},
{
closed = 1;
nodes = (
(635,0,l),
(635,143,l),
(383,143,l),
(514,504,l),
(1092,504,l),
(1231,143,l),
(1008,143,l),
(1008,0,l),
(1655,0,l),
(1655,143,l),
(1487,143,l),
(952,1505,l),
(715,1505,l),
(188,143,l),
(8,143,l),
(8,0,l)
);
},
{
closed = 1;
nodes = (
(795,1309,l),
(1042,631,l),
(561,631,l)
);
}
);
};
layerId = "EE746D13-63D7-48F9-B77E-C723CA6A668B";
shapes = (
{
ref = A;
},
{
pos = (1182,0);
ref = ogonekcomb;
}
);
width = 1662;
}
);
note = Aogonek;
unicode = 260;
},
{
glyphname = Aring;
kernLeft = A;
kernRight = A;
lastChange = "2023-03-16 12:53:48 +0000";
layers = (
{
background = {
shapes = (
{
closed = 1;
nodes = (
(954,1524,o),
(1032,1602,o),
(1032,1707,cs),
(1032,1812,o),
(954,1889,o),
(833,1889,cs),
(709,1889,o),
(632,1812,o),
(632,1707,cs),
(632,1600,o),
(710,1524,o),
(833,1524,cs)
);
},
{
closed = 1;
nodes = (
(771,1582,o),
(720,1628,o),
(720,1707,cs),
(720,1786,o),
(773,1834,o),
(833,1834,cs),
(863,1834,o),
(889,1823,o),
(911,1800,cs),
(933,1777,o),
(944,1746,o),
(944,1707,cs),
(944,1630,o),
(891,1582,o),
(831,1582,cs)
);
},
{
closed = 1;
nodes = (
(635,0,l),
(635,143,l),
(383,143,l),
(514,504,l),
(1092,504,l),
(1231,143,l),
(1008,143,l),
(1008,0,l),
(1655,0,l),
(1655,143,l),
(1487,143,l),
(952,1505,l),
(715,1505,l),
(188,143,l),
(8,143,l),
(8,0,l)
);
},
{
closed = 1;
nodes = (
(795,1309,l),
(1042,631,l),
(561,631,l)
);
}
);
};
layerId = "EE746D13-63D7-48F9-B77E-C723CA6A668B";
shapes = (
{
ref = A;
},
{
alignment = -1;
pos = (552,316);
ref = ringcomb;
}
);
width = 1662;
}
);
note = Aring;
unicode = 197;
},
{
glyphname = Atilde;
kernLeft = A;
kernRight = A;
lastChange = "2023-03-16 12:53:48 +0000";
layers = (
{
background = {
shapes = (
{
closed = 1;
nodes = (
(695,1638,o),
(755,1654,o),
(836,1685,cs),
(917,1716,o),
(972,1732,o),
(999,1732,cs),
(1066,1732,o),
(1087,1708,o),
(1087,1640,c),
(1175,1640,l),
(1175,1817,o),
(1130,1883,o),
(1007,1883,cs),
(969,1883,o),
(909,1867,o),
(828,1836,cs),
(747,1805,o),
(692,1789,o),
(665,1789,cs),
(598,1789,o),
(577,1813,o),
(577,1881,c),
(489,1881,l),
(489,1704,o),
(534,1638,o),
(657,1638,cs)
);
},
{
closed = 1;
nodes = (
(635,0,l),
(635,143,l),
(383,143,l),
(514,504,l),
(1092,504,l),
(1231,143,l),
(1008,143,l),
(1008,0,l),
(1655,0,l),
(1655,143,l),
(1487,143,l),
(952,1505,l),
(715,1505,l),
(188,143,l),
(8,143,l),
(8,0,l)
);
},
{
closed = 1;
nodes = (
(795,1309,l),
(1042,631,l),
(561,631,l)
);
}
);
};
layerId = "EE746D13-63D7-48F9-B77E-C723CA6A668B";
shapes = (
{
ref = A;
},
{
pos = (408,432);
ref = tildecomb;
}
);
width = 1662;
}
);
note = Atilde;
unicode = 195;
},
{
glyphname = AE;
lastChange = "2023-03-16 12:53:48 +0000";
layers = (
{
anchors = (
{
name = bottom;
pos = (1082,0);
},
{
name = top;
pos = (1082,1505);
}
);
background = {
shapes = (
{
closed = 1;
nodes = (
(618,0,l),
(618,137,l),
(401,137,l),
(598,504,l),
(1059,504,l),
(1059,137,l),
(874,137,l),
(874,0,l),
(2073,0,l),
(2073,571,l),
(1892,571,l),
(1892,137,l),
(1276,137,l),
(1276,698,l),
(1567,698,l),
(1567,424,l),
(1700,424,l),
(1700,1038,l),
(1567,1038,l),
(1567,813,l),
(1276,813,l),
(1276,1335,l),
(1892,1335,l),
(1892,899,l),
(2073,899,l),
(2073,1479,l),
(608,1479,l),
(608,1335,l),
(874,1335,l),
(180,137,l),
(0,137,l),
(0,0,l)
);
},
{
closed = 1;
nodes = (
(1059,1335,l),
(1059,631,l),
(668,631,l)
);
}
);
};
layerId = "EE746D13-63D7-48F9-B77E-C723CA6A668B";
shapes = (
{
closed = 1;
nodes = (
(618,0,l),
(618,137,l),
(401,137,l),
(598,504,l),
(1059,504,l),
(1059,137,l),
(874,137,l),
(874,0,l),
(2073,0,l),
(2073,571,l),
(1892,571,l),
(1892,137,l),
(1276,137,l),
(1276,698,l),
(1567,698,l),
(1567,424,l),
(1700,424,l),
(1700,1038,l),
(1567,1038,l),
(1567,813,l),
(1276,813,l),
(1276,1335,l),
(1892,1335,l),
(1892,899,l),
(2073,899,l),
(2073,1479,l),
(608,1479,l),
(608,1335,l),
(874,1335,l),
(180,137,l),
(0,137,l),
(0,0,l)
);
},
{
closed = 1;
nodes = (
(1059,1335,l),
(1059,631,l),
(668,631,l)
);
}
);
width = 2164;
}
);
note = AE;
unicode = 198;
},
{
glyphname = B;
kernRight = B;
lastChange = "2023-03-16 12:53:48 +0000";
layers = (
{
anchors = (
{
name = bottom;
pos = (723,0);
},
{
name = center;
pos = (723,753);
},
{
name = top;
pos = (723,1505);
}
);
background = {
shapes = (
{
closed = 1;
nodes = (
(696,0,ls),
(742,0,o),
(783,1,o),
(818,2,cs),
(888,5,o),
(1001,18,o),
(1075,39,cs),
(1149,60,o),
(1236,103,o),
(1287,160,cs),
(1338,216,o),
(1374,304,o),
(1374,412,cs),
(1374,621,o),
(1247,753,o),
(1018,809,c),
(1199,861,o),
(1294,962,o),
(1294,1133,cs),
(1294,1234,o),
(1255,1318,o),
(1191,1371,cs),
(1126,1423,o),
(1049,1460,o),
(953,1479,cs),
(857,1498,o),
(777,1505,o),
(688,1505,cs),
(33,1505,l),
(33,1362,l),
(279,1362,l),
(279,143,l),
(33,143,l),
(33,0,l)
);
},
{
closed = 1;
nodes = (
(514,729,l),
(731,729,ls),
(835,729,o),
(933,703,o),
(1011,655,cs),
(1089,606,o),
(1139,523,o),
(1139,420,cs),
(1139,359,o),
(1130,310,o),
(1107,273,cs),
(1083,236,o),
(1057,209,o),
(1011,190,cs),
(965,171,o),
(921,159,o),
(853,152,cs),
(784,145,o),
(724,143,o),
(633,143,cs),
(514,143,l)
);
},
{
closed = 1;
nodes = (
(514,1362,l),
(594,1362,ls),
(642,1362,o),
(683,1361,o),
(717,1360,cs),
(784,1356,o),
(863,1348,o),
(911,1333,cs),
(959,1317,o),
(1009,1291,o),
(1035,1255,cs),
(1061,1218,o),
(1077,1167,o),
(1077,1100,cs),
(1077,1016,o),
(1033,950,o),
(965,915,cs),
(896,879,o),
(816,862,o),
(731,862,cs),
(514,862,l)
);
}
);
};
layerId = "EE746D13-63D7-48F9-B77E-C723CA6A668B";
shapes = (
{
closed = 1;
nodes = (
(696,0,ls),
(742,0,o),
(783,1,o),
(818,2,cs),
(888,5,o),
(1001,18,o),
(1075,39,cs),
(1149,60,o),
(1236,103,o),
(1287,160,cs),
(1338,216,o),
(1374,304,o),
(1374,412,cs),
(1374,621,o),
(1247,753,o),
(1018,809,c),
(1199,861,o),
(1294,962,o),
(1294,1133,cs),
(1294,1234,o),
(1255,1318,o),
(1191,1371,cs),
(1126,1423,o),
(1049,1460,o),
(953,1479,cs),
(857,1498,o),
(777,1505,o),
(688,1505,cs),
(33,1505,l),
(33,1362,l),
(279,1362,l),
(279,143,l),
(33,143,l),
(33,0,l)
);
},
{
closed = 1;
nodes = (
(514,729,l),
(731,729,ls),
(835,729,o),
(933,703,o),
(1011,655,cs),
(1089,606,o),
(1139,523,o),
(1139,420,cs),
(1139,359,o),
(1130,310,o),
(1107,273,cs),
(1083,236,o),
(1057,209,o),
(1011,190,cs),
(965,171,o),
(921,159,o),
(853,152,cs),
(784,145,o),
(724,143,o),
(633,143,cs),
(514,143,l)
);
},
{
closed = 1;
nodes = (
(514,1362,l),
(594,1362,ls),
(642,1362,o),
(683,1361,o),
(717,1360,cs),
(784,1356,o),
(863,1348,o),
(911,1333,cs),
(959,1317,o),
(1009,1291,o),
(1035,1255,cs),
(1061,1218,o),
(1077,1167,o),
(1077,1100,cs),
(1077,1016,o),
(1033,950,o),
(965,915,cs),
(896,879,o),
(816,862,o),
(731,862,cs),
(514,862,l)
);
}
);
width = 1445;
}
);
note = B;
unicode = 66;
},
{
glyphname = C;
kernLeft = C;
lastChange = "2023-03-16 12:53:48 +0000";
layers = (
{
anchors = (
{
name = bottom;
pos = (699,-17);
},
{
name = top;
pos = (782,1505);
}
);
background = {
shapes = (
{
closed = 1;
nodes = (
(1139,-27,o),
(1359,149,o),
(1430,457,c),
(1296,522,l),
(1273,434,o),
(1225,349,o),
(1154,278,cs),
(1083,206,o),
(975,158,o),
(858,158,cs),
(702,158,o),
(565,236,o),
(481,353,cs),
(397,469,o),
(348,617,o),
(348,764,cs),
(348,1148,o),
(543,1396,o),
(815,1396,cs),
(983,1396,o),
(1117,1317,o),
(1182,1217,c),
(1102,1217,o),
(1004,1160,o),
(1004,1057,cs),
(1004,954,o),
(1073,891,o),
(1174,891,cs),
(1293,891,o),
(1370,982,o),
(1370,1073,cs),
(1370,1161,o),
(1343,1241,o),
(1288,1313,cs),
(1179,1457,o),
(1000,1536,o),
(817,1536,cs),
(601,1536,o),
(412,1454,o),
(285,1319,cs),
(158,1183,o),
(84,988,o),
(84,768,cs),
(84,555,o),
(157,353,o),
(280,209,cs),
(403,65,o),
(588,-27,o),
(795,-27,cs)
);
}
);
};
layerId = "EE746D13-63D7-48F9-B77E-C723CA6A668B";
shapes = (
{
closed = 1;
nodes = (
(1139,-27,o),
(1359,149,o),
(1430,457,c),
(1296,522,l),
(1273,434,o),
(1225,349,o),
(1154,278,cs),
(1083,206,o),
(975,158,o),
(858,158,cs),
(702,158,o),
(565,236,o),
(481,353,cs),
(397,469,o),
(348,617,o),
(348,764,cs),
(348,1148,o),
(543,1396,o),
(815,1396,cs),
(983,1396,o),
(1117,1317,o),
(1182,1217,c),
(1102,1217,o),
(1004,1160,o),
(1004,1057,cs),
(1004,954,o),
(1073,891,o),
(1174,891,cs),
(1293,891,o),
(1370,982,o),
(1370,1073,cs),
(1370,1161,o),
(1343,1241,o),
(1288,1313,cs),
(1179,1457,o),
(1000,1536,o),
(817,1536,cs),
(601,1536,o),
(412,1454,o),
(285,1319,cs),
(158,1183,o),
(84,988,o),
(84,768,cs),
(84,555,o),
(157,353,o),
(280,209,cs),
(403,65,o),
(588,-27,o),
(795,-27,cs)
);
}
);
width = 1447;
}
);
note = C;
unicode = 67;
},
{
glyphname = Cacute;
lastChange = "2023-03-16 12:53:48 +0000";
layers = (
{
background = {
shapes = (
{
closed = 1;
nodes = (
(1139,-27,o),
(1359,149,o),
(1430,457,c),
(1296,522,l),
(1273,434,o),
(1225,349,o),
(1154,278,cs),
(1083,206,o),
(975,158,o),
(858,158,cs),
(702,158,o),
(565,236,o),
(481,353,cs),
(397,469,o),
(348,617,o),
(348,764,cs),
(348,1148,o),
(543,1396,o),
(815,1396,cs),
(983,1396,o),
(1117,1317,o),
(1182,1217,c),
(1102,1217,o),
(1004,1160,o),
(1004,1057,cs),
(1004,954,o),
(1073,891,o),
(1174,891,cs),
(1293,891,o),
(1370,982,o),
(1370,1073,cs),
(1370,1161,o),
(1343,1241,o),
(1288,1313,cs),
(1179,1457,o),
(1000,1536,o),
(817,1536,cs),
(601,1536,o),
(412,1454,o),
(285,1319,cs),
(158,1183,o),
(84,988,o),
(84,768,cs),
(84,555,o),
(157,353,o),
(280,209,cs),
(403,65,o),
(588,-27,o),
(795,-27,cs)
);
},
{
closed = 1;
nodes = (
(672,1682,ls),
(825,1739,o),
(1046,1842,o),
(1105,1902,c),
(1004,2041,l),
(926,1984,ls),
(821,1909,o),
(637,1769,o),
(529,1677,c),
(558,1638,l)
);
}
);
};
layerId = "EE746D13-63D7-48F9-B77E-C723CA6A668B";
shapes = (
{
ref = C;
},
{
pos = (416,432);
ref = acutecomb;
}
);
width = 1447;
}
);
note = Cacute;
unicode = 262;
},
{
glyphname = Ccaron;
lastChange = "2023-03-16 12:53:48 +0000";
layers = (
{
background = {
shapes = (
{
closed = 1;
nodes = (
(1144,1988,l),
(1045,2081,l),
(1006,2029,ls),
(953,1961,o),
(865,1853,o),
(818,1812,c),
(766,1859,o),
(690,1950,o),
(589,2085,c),
(490,1995,l),
(818,1638,l)
);
},
{
closed = 1;
nodes = (
(1139,-27,o),
(1359,149,o),
(1430,457,c),
(1296,522,l),
(1273,434,o),
(1225,349,o),
(1154,278,cs),
(1083,206,o),
(975,158,o),
(858,158,cs),
(702,158,o),
(565,236,o),
(481,353,cs),
(397,469,o),
(348,617,o),
(348,764,cs),
(348,1148,o),
(543,1396,o),
(815,1396,cs),
(983,1396,o),
(1117,1317,o),
(1182,1217,c),
(1102,1217,o),
(1004,1160,o),
(1004,1057,cs),
(1004,954,o),
(1073,891,o),
(1174,891,cs),
(1293,891,o),
(1370,982,o),
(1370,1073,cs),
(1370,1161,o),
(1343,1241,o),
(1288,1313,cs),
(1179,1457,o),
(1000,1536,o),
(817,1536,cs),
(601,1536,o),
(412,1454,o),
(285,1319,cs),
(158,1183,o),
(84,988,o),
(84,768,cs),
(84,555,o),
(157,353,o),
(280,209,cs),
(403,65,o),
(588,-27,o),
(795,-27,cs)
);
}
);
};
layerId = "EE746D13-63D7-48F9-B77E-C723CA6A668B";
shapes = (
{
ref = C;
},
{
pos = (391,478);
ref = caroncomb;
}
);
width = 1447;
}
);
note = Ccaron;
unicode = 268;
},
{
glyphname = Ccedilla;
kernLeft = C;
lastChange = "2023-03-16 12:53:48 +0000";
layers = (
{
background = {
shapes = (
{
closed = 1;
nodes = (
(590,-451,ls),
(627,-444,o),
(684,-427,o),
(737,-403,cs),
(789,-379,o),
(832,-336,o),
(832,-288,cs),
(832,-12,l),
(793,-12,ls),
(678,-12,o),
(584,-103,o),
(584,-180,cs),
(584,-197,o),
(600,-220,o),
(632,-251,cs),
(663,-282,o),
(679,-305,o),
(679,-319,cs),
(679,-332,o),
(664,-345,o),
(635,-357,cs),
(606,-369,o),
(572,-378,o),
(533,-385,c),
(562,-456,l)
);
},
{
closed = 1;
nodes = (
(1139,-27,o),
(1359,149,o),
(1430,457,c),
(1296,522,l),
(1273,434,o),
(1225,349,o),
(1154,278,cs),
(1083,206,o),
(975,158,o),
(858,158,cs),
(702,158,o),
(565,236,o),
(481,353,cs),
(397,469,o),
(348,617,o),
(348,764,cs),
(348,1148,o),
(543,1396,o),
(815,1396,cs),
(983,1396,o),
(1117,1317,o),
(1182,1217,c),
(1102,1217,o),
(1004,1160,o),
(1004,1057,cs),
(1004,954,o),
(1073,891,o),
(1174,891,cs),
(1293,891,o),
(1370,982,o),
(1370,1073,cs),
(1370,1161,o),
(1343,1241,o),
(1288,1313,cs),
(1179,1457,o),
(1000,1536,o),
(817,1536,cs),
(601,1536,o),
(412,1454,o),
(285,1319,cs),
(158,1183,o),
(84,988,o),
(84,768,cs),
(84,555,o),
(157,353,o),
(280,209,cs),
(403,65,o),
(588,-27,o),
(795,-27,cs)
);
}
);
};
layerId = "EE746D13-63D7-48F9-B77E-C723CA6A668B";
shapes = (
{
ref = C;
},
{
pos = (541,-17);
ref = cedillacomb;
}
);
width = 1447;
}
);
note = Ccedilla;
unicode = 199;
},
{
glyphname = Ccircumflex;
lastChange = "2023-03-16 12:53:48 +0000";
layers = (
{
background = {
shapes = (
{
closed = 1;
nodes = (
(1132,1728,l),
(804,2085,l),
(478,1734,l),
(577,1642,l),
(616,1693,ls),
(669,1762,o),
(757,1870,o),
(804,1911,c),
(856,1864,o),
(932,1773,o),
(1033,1638,c)
);
},
{
closed = 1;
nodes = (
(1139,-27,o),
(1359,149,o),
(1430,457,c),
(1296,522,l),
(1273,434,o),
(1225,349,o),
(1154,278,cs),
(1083,206,o),
(975,158,o),
(858,158,cs),
(702,158,o),
(565,236,o),
(481,353,cs),
(397,469,o),
(348,617,o),
(348,764,cs),
(348,1148,o),
(543,1396,o),
(815,1396,cs),
(983,1396,o),
(1117,1317,o),
(1182,1217,c),
(1102,1217,o),
(1004,1160,o),
(1004,1057,cs),
(1004,954,o),
(1073,891,o),
(1174,891,cs),
(1293,891,o),
(1370,982,o),
(1370,1073,cs),
(1370,1161,o),
(1343,1241,o),
(1288,1313,cs),
(1179,1457,o),
(1000,1536,o),
(817,1536,cs),
(601,1536,o),
(412,1454,o),
(285,1319,cs),
(158,1183,o),
(84,988,o),
(84,768,cs),
(84,555,o),
(157,353,o),
(280,209,cs),
(403,65,o),
(588,-27,o),
(795,-27,cs)
);
}
);
};
layerId = "EE746D13-63D7-48F9-B77E-C723CA6A668B";
shapes = (
{
ref = C;
},
{
pos = (375,432);
ref = circumflexcomb;
}
);
width = 1447;
}
);
note = Ccircumflex;
unicode = 264;
},
{
glyphname = Cdotaccent;
lastChange = "2023-03-16 12:53:48 +0000";
layers = (
{
background = {
shapes = (
{
closed = 1;
nodes = (
(896,1638,o),
(965,1706,o),
(965,1786,cs),
(965,1867,o),
(896,1935,o),
(816,1935,cs),
(735,1935,o),
(668,1869,o),
(668,1786,cs),
(668,1706,o),
(735,1638,o),
(816,1638,cs)
);
},
{
closed = 1;
nodes = (
(1139,-27,o),
(1359,149,o),
(1430,457,c),
(1296,522,l),
(1273,434,o),
(1225,349,o),
(1154,278,cs),
(1083,206,o),
(975,158,o),
(858,158,cs),
(702,158,o),
(565,236,o),
(481,353,cs),
(397,469,o),
(348,617,o),
(348,764,cs),
(348,1148,o),
(543,1396,o),
(815,1396,cs),
(983,1396,o),
(1117,1317,o),
(1182,1217,c),
(1102,1217,o),
(1004,1160,o),
(1004,1057,cs),
(1004,954,o),
(1073,891,o),
(1174,891,cs),
(1293,891,o),
(1370,982,o),
(1370,1073,cs),
(1370,1161,o),
(1343,1241,o),
(1288,1313,cs),
(1179,1457,o),
(1000,1536,o),
(817,1536,cs),
(601,1536,o),
(412,1454,o),
(285,1319,cs),
(158,1183,o),
(84,988,o),
(84,768,cs),
(84,555,o),
(157,353,o),
(280,209,cs),
(403,65,o),
(588,-27,o),
(795,-27,cs)
);
}
);
};
layerId = "EE746D13-63D7-48F9-B77E-C723CA6A668B";
shapes = (
{
ref = C;
},
{
pos = (447,432);
ref = dotaccentcomb;
}
);
width = 1447;
}
);
note = Cdotaccent;
unicode = 266;
},
{
glyphname = D;
kernRight = D;
lastChange = "2023-03-16 12:53:48 +0000";
layers = (
{
anchors = (
{
name = bottom;
pos = (784,0);
},
{
name = center;
pos = (784,753);
},
{
name = top;
pos = (784,1505);
}
);
background = {
shapes = (
{
closed = 1;
nodes = (
(522,0,ls),
(637,0,o),
(743,9,o),
(840,27,cs),
(1033,63,o),
(1198,142,o),
(1310,259,cs),
(1421,376,o),
(1485,549,o),
(1485,762,cs),
(1485,875,o),
(1466,976,o),
(1429,1064,cs),
(1354,1239,o),
(1232,1342,o),
(1056,1412,cs),
(880,1482,o),
(701,1505,o),
(485,1505,cs),
(33,1505,l),
(33,1362,l),
(276,1362,l),
(276,143,l),
(33,143,l),
(33,0,l)
);
},
{
closed = 1;
nodes = (
(512,1360,l),
(569,1360,o),
(621,1358,o),
(669,1354,cs),
(765,1345,o),
(871,1322,o),
(951,1285,cs),
(1030,1248,o),
(1105,1185,o),
(1153,1103,cs),
(1200,1021,o),
(1229,903,o),
(1229,762,cs),
(1229,667,o),
(1217,584,o),
(1192,512,cs),
(1143,368,o),
(1060,280,o),
(936,222,cs),
(812,164,o),
(680,143,o),
(512,143,c)
);
}
);
};
layerId = "EE746D13-63D7-48F9-B77E-C723CA6A668B";
shapes = (
{
closed = 1;
nodes = (
(522,0,ls),
(637,0,o),
(743,9,o),
(840,27,cs),
(1033,63,o),
(1198,142,o),
(1310,259,cs),
(1421,376,o),
(1485,549,o),
(1485,762,cs),
(1485,875,o),
(1466,976,o),
(1429,1064,cs),
(1354,1239,o),
(1232,1342,o),
(1056,1412,cs),
(880,1482,o),
(701,1505,o),
(485,1505,cs),
(33,1505,l),
(33,1362,l),
(276,1362,l),
(276,143,l),
(33,143,l),
(33,0,l)
);
},
{
closed = 1;
nodes = (
(512,1360,l),
(569,1360,o),
(621,1358,o),
(669,1354,cs),
(765,1345,o),
(871,1322,o),
(951,1285,cs),
(1030,1248,o),
(1105,1185,o),
(1153,1103,cs),
(1200,1021,o),
(1229,903,o),
(1229,762,cs),
(1229,667,o),
(1217,584,o),
(1192,512,cs),
(1143,368,o),
(1060,280,o),
(936,222,cs),
(812,164,o),
(680,143,o),
(512,143,c)
);
}
);
width = 1568;
}
);
note = D;
unicode = 68;
},
{
glyphname = DZ;
lastChange = "2023-03-16 12:53:48 +0000";
layers = (
{
background = {
shapes = (
{
closed = 1;
nodes = (
(2846,0,l),
(2846,590,l),
(2660,590,l),
(2660,143,l),
(1949,143,l),
(2813,1335,l),
(2772,1505,l),
(1697,1505,l),
(1697,946,l),
(1883,946,l),
(1883,1368,l),
(2551,1368,l),
(1681,166,l),
(1679,166,l),
(1703,0,l)
);
},
{
closed = 1;
nodes = (
(522,0,ls),
(637,0,o),
(743,9,o),
(840,27,cs),
(1033,63,o),
(1198,142,o),
(1310,259,cs),
(1421,376,o),
(1485,549,o),
(1485,762,cs),
(1485,875,o),
(1466,976,o),
(1429,1064,cs),
(1354,1239,o),
(1232,1342,o),
(1056,1412,cs),
(880,1482,o),
(701,1505,o),
(485,1505,cs),
(33,1505,l),
(33,1362,l),
(276,1362,l),
(276,143,l),
(33,143,l),
(33,0,l)
);
},
{
closed = 1;
nodes = (
(512,1360,l),
(569,1360,o),
(621,1358,o),
(669,1354,cs),
(765,1345,o),
(871,1322,o),
(951,1285,cs),
(1030,1248,o),
(1105,1185,o),
(1153,1103,cs),
(1200,1021,o),
(1229,903,o),
(1229,762,cs),
(1229,667,o),
(1217,584,o),
(1192,512,cs),
(1143,368,o),
(1060,280,o),
(936,222,cs),
(812,164,o),
(680,143,o),
(512,143,c)
);
}
);
};
layerId = "EE746D13-63D7-48F9-B77E-C723CA6A668B";
shapes = (
{
ref = D;
},
{
pos = (1568,0);
ref = Z;
}
);
width = 2927;
}
);
note = uni01F1;
unicode = 497;
},
{
glyphname = DZcaron;
lastChange = "2023-03-16 12:53:48 +0000";
layers = (
{
background = {
shapes = (
{
closed = 1;
nodes = (
(2590,1988,l),
(2491,2081,l),
(2452,2029,ls),
(2399,1961,o),
(2311,1853,o),
(2264,1812,c),
(2212,1859,o),
(2136,1950,o),
(2035,2085,c),
(1936,1995,l),
(2264,1638,l)
);
},
{
closed = 1;
nodes = (
(2846,0,l),
(2846,590,l),
(2660,590,l),
(2660,143,l),
(1949,143,l),
(2813,1335,l),
(2772,1505,l),
(1697,1505,l),
(1697,946,l),
(1883,946,l),
(1883,1368,l),
(2551,1368,l),
(1681,166,l),
(1679,166,l),
(1703,0,l)
);
},
{
closed = 1;
nodes = (
(522,0,ls),
(637,0,o),
(743,9,o),
(840,27,cs),
(1033,63,o),
(1198,142,o),
(1310,259,cs),
(1421,376,o),
(1485,549,o),
(1485,762,cs),
(1485,875,o),
(1466,976,o),
(1429,1064,cs),
(1354,1239,o),
(1232,1342,o),
(1056,1412,cs),
(880,1482,o),
(701,1505,o),
(485,1505,cs),
(33,1505,l),
(33,1362,l),
(276,1362,l),
(276,143,l),
(33,143,l),
(33,0,l)
);
},
{
closed = 1;
nodes = (
(512,1360,l),
(569,1360,o),
(621,1358,o),
(669,1354,cs),
(765,1345,o),
(871,1322,o),
(951,1285,cs),
(1030,1248,o),
(1105,1185,o),
(1153,1103,cs),
(1200,1021,o),
(1229,903,o),
(1229,762,cs),
(1229,667,o),
(1217,584,o),
(1192,512,cs),
(1143,368,o),
(1060,280,o),
(936,222,cs),
(812,164,o),
(680,143,o),
(512,143,c)
);
}
);
};
layerId = "EE746D13-63D7-48F9-B77E-C723CA6A668B";
shapes = (
{
ref = DZ;
},
{
pos = (1877,478);
ref = caroncomb;
}
);
width = 2927;
}
);
note = uni01C4;
unicode = 452;
},
{
glyphname = Eth;
kernRight = D;
lastChange = "2023-03-16 12:53:48 +0000";
layers = (
{
background = {
shapes = (
{
closed = 1;
nodes = (
(522,0,ls),
(637,0,o),
(743,9,o),
(840,27,cs),
(1033,63,o),
(1198,142,o),
(1310,259,cs),
(1421,376,o),
(1485,549,o),
(1485,762,cs),
(1485,875,o),
(1466,976,o),
(1429,1064,cs),
(1354,1239,o),
(1232,1342,o),
(1056,1412,cs),
(880,1482,o),
(701,1505,o),
(485,1505,cs),
(33,1505,l),
(33,1362,l),
(276,1362,l),
(276,834,l),
(55,834,l),
(55,690,l),
(276,690,l),
(276,137,l),
(33,137,l),
(33,0,l)
);
},
{
closed = 1;
nodes = (
(512,690,l),
(764,690,l),
(764,834,l),
(512,834,l),
(512,1360,l),
(569,1360,o),
(621,1358,o),
(669,1354,cs),
(765,1345,o),
(871,1322,o),
(951,1285,cs),
(1030,1248,o),
(1105,1185,o),
(1153,1103,cs),
(1200,1021,o),
(1229,903,o),
(1229,762,cs),
(1229,667,o),
(1217,583,o),
(1192,510,cs),
(1143,364,o),
(1060,276,o),
(936,217,cs),
(812,157,o),
(680,137,o),
(512,137,c)
);
}
);
};
layerId = "EE746D13-63D7-48F9-B77E-C723CA6A668B";
shapes = (
{
closed = 1;
nodes = (
(522,0,ls),
(637,0,o),
(743,9,o),
(840,27,cs),
(1033,63,o),
(1198,142,o),
(1310,259,cs),
(1421,376,o),
(1485,549,o),
(1485,762,cs),
(1485,875,o),
(1466,976,o),
(1429,1064,cs),
(1354,1239,o),
(1232,1342,o),
(1056,1412,cs),
(880,1482,o),
(701,1505,o),
(485,1505,cs),
(33,1505,l),
(33,1362,l),
(276,1362,l),
(276,834,l),
(55,834,l),
(55,690,l),
(276,690,l),
(276,137,l),
(33,137,l),
(33,0,l)
);
},
{
closed = 1;
nodes = (
(512,690,l),
(764,690,l),
(764,834,l),
(512,834,l),
(512,1360,l),
(569,1360,o),
(621,1358,o),
(669,1354,cs),
(765,1345,o),
(871,1322,o),
(951,1285,cs),
(1030,1248,o),
(1105,1185,o),
(1153,1103,cs),
(1200,1021,o),
(1229,903,o),
(1229,762,cs),
(1229,667,o),
(1217,583,o),
(1192,510,cs),
(1143,364,o),
(1060,276,o),
(936,217,cs),
(812,157,o),
(680,137,o),
(512,137,c)
);
}
);
width = 1613;
}
);
note = Eth;
unicode = 208;
},
{
glyphname = Dcaron;
kernRight = D;
lastChange = "2023-03-16 12:53:48 +0000";
layers = (
{
background = {
shapes = (
{
closed = 1;
nodes = (
(1086,1988,l),
(987,2081,l),
(948,2029,ls),
(895,1961,o),
(807,1853,o),
(760,1812,c),
(708,1859,o),
(632,1950,o),
(531,2085,c),
(432,1995,l),
(760,1638,l)
);
},
{
closed = 1;
nodes = (
(522,0,ls),
(637,0,o),
(743,9,o),
(840,27,cs),
(1033,63,o),
(1198,142,o),
(1310,259,cs),
(1421,376,o),
(1485,549,o),
(1485,762,cs),
(1485,875,o),
(1466,976,o),
(1429,1064,cs),
(1354,1239,o),
(1232,1342,o),
(1056,1412,cs),
(880,1482,o),
(701,1505,o),
(485,1505,cs),
(33,1505,l),
(33,1362,l),
(276,1362,l),
(276,143,l),
(33,143,l),
(33,0,l)
);
},
{
closed = 1;
nodes = (
(512,1360,l),
(569,1360,o),
(621,1358,o),
(669,1354,cs),
(765,1345,o),
(871,1322,o),
(951,1285,cs),
(1030,1248,o),
(1105,1185,o),
(1153,1103,cs),
(1200,1021,o),
(1229,903,o),
(1229,762,cs),
(1229,667,o),
(1217,584,o),
(1192,512,cs),
(1143,368,o),
(1060,280,o),
(936,222,cs),
(812,164,o),
(680,143,o),
(512,143,c)
);
}
);
};
layerId = "EE746D13-63D7-48F9-B77E-C723CA6A668B";
shapes = (
{
ref = D;
},
{
pos = (393,478);
ref = caroncomb;
}
);
width = 1568;
}
);
note = Dcaron;
unicode = 270;
},
{
glyphname = Dcroat;
kernRight = D;
lastChange = "2023-03-16 12:53:48 +0000";
layers = (
{
background = {
shapes = (
{
closed = 1;
nodes = (
(522,0,ls),
(637,0,o),
(743,9,o),
(840,27,cs),
(1033,63,o),
(1198,142,o),
(1310,259,cs),
(1421,376,o),
(1485,549,o),
(1485,762,cs),
(1485,875,o),
(1466,976,o),
(1429,1064,cs),
(1354,1239,o),
(1232,1342,o),
(1056,1412,cs),
(880,1482,o),
(701,1505,o),
(485,1505,cs),
(33,1505,l),
(33,1362,l),
(276,1362,l),
(276,834,l),
(55,834,l),
(55,690,l),
(276,690,l),
(276,137,l),
(33,137,l),
(33,0,l)
);
},
{
closed = 1;
nodes = (
(512,690,l),
(764,690,l),
(764,834,l),
(512,834,l),
(512,1360,l),
(569,1360,o),
(621,1358,o),
(669,1354,cs),
(765,1345,o),
(871,1322,o),
(951,1285,cs),
(1030,1248,o),
(1105,1185,o),
(1153,1103,cs),
(1200,1021,o),
(1229,903,o),
(1229,762,cs),
(1229,667,o),
(1217,583,o),
(1192,510,cs),
(1143,364,o),
(1060,276,o),
(936,217,cs),
(812,157,o),
(680,137,o),
(512,137,c)
);
}
);
};
layerId = "EE746D13-63D7-48F9-B77E-C723CA6A668B";
shapes = (
{
ref = Eth;
}
);
width = 1613;
}
);
note = Dcroat;
unicode = 272;
},
{
glyphname = Dz;
kernRight = z;
lastChange = "2023-03-16 12:53:48 +0000";
layers = (
{
background = {
shapes = (
{
closed = 1;
nodes = (
(2578,0,l),
(2578,418,l),
(2414,418,l),
(2414,112,l),
(1892,112,l),
(2537,924,l),
(2508,1073,l),
(1687,1073,l),
(1687,686,l),
(1851,686,l),
(1851,961,l),
(2316,961,l),
(1679,158,l),
(1677,158,l),
(1695,0,l)
);
},
{
closed = 1;
nodes = (
(522,0,ls),
(637,0,o),
(743,9,o),
(840,27,cs),
(1033,63,o),
(1198,142,o),
(1310,259,cs),
(1421,376,o),
(1485,549,o),
(1485,762,cs),
(1485,875,o),
(1466,976,o),
(1429,1064,cs),
(1354,1239,o),
(1232,1342,o),
(1056,1412,cs),
(880,1482,o),
(701,1505,o),
(485,1505,cs),
(33,1505,l),
(33,1362,l),
(276,1362,l),
(276,143,l),
(33,143,l),
(33,0,l)
);
},
{
closed = 1;
nodes = (
(512,1360,l),
(569,1360,o),
(621,1358,o),
(669,1354,cs),
(765,1345,o),
(871,1322,o),
(951,1285,cs),
(1030,1248,o),
(1105,1185,o),
(1153,1103,cs),
(1200,1021,o),
(1229,903,o),
(1229,762,cs),
(1229,667,o),
(1217,584,o),
(1192,512,cs),
(1143,368,o),
(1060,280,o),
(936,222,cs),
(812,164,o),
(680,143,o),
(512,143,c)
);
}
);
};
layerId = "EE746D13-63D7-48F9-B77E-C723CA6A668B";
shapes = (
{
ref = D;
},
{
pos = (1568,0);
ref = z;
}
);
width = 2661;
}
);
note = uni01F2;
unicode = 498;
},
{
glyphname = Dzcaron;
kernRight = z;
lastChange = "2023-03-16 12:53:48 +0000";
layers = (
{
background = {
shapes = (
{
closed = 1;
nodes = (
(2454,1554,l),
(2355,1647,l),
(2316,1595,ls),
(2263,1527,o),
(2175,1419,o),
(2128,1378,c),
(2076,1425,o),
(2000,1516,o),
(1899,1651,c),
(1800,1561,l),
(2128,1204,l)
);
},
{
closed = 1;
nodes = (
(2578,0,l),
(2578,418,l),
(2414,418,l),
(2414,112,l),
(1892,112,l),
(2537,924,l),
(2508,1073,l),
(1687,1073,l),
(1687,686,l),
(1851,686,l),
(1851,961,l),
(2316,961,l),
(1679,158,l),
(1677,158,l),
(1695,0,l)
);
},
{
closed = 1;
nodes = (
(522,0,ls),
(637,0,o),
(743,9,o),
(840,27,cs),
(1033,63,o),
(1198,142,o),
(1310,259,cs),
(1421,376,o),
(1485,549,o),
(1485,762,cs),
(1485,875,o),
(1466,976,o),
(1429,1064,cs),
(1354,1239,o),
(1232,1342,o),
(1056,1412,cs),
(880,1482,o),
(701,1505,o),
(485,1505,cs),
(33,1505,l),
(33,1362,l),
(276,1362,l),
(276,143,l),
(33,143,l),
(33,0,l)
);
},
{
closed = 1;
nodes = (
(512,1360,l),
(569,1360,o),
(621,1358,o),
(669,1354,cs),
(765,1345,o),
(871,1322,o),
(951,1285,cs),
(1030,1248,o),
(1105,1185,o),
(1153,1103,cs),
(1200,1021,o),
(1229,903,o),
(1229,762,cs),
(1229,667,o),
(1217,584,o),
(1192,512,cs),
(1143,368,o),
(1060,280,o),
(936,222,cs),
(812,164,o),
(680,143,o),
(512,143,c)
);
}
);
};
layerId = "EE746D13-63D7-48F9-B77E-C723CA6A668B";
shapes = (
{
ref = D;
},
{
pos = (1568,0);
ref = zcaron;
}
);
width = 2661;
}
);
note = uni01C5;
unicode = 453;
},
{
glyphname = E;
lastChange = "2023-03-16 12:53:48 +0000";
layers = (
{
anchors = (
{
name = bottom;
pos = (742,0);
},
{
name = ogonek;
pos = (1336,6);
},
{
name = top;
pos = (773,1505);
},
{
name = topleft;
pos = (20,1505);
}
);
background = {
shapes = (
{
closed = 1;
nodes = (
(1393,0,l),
(1393,571,l),
(1212,571,l),
(1212,143,l),
(514,143,l),
(514,707,l),
(887,707,l),
(887,446,l),
(1020,446,l),
(1020,1067,l),
(887,1067,l),
(887,821,l),
(514,821,l),
(514,1362,l),
(1212,1362,l),
(1212,926,l),
(1393,926,l),
(1393,1505,l),
(33,1505,l),
(33,1362,l),
(279,1362,l),
(279,143,l),
(33,143,l),
(33,0,l)
);
}
);
};
layerId = "EE746D13-63D7-48F9-B77E-C723CA6A668B";
shapes = (
{
closed = 1;
nodes = (
(1393,0,l),
(1393,571,l),
(1212,571,l),
(1212,143,l),
(514,143,l),
(514,707,l),
(887,707,l),
(887,446,l),
(1020,446,l),
(1020,1067,l),
(887,1067,l),
(887,821,l),
(514,821,l),
(514,1362,l),
(1212,1362,l),
(1212,926,l),
(1393,926,l),
(1393,1505,l),
(33,1505,l),
(33,1362,l),
(279,1362,l),
(279,143,l),
(33,143,l),
(33,0,l)
);
}
);
width = 1484;
}
);
note = E;
unicode = 69;
},
{
glyphname = Eacute;
lastChange = "2023-03-16 12:53:48 +0000";
layers = (
{
background = {
shapes = (
{
closed = 1;
nodes = (
(1393,0,l),
(1393,571,l),
(1212,571,l),
(1212,143,l),
(514,143,l),
(514,707,l),
(887,707,l),
(887,446,l),
(1020,446,l),
(1020,1067,l),
(887,1067,l),
(887,821,l),
(514,821,l),
(514,1362,l),
(1212,1362,l),
(1212,926,l),
(1393,926,l),
(1393,1505,l),
(33,1505,l),
(33,1362,l),
(279,1362,l),
(279,143,l),
(33,143,l),
(33,0,l)
);
},
{
closed = 1;
nodes = (
(568,1682,ls),
(721,1739,o),
(942,1842,o),
(1001,1902,c),
(900,2041,l),
(822,1984,ls),
(717,1909,o),
(533,1769,o),
(425,1677,c),
(454,1638,l)
);
}
);
};
layerId = "EE746D13-63D7-48F9-B77E-C723CA6A668B";
shapes = (
{
ref = E;
},
{
pos = (407,432);
ref = acutecomb;
}
);
width = 1484;
}
);
note = Eacute;
unicode = 201;
},
{
glyphname = Ecaron;
lastChange = "2023-03-16 12:53:48 +0000";
layers = (
{
background = {
shapes = (
{
closed = 1;
nodes = (
(1040,1988,l),
(941,2081,l),
(902,2029,ls),
(849,1961,o),
(761,1853,o),
(714,1812,c),
(662,1859,o),
(586,1950,o),
(485,2085,c),
(386,1995,l),
(714,1638,l)
);
},
{
closed = 1;
nodes = (
(1393,0,l),
(1393,571,l),
(1212,571,l),
(1212,143,l),
(514,143,l),
(514,707,l),
(887,707,l),
(887,446,l),
(1020,446,l),
(1020,1067,l),
(887,1067,l),
(887,821,l),
(514,821,l),
(514,1362,l),
(1212,1362,l),
(1212,926,l),
(1393,926,l),
(1393,1505,l),
(33,1505,l),
(33,1362,l),
(279,1362,l),
(279,143,l),
(33,143,l),
(33,0,l)
);
}
);
};
layerId = "EE746D13-63D7-48F9-B77E-C723CA6A668B";
shapes = (
{
ref = E;
},
{
pos = (382,478);
ref = caroncomb;
}
);
width = 1484;
}
);
note = Ecaron;
unicode = 282;
},
{
glyphname = Ecircumflex;
lastChange = "2023-03-16 12:53:48 +0000";
layers = (
{
background = {
shapes = (
{
closed = 1;
nodes = (
(1040,1728,l),
(712,2085,l),
(386,1734,l),
(485,1642,l),
(524,1693,ls),
(577,1762,o),
(665,1870,o),
(712,1911,c),
(764,1864,o),
(840,1773,o),
(941,1638,c)
);
},
{
closed = 1;
nodes = (
(1393,0,l),
(1393,571,l),
(1212,571,l),
(1212,143,l),
(514,143,l),
(514,707,l),
(887,707,l),
(887,446,l),
(1020,446,l),
(1020,1067,l),
(887,1067,l),
(887,821,l),
(514,821,l),
(514,1362,l),
(1212,1362,l),
(1212,926,l),
(1393,926,l),
(1393,1505,l),
(33,1505,l),
(33,1362,l),
(279,1362,l),
(279,143,l),
(33,143,l),
(33,0,l)
);
}
);
};
layerId = "EE746D13-63D7-48F9-B77E-C723CA6A668B";
shapes = (
{
ref = E;
},
{
pos = (366,432);
ref = circumflexcomb;
}
);
width = 1484;
}
);
note = Ecircumflex;
unicode = 202;
},
{
glyphname = Edblgrave;
lastChange = "2023-03-16 12:53:48 +0000";
layers = (
{
background = {
shapes = (
{
closed = 1;
nodes = (
(1172,1677,l),
(1051,1781,o),
(906,1916,o),
(738,2082,c),
(637,1943,l),
(696,1883,o),
(934,1746,o),
(1028,1698,cs),
(1075,1673,o),
(1113,1653,o),
(1143,1638,c)
);
},
{
closed = 1;
nodes = (
(783,1677,l),
(662,1781,o),
(517,1916,o),
(348,2082,c),
(248,1943,l),
(307,1883,o),
(545,1746,o),
(639,1698,cs),
(686,1673,o),
(724,1653,o),
(754,1638,c)
);
},
{
closed = 1;
nodes = (
(1393,0,l),
(1393,571,l),
(1212,571,l),
(1212,143,l),
(514,143,l),
(514,707,l),
(887,707,l),
(887,446,l),
(1020,446,l),
(1020,1067,l),
(887,1067,l),
(887,821,l),
(514,821,l),
(514,1362,l),
(1212,1362,l),
(1212,926,l),
(1393,926,l),
(1393,1505,l),
(33,1505,l),
(33,1362,l),
(279,1362,l),
(279,143,l),
(33,143,l),
(33,0,l)
);
}
);
};
layerId = "EE746D13-63D7-48F9-B77E-C723CA6A668B";
shapes = (
{
ref = E;
},
{
pos = (120,444);
ref = dblgravecomb;
}
);
width = 1484;
}
);
note = uni0204;
unicode = 516;
},
{
glyphname = Edieresis;
lastChange = "2023-03-16 12:53:48 +0000";
layers = (
{
background = {
shapes = (
{
closed = 1;
nodes = (
(1090,1638,o),
(1155,1702,o),
(1155,1775,cs),
(1155,1851,o),
(1090,1914,o),
(1015,1914,cs),
(939,1914,o),
(878,1851,o),
(878,1775,cs),
(878,1700,o),
(939,1638,o),
(1015,1638,cs)
);
},
{
closed = 1;
nodes = (
(613,1638,o),
(677,1702,o),
(677,1775,cs),
(677,1851,o),
(615,1914,o),
(540,1914,cs),
(464,1914,o),
(403,1851,o),
(403,1775,cs),
(403,1700,o),
(464,1638,o),
(540,1638,cs)
);
},
{
closed = 1;
nodes = (
(1393,0,l),
(1393,571,l),
(1212,571,l),
(1212,143,l),
(514,143,l),
(514,707,l),
(887,707,l),
(887,446,l),
(1020,446,l),
(1020,1067,l),
(887,1067,l),
(887,821,l),
(514,821,l),
(514,1362,l),
(1212,1362,l),
(1212,926,l),
(1393,926,l),
(1393,1505,l),
(33,1505,l),
(33,1362,l),
(279,1362,l),
(279,143,l),
(33,143,l),
(33,0,l)
);
}
);
};
layerId = "EE746D13-63D7-48F9-B77E-C723CA6A668B";
shapes = (
{
ref = E;
},
{
pos = (319,432);
ref = dieresiscomb;
}
);
width = 1484;
}
);
note = Edieresis;
unicode = 203;
},
{
glyphname = Edotaccent;
lastChange = "2023-03-16 12:53:48 +0000";
layers = (
{
background = {
shapes = (
{
closed = 1;
nodes = (
(792,1638,o),
(861,1706,o),
(861,1786,cs),
(861,1867,o),
(792,1935,o),
(712,1935,cs),
(631,1935,o),
(564,1869,o),
(564,1786,cs),
(564,1706,o),
(631,1638,o),
(712,1638,cs)
);
},
{
closed = 1;
nodes = (
(1393,0,l),
(1393,571,l),
(1212,571,l),
(1212,143,l),
(514,143,l),
(514,707,l),
(887,707,l),
(887,446,l),
(1020,446,l),
(1020,1067,l),
(887,1067,l),
(887,821,l),
(514,821,l),
(514,1362,l),
(1212,1362,l),
(1212,926,l),
(1393,926,l),
(1393,1505,l),
(33,1505,l),
(33,1362,l),
(279,1362,l),
(279,143,l),
(33,143,l),
(33,0,l)
);
}
);
};
layerId = "EE746D13-63D7-48F9-B77E-C723CA6A668B";
shapes = (
{
ref = E;
},
{
pos = (438,432);
ref = dotaccentcomb;
}
);
width = 1484;
}
);
note = Edotaccent;
unicode = 278;
},
{
glyphname = Egrave;
lastChange = "2023-03-16 12:53:48 +0000";
layers = (
{
background = {
shapes = (
{
closed = 1;
nodes = (
(1393,0,l),
(1393,571,l),
(1212,571,l),
(1212,143,l),
(514,143,l),
(514,707,l),
(887,707,l),
(887,446,l),
(1020,446,l),
(1020,1067,l),
(887,1067,l),
(887,821,l),
(514,821,l),
(514,1362,l),
(1212,1362,l),
(1212,926,l),
(1393,926,l),
(1393,1505,l),
(33,1505,l),
(33,1362,l),
(279,1362,l),
(279,143,l),
(33,143,l),
(33,0,l)
);
},
{
closed = 1;
nodes = (
(1001,1677,l),
(880,1781,o),
(721,1902,o),
(526,2041,c),
(425,1902,l),
(462,1863,o),
(568,1806,o),
(659,1766,cs),
(750,1725,o),
(882,1672,o),
(923,1657,cs),
(944,1649,o),
(960,1643,o),
(972,1638,c)
);
}
);
};
layerId = "EE746D13-63D7-48F9-B77E-C723CA6A668B";
shapes = (
{
ref = E;
},
{
pos = (407,432);
ref = gravecomb;
}
);
width = 1484;
}
);
note = Egrave;
unicode = 200;
},
{
glyphname = Einvertedbreve;
lastChange = "2023-03-16 12:53:48 +0000";
layers = (
{
background = {
shapes = (
{
closed = 1;
nodes = (
(953,1638,l),
(950,1691,o),
(931,1748,o),
(893,1799,cs),
(855,1850,o),
(788,1884,o),
(711,1884,cs),
(634,1884,o),
(568,1849,o),
(532,1799,cs),
(495,1749,o),
(475,1693,o),
(472,1642,c),
(601,1642,l),
(605,1715,o),
(657,1765,o),
(713,1765,cs),
(772,1765,o),
(823,1714,o),
(824,1638,c)
);
},
{
closed = 1;
nodes = (
(1393,0,l),
(1393,571,l),
(1212,571,l),
(1212,143,l),
(514,143,l),
(514,707,l),
(887,707,l),
(887,446,l),
(1020,446,l),
(1020,1067,l),
(887,1067,l),
(887,821,l),
(514,821,l),
(514,1362,l),
(1212,1362,l),
(1212,926,l),
(1393,926,l),
(1393,1505,l),
(33,1505,l),
(33,1362,l),
(279,1362,l),
(279,143,l),
(33,143,l),
(33,0,l)
);
}
);
};
layerId = "EE746D13-63D7-48F9-B77E-C723CA6A668B";
shapes = (
{
ref = E;
},
{
pos = (194,432);
ref = breveinvertedcomb;
}
);
width = 1484;
}
);
note = uni0206;
unicode = 518;
},
{
glyphname = Emacron;
lastChange = "2023-03-16 12:53:48 +0000";
layers = (
{
background = {
shapes = (
{
closed = 1;
nodes = (
(1032,1638,l),
(1032,1776,l),
(450,1776,l),
(450,1638,l)
);
},
{
closed = 1;
nodes = (
(1393,0,l),
(1393,571,l),
(1212,571,l),
(1212,143,l),
(514,143,l),
(514,707,l),
(887,707,l),
(887,446,l),
(1020,446,l),
(1020,1067,l),
(887,1067,l),
(887,821,l),
(514,821,l),
(514,1362,l),
(1212,1362,l),
(1212,926,l),
(1393,926,l),
(1393,1505,l),
(33,1505,l),
(33,1362,l),
(279,1362,l),
(279,143,l),
(33,143,l),
(33,0,l)
);
}
);
};
layerId = "EE746D13-63D7-48F9-B77E-C723CA6A668B";
shapes = (
{
ref = E;
},
{
pos = (329,432);
ref = macroncomb;
}
);
width = 1484;
}
);
note = Emacron;
unicode = 274;
},
{
glyphname = Eogonek;
lastChange = "2023-03-16 12:53:48 +0000";
layers = (
{
background = {
shapes = (
{
closed = 1;
nodes = (
(1296,-242,l),
(1177,-226,o),
(1140,-180,o),
(1140,-119,cs),
(1140,-64,o),
(1193,-15,o),
(1298,4,c),
(1298,35,l),
(1225,35,o),
(1150,18,o),
(1087,-13,cs),
(1023,-45,o),
(980,-102,o),
(980,-170,cs),
(980,-281,o),
(1098,-381,o),
(1269,-381,c)
);
},
{
closed = 1;
nodes = (
(1393,0,l),
(1393,571,l),
(1212,571,l),
(1212,143,l),
(514,143,l),
(514,707,l),
(887,707,l),
(887,446,l),
(1020,446,l),
(1020,1067,l),
(887,1067,l),
(887,821,l),
(514,821,l),
(514,1362,l),
(1212,1362,l),
(1212,926,l),
(1393,926,l),
(1393,1505,l),
(33,1505,l),
(33,1362,l),
(279,1362,l),
(279,143,l),
(33,143,l),
(33,0,l)
);
}
);
};
layerId = "EE746D13-63D7-48F9-B77E-C723CA6A668B";
shapes = (
{
ref = E;
},
{
pos = (964,0);
ref = ogonekcomb;
}
);
width = 1484;
}
);
note = Eogonek;
unicode = 280;
},
{
glyphname = F;
kernRight = F;
lastChange = "2023-03-16 12:53:48 +0000";
layers = (
{
anchors = (
{
name = bottom;
pos = (705,0);
},
{
name = top;
pos = (705,1505);
}
);
background = {
shapes = (
{
closed = 1;
nodes = (
(772,0,l),
(772,143,l),
(512,143,l),
(512,725,l),
(872,725,l),
(872,471,l),
(1010,471,l),
(1010,1055,l),
(872,1055,l),
(872,844,l),
(512,844,l),
(512,1362,l),
(1192,1362,l),
(1192,956,l),
(1374,956,l),
(1374,1505,l),
(33,1505,l),
(33,1362,l),
(276,1362,l),
(276,143,l),
(33,143,l),
(33,0,l)
);
}
);
};
layerId = "EE746D13-63D7-48F9-B77E-C723CA6A668B";
shapes = (
{
closed = 1;
nodes = (
(772,0,l),
(772,143,l),
(512,143,l),
(512,725,l),
(872,725,l),
(872,471,l),
(1010,471,l),
(1010,1055,l),
(872,1055,l),
(872,844,l),
(512,844,l),
(512,1362,l),
(1192,1362,l),
(1192,956,l),
(1374,956,l),
(1374,1505,l),
(33,1505,l),
(33,1362,l),
(276,1362,l),
(276,143,l),
(33,143,l),
(33,0,l)
);
}
);
width = 1409;
}
);
note = F;
unicode = 70;
},
{
glyphname = G;
kernLeft = C;
lastChange = "2023-03-16 13:16:24 +0000";
layers = (
{
anchors = (
{
name = bottom;
pos = (800,0);
},
{
name = top;
pos = (831,1505);
}
);
background = {
shapes = (
{
closed = 1;
nodes = (
(877,-27,o),
(963,-12,o),
(1051,22,cs),
(1139,56,o),
(1217,122,o),
(1262,211,c),
(1311,0,l),
(1432,0,l),
(1432,586,l),
(1595,586,l),
(1595,737,l),
(944,737,l),
(944,586,l),
(1227,586,l),
(1227,446,ls),
(1227,386,o),
(1185,314,o),
(1121,255,cs),
(1056,195,o),
(955,152,o),
(852,152,cs),
(708,152,o),
(575,225,o),
(488,337,cs),
(400,449,o),
(346,603,o),
(346,762,cs),
(346,881,o),
(367,988,o),
(408,1083,cs),
(491,1273,o),
(659,1396,o),
(874,1396,cs),
(913,1396,o),
(951,1392,o),
(990,1384,cs),
(1066,1368,o),
(1168,1316,o),
(1225,1237,c),
(1221,1237,ls),
(1169,1237,o),
(1094,1170,o),
(1094,1077,cs),
(1094,997,o),
(1166,920,o),
(1262,920,cs),
(1366,920,o),
(1434,1002,o),
(1434,1085,cs),
(1434,1167,o),
(1410,1242,o),
(1361,1311,cs),
(1264,1447,o),
(1076,1536,o),
(855,1536,cs),
(620,1536,o),
(416,1443,o),
(288,1299,cs),
(159,1155,o),
(84,963,o),
(84,760,cs),
(84,683,o),
(93,607,o),
(111,533,cs),
(147,384,o),
(226,244,o),
(335,141,cs),
(443,38,o),
(604,-27,o),
(788,-27,cs)
);
}
);
};
layerId = "EE746D13-63D7-48F9-B77E-C723CA6A668B";
shapes = (
{
closed = 1;
nodes = (
(971,-27,o),
(1173,35,o),
(1262,211,c),
(1311,0,l),
(1432,0,l),
(1432,586,l),
(1595,586,l),
(1595,737,l),
(944,737,l),
(944,586,l),
(1227,586,l),
(1227,446,ls),
(1227,325,o),
(1064,152,o),
(852,152,cs),
(544,152,o),
(346,460,o),
(346,762,cs),
(346,1105,o),
(534,1396,o),
(874,1396,cs),
(1000,1396,o),
(1143,1351,o),
(1225,1237,c),
(1169,1237,o),
(1094,1170,o),
(1094,1077,cs),
(1094,997,o),
(1166,920,o),
(1262,920,cs),
(1366,920,o),
(1434,1002,o),
(1434,1085,cs),
(1434,1365,o),
(1152,1536,o),
(855,1536,cs),
(378,1536,o),
(84,1169,o),
(84,760,cs),
(84,356,o),
(334,-27,o),
(788,-27,cs)
);
}
);
width = 1599;
}
);
note = G;
unicode = 71;
},
{
glyphname = Gacute;
lastChange = "2023-03-16 12:53:48 +0000";
layers = (
{
background = {
shapes = (
{
closed = 1;
nodes = (
(877,-27,o),
(963,-12,o),
(1051,22,cs),
(1139,56,o),
(1217,122,o),
(1262,211,c),
(1311,0,l),
(1432,0,l),
(1432,586,l),
(1595,586,l),
(1595,737,l),
(944,737,l),
(944,586,l),
(1227,586,l),
(1227,446,ls),
(1227,386,o),
(1185,314,o),
(1121,255,cs),
(1056,195,o),
(955,152,o),
(852,152,cs),
(708,152,o),
(575,225,o),
(488,337,cs),
(400,449,o),
(346,603,o),
(346,762,cs),
(346,881,o),
(367,988,o),
(408,1083,cs),
(491,1273,o),
(659,1396,o),
(874,1396,cs),
(913,1396,o),
(951,1392,o),
(990,1384,cs),
(1066,1368,o),
(1168,1316,o),
(1225,1237,c),
(1221,1237,ls),
(1169,1237,o),
(1094,1170,o),
(1094,1077,cs),
(1094,997,o),
(1166,920,o),
(1262,920,cs),
(1366,920,o),
(1434,1002,o),
(1434,1085,cs),
(1434,1167,o),
(1410,1242,o),
(1361,1311,cs),
(1264,1447,o),
(1076,1536,o),
(855,1536,cs),
(620,1536,o),
(416,1443,o),
(288,1299,cs),
(159,1155,o),
(84,963,o),
(84,760,cs),
(84,683,o),
(93,607,o),
(111,533,cs),
(147,384,o),
(226,244,o),
(335,141,cs),
(443,38,o),
(604,-27,o),
(788,-27,cs)
);
},
{
closed = 1;
nodes = (
(708,1682,ls),
(861,1739,o),
(1082,1842,o),
(1141,1902,c),
(1040,2041,l),
(962,1984,ls),
(857,1909,o),
(673,1769,o),
(565,1677,c),
(594,1638,l)
);
}
);
};
layerId = "EE746D13-63D7-48F9-B77E-C723CA6A668B";
shapes = (
{
ref = G;
},
{
pos = (465,432);
ref = acutecomb;
}
);
width = 1599;
}
);
note = uni01F4;
unicode = 500;
},
{
glyphname = Gbreve;
lastChange = "2023-03-16 12:53:48 +0000";
layers = (
{
background = {
shapes = (
{
closed = 1;
nodes = (
(933,1638,o),
(999,1674,o),
(1036,1724,cs),
(1072,1774,o),
(1092,1829,o),
(1095,1880,c),
(966,1880,l),
(962,1807,o),
(910,1757,o),
(854,1757,cs),
(795,1757,o),
(744,1808,o),
(743,1884,c),
(614,1884,l),
(617,1831,o),
(637,1774,o),
(675,1723,cs),
(713,1672,o),
(779,1638,o),
(856,1638,cs)
);
},
{
closed = 1;
nodes = (
(877,-27,o),
(963,-12,o),
(1051,22,cs),
(1139,56,o),
(1217,122,o),
(1262,211,c),
(1311,0,l),
(1432,0,l),
(1432,586,l),
(1595,586,l),
(1595,737,l),
(944,737,l),
(944,586,l),
(1227,586,l),
(1227,446,ls),
(1227,386,o),
(1185,314,o),
(1121,255,cs),
(1056,195,o),
(955,152,o),
(852,152,cs),
(708,152,o),
(575,225,o),
(488,337,cs),
(400,449,o),
(346,603,o),
(346,762,cs),
(346,881,o),
(367,988,o),
(408,1083,cs),
(491,1273,o),
(659,1396,o),
(874,1396,cs),
(913,1396,o),
(951,1392,o),
(990,1384,cs),
(1066,1368,o),
(1168,1316,o),
(1225,1237,c),
(1221,1237,ls),
(1169,1237,o),
(1094,1170,o),
(1094,1077,cs),
(1094,997,o),
(1166,920,o),
(1262,920,cs),
(1366,920,o),
(1434,1002,o),
(1434,1085,cs),
(1434,1167,o),
(1410,1242,o),
(1361,1311,cs),
(1264,1447,o),
(1076,1536,o),
(855,1536,cs),
(620,1536,o),
(416,1443,o),
(288,1299,cs),
(159,1155,o),
(84,963,o),
(84,760,cs),
(84,683,o),
(93,607,o),
(111,533,cs),
(147,384,o),
(226,244,o),
(335,141,cs),
(443,38,o),
(604,-27,o),
(788,-27,cs)
);
}
);
};
layerId = "EE746D13-63D7-48F9-B77E-C723CA6A668B";
shapes = (
{
ref = G;
},
{
pos = (252,432);
ref = brevecomb;
}
);
width = 1599;
}
);
note = Gbreve;
unicode = 286;
},
{
glyphname = Gcircumflex;
lastChange = "2023-03-16 12:53:48 +0000";
layers = (
{
background = {
shapes = (
{
closed = 1;
nodes = (
(1166,1728,l),
(838,2085,l),
(512,1734,l),
(611,1642,l),
(650,1693,ls),
(703,1762,o),
(791,1870,o),
(838,1911,c),
(890,1864,o),
(966,1773,o),
(1067,1638,c)
);
},
{
closed = 1;
nodes = (
(877,-27,o),
(963,-12,o),
(1051,22,cs),
(1139,56,o),
(1217,122,o),
(1262,211,c),
(1311,0,l),
(1432,0,l),
(1432,586,l),
(1595,586,l),
(1595,737,l),
(944,737,l),
(944,586,l),
(1227,586,l),
(1227,446,ls),
(1227,386,o),
(1185,314,o),
(1121,255,cs),
(1056,195,o),
(955,152,o),
(852,152,cs),
(708,152,o),
(575,225,o),
(488,337,cs),
(400,449,o),
(346,603,o),
(346,762,cs),
(346,881,o),
(367,988,o),
(408,1083,cs),
(491,1273,o),
(659,1396,o),
(874,1396,cs),
(913,1396,o),
(951,1392,o),
(990,1384,cs),
(1066,1368,o),
(1168,1316,o),
(1225,1237,c),
(1221,1237,ls),
(1169,1237,o),
(1094,1170,o),
(1094,1077,cs),
(1094,997,o),
(1166,920,o),
(1262,920,cs),
(1366,920,o),
(1434,1002,o),
(1434,1085,cs),
(1434,1167,o),
(1410,1242,o),
(1361,1311,cs),
(1264,1447,o),
(1076,1536,o),
(855,1536,cs),
(620,1536,o),
(416,1443,o),
(288,1299,cs),
(159,1155,o),
(84,963,o),
(84,760,cs),
(84,683,o),
(93,607,o),
(111,533,cs),
(147,384,o),
(226,244,o),
(335,141,cs),
(443,38,o),
(604,-27,o),
(788,-27,cs)
);
}
);
};
layerId = "EE746D13-63D7-48F9-B77E-C723CA6A668B";
shapes = (
{
ref = G;
},
{
pos = (424,432);
ref = circumflexcomb;
}
);
width = 1599;
}
);
note = Gcircumflex;
unicode = 284;
},
{
glyphname = Gcommaaccent;
lastChange = "2023-03-16 12:53:48 +0000";
layers = (
{
background = {
shapes = (
{
closed = 1;
nodes = (
(836,-484,ls),
(879,-369,o),
(929,-193,o),
(925,-129,c),
(755,-129,l),
(757,-198,ls),
(758,-245,o),
(759,-304,o),
(759,-377,cs),
(759,-450,o),
(758,-512,o),
(755,-564,c),
(804,-570,l)
);
},
{
closed = 1;
nodes = (
(877,-27,o),
(963,-12,o),
(1051,22,cs),
(1139,56,o),
(1217,122,o),
(1262,211,c),
(1311,0,l),
(1432,0,l),
(1432,586,l),
(1595,586,l),
(1595,737,l),
(944,737,l),
(944,586,l),
(1227,586,l),
(1227,446,ls),
(1227,386,o),
(1185,314,o),
(1121,255,cs),
(1056,195,o),
(955,152,o),
(852,152,cs),
(708,152,o),
(575,225,o),
(488,337,cs),
(400,449,o),
(346,603,o),
(346,762,cs),
(346,881,o),
(367,988,o),
(408,1083,cs),
(491,1273,o),
(659,1396,o),
(874,1396,cs),
(913,1396,o),
(951,1392,o),
(990,1384,cs),
(1066,1368,o),
(1168,1316,o),
(1225,1237,c),
(1221,1237,ls),
(1169,1237,o),
(1094,1170,o),
(1094,1077,cs),
(1094,997,o),
(1166,920,o),
(1262,920,cs),
(1366,920,o),
(1434,1002,o),
(1434,1085,cs),
(1434,1167,o),
(1410,1242,o),
(1361,1311,cs),
(1264,1447,o),
(1076,1536,o),
(855,1536,cs),
(620,1536,o),
(416,1443,o),
(288,1299,cs),
(159,1155,o),
(84,963,o),
(84,760,cs),
(84,683,o),
(93,607,o),
(111,533,cs),
(147,384,o),
(226,244,o),
(335,141,cs),
(443,38,o),
(604,-27,o),
(788,-27,cs)
);
}
);
};
layerId = "EE746D13-63D7-48F9-B77E-C723CA6A668B";
shapes = (
{
ref = G;
},
{
pos = (223,0);
ref = commaaccentcomb;
}
);
width = 1599;
}
);
note = uni0122;
unicode = 290;
},
{
glyphname = Gdotaccent;
lastChange = "2023-03-16 12:53:48 +0000";
layers = (
{
background = {
shapes = (
{
closed = 1;
nodes = (
(934,1638,o),
(1003,1706,o),
(1003,1786,cs),
(1003,1867,o),
(934,1935,o),
(854,1935,cs),
(773,1935,o),
(706,1869,o),
(706,1786,cs),
(706,1706,o),
(773,1638,o),
(854,1638,cs)
);
},
{
closed = 1;
nodes = (
(877,-27,o),
(963,-12,o),
(1051,22,cs),
(1139,56,o),
(1217,122,o),
(1262,211,c),
(1311,0,l),
(1432,0,l),
(1432,586,l),
(1595,586,l),
(1595,737,l),
(944,737,l),
(944,586,l),
(1227,586,l),
(1227,446,ls),
(1227,386,o),
(1185,314,o),
(1121,255,cs),
(1056,195,o),
(955,152,o),
(852,152,cs),
(708,152,o),
(575,225,o),
(488,337,cs),
(400,449,o),
(346,603,o),
(346,762,cs),
(346,881,o),
(367,988,o),
(408,1083,cs),
(491,1273,o),
(659,1396,o),
(874,1396,cs),
(913,1396,o),
(951,1392,o),
(990,1384,cs),
(1066,1368,o),
(1168,1316,o),
(1225,1237,c),
(1221,1237,ls),
(1169,1237,o),
(1094,1170,o),
(1094,1077,cs),
(1094,997,o),
(1166,920,o),
(1262,920,cs),
(1366,920,o),
(1434,1002,o),
(1434,1085,cs),
(1434,1167,o),
(1410,1242,o),
(1361,1311,cs),
(1264,1447,o),
(1076,1536,o),
(855,1536,cs),
(620,1536,o),
(416,1443,o),
(288,1299,cs),
(159,1155,o),
(84,963,o),
(84,760,cs),
(84,683,o),
(93,607,o),
(111,533,cs),
(147,384,o),
(226,244,o),
(335,141,cs),
(443,38,o),
(604,-27,o),
(788,-27,cs)
);
}
);
};
layerId = "EE746D13-63D7-48F9-B77E-C723CA6A668B";
shapes = (
{
ref = G;
},
{
pos = (496,432);
ref = dotaccentcomb;
}
);
width = 1599;
}
);
note = Gdotaccent;
unicode = 288;
},
{
glyphname = H;
kernRight = H;
lastChange = "2023-03-16 12:53:48 +0000";
layers = (
{
anchors = (
{
name = bottom;
pos = (827,0);
},
{
name = center;
pos = (827,753);
},
{
name = top;
pos = (827,1505);
},
{
name = topleft;
pos = (20,1505);
}
);
background = {
shapes = (
{
closed = 1;
nodes = (
(741,0,l),
(741,143,l),
(512,143,l),
(512,725,l),
(1143,725,l),
(1143,143,l),
(911,143,l),
(911,0,l),
(1622,0,l),
(1622,143,l),
(1378,143,l),
(1378,1362,l),
(1622,1362,l),
(1622,1505,l),
(911,1505,l),
(911,1362,l),
(1143,1362,l),
(1143,852,l),
(512,852,l),
(512,1362,l),
(741,1362,l),
(741,1505,l),
(33,1505,l),
(33,1362,l),
(276,1362,l),
(276,143,l),
(33,143,l),
(33,0,l)
);
}
);
};
layerId = "EE746D13-63D7-48F9-B77E-C723CA6A668B";
shapes = (
{
closed = 1;
nodes = (
(741,0,l),
(741,143,l),
(512,143,l),
(512,725,l),
(1143,725,l),
(1143,143,l),
(911,143,l),
(911,0,l),
(1622,0,l),
(1622,143,l),
(1378,143,l),
(1378,1362,l),
(1622,1362,l),
(1622,1505,l),
(911,1505,l),
(911,1362,l),
(1143,1362,l),
(1143,852,l),
(512,852,l),
(512,1362,l),
(741,1362,l),
(741,1505,l),
(33,1505,l),
(33,1362,l),
(276,1362,l),
(276,143,l),
(33,143,l),
(33,0,l)
);
}
);
width = 1654;
}
);
note = H;
unicode = 72;
},
{
glyphname = Hbar;
kernRight = H;
lastChange = "2023-03-16 12:53:48 +0000";
layers = (
{
background = {
shapes = (
{
closed = 1;
nodes = (
(741,0,l),
(741,137,l),
(512,137,l),
(512,725,l),
(1143,725,l),
(1143,137,l),
(911,137,l),
(911,0,l),
(1622,0,l),
(1622,137,l),
(1378,137,l),
(1378,1048,l),
(1484,1048,l),
(1484,1166,l),
(1378,1166,l),
(1378,1362,l),
(1622,1362,l),
(1622,1505,l),
(911,1505,l),
(911,1362,l),
(1143,1362,l),
(1143,1166,l),
(512,1166,l),
(512,1362,l),
(741,1362,l),
(741,1505,l),
(33,1505,l),
(33,1362,l),
(276,1362,l),
(276,1166,l),
(173,1166,l),
(173,1048,l),
(276,1048,l),
(276,137,l),
(33,137,l),
(33,0,l)
);
},
{
closed = 1;
nodes = (
(512,1048,l),
(1143,1048,l),
(1143,852,l),
(512,852,l)
);
}
);
};
layerId = "EE746D13-63D7-48F9-B77E-C723CA6A668B";
shapes = (
{
closed = 1;
nodes = (
(741,0,l),
(741,137,l),
(512,137,l),
(512,725,l),
(1143,725,l),
(1143,137,l),
(911,137,l),
(911,0,l),
(1622,0,l),
(1622,137,l),
(1378,137,l),
(1378,1048,l),
(1484,1048,l),
(1484,1166,l),
(1378,1166,l),
(1378,1362,l),
(1622,1362,l),
(1622,1505,l),
(911,1505,l),
(911,1362,l),
(1143,1362,l),
(1143,1166,l),
(512,1166,l),
(512,1362,l),
(741,1362,l),
(741,1505,l),
(33,1505,l),
(33,1362,l),
(276,1362,l),
(276,1166,l),
(173,1166,l),
(173,1048,l),
(276,1048,l),
(276,137,l),
(33,137,l),
(33,0,l)
);
},
{
closed = 1;
nodes = (
(512,1048,l),
(1143,1048,l),
(1143,852,l),
(512,852,l)
);
}
);
width = 1654;
}
);
note = Hbar;
unicode = 294;
},
{
glyphname = Hcircumflex;
kernRight = H;
lastChange = "2023-03-16 12:53:48 +0000";
layers = (
{
background = {
shapes = (
{
closed = 1;
nodes = (
(1154,1728,l),
(826,2085,l),
(500,1734,l),
(599,1642,l),
(638,1693,ls),
(691,1762,o),
(779,1870,o),
(826,1911,c),
(878,1864,o),
(954,1773,o),
(1055,1638,c)
);
},
{
closed = 1;
nodes = (
(741,0,l),
(741,143,l),
(512,143,l),
(512,725,l),
(1143,725,l),
(1143,143,l),
(911,143,l),
(911,0,l),
(1622,0,l),
(1622,143,l),
(1378,143,l),
(1378,1362,l),
(1622,1362,l),
(1622,1505,l),
(911,1505,l),
(911,1362,l),
(1143,1362,l),
(1143,852,l),
(512,852,l),
(512,1362,l),
(741,1362,l),
(741,1505,l),
(33,1505,l),
(33,1362,l),
(276,1362,l),
(276,143,l),
(33,143,l),
(33,0,l)
);
}
);
};
layerId = "EE746D13-63D7-48F9-B77E-C723CA6A668B";
shapes = (
{
ref = H;
},
{
pos = (420,432);
ref = circumflexcomb;
}
);
width = 1654;
}
);
note = Hcircumflex;
unicode = 292;
},
{
glyphname = I;
lastChange = "2023-03-16 12:53:48 +0000";
layers = (
{
anchors = (
{
name = bottom;
pos = (385,0);
},
{
name = ogonek;
pos = (532,7);
},
{
name = top;
pos = (385,1505);
},
{
name = topleft;
pos = (20,1505);
}
);
background = {
shapes = (
{
closed = 1;
nodes = (
(739,0,l),
(739,143,l),
(509,143,l),
(509,1362,l),
(739,1362,l),
(739,1505,l),
(30,1505,l),
(30,1362,l),
(274,1362,l),
(274,143,l),
(30,143,l),
(30,0,l)
);
}
);
};
layerId = "EE746D13-63D7-48F9-B77E-C723CA6A668B";
shapes = (
{
closed = 1;
nodes = (
(739,0,l),
(739,143,l),
(509,143,l),
(509,1362,l),
(739,1362,l),
(739,1505,l),
(30,1505,l),
(30,1362,l),
(274,1362,l),
(274,143,l),
(30,143,l),
(30,0,l)
);
}
);
width = 769;
}
);
note = I;
unicode = 73;
},
{
glyphname = IJ;
lastChange = "2023-03-16 12:53:48 +0000";
layers = (
{
background = {
shapes = (
{
closed = 1;
nodes = (
(1314,-201,o),
(1378,-191,o),
(1433,-172,cs),
(1543,-134,o),
(1606,-73,o),
(1647,22,cs),
(1688,117,o),
(1701,213,o),
(1701,338,cs),
(1701,1362,l),
(1939,1362,l),
(1939,1505,l),
(1185,1505,l),
(1185,1362,l),
(1466,1362,l),
(1466,311,ls),
(1466,258,o),
(1464,213,o),
(1461,176,cs),
(1454,101,o),
(1436,25,o),
(1402,-18,cs),
(1368,-61,o),
(1310,-88,o),
(1230,-88,cs),
(1166,-88,o),
(1075,-63,o),
(1050,-27,c),
(1105,6,o),
(1161,70,o),
(1161,141,cs),
(1161,238,o),
(1083,301,o),
(995,301,cs),
(902,301,o),
(825,235,o),
(825,123,cs),
(825,-56,o),
(996,-201,o),
(1241,-201,cs)
);
},
{
closed = 1;
nodes = (
(739,0,l),
(739,143,l),
(509,143,l),
(509,1362,l),
(739,1362,l),
(739,1505,l),
(30,1505,l),
(30,1362,l),
(274,1362,l),
(274,143,l),
(30,143,l),
(30,0,l)
);
}
);
};
layerId = "EE746D13-63D7-48F9-B77E-C723CA6A668B";
shapes = (
{
ref = I;
},
{
pos = (769,0);
ref = J;
}
);
width = 1930;
}
);
note = IJ;
unicode = 306;
},
{
glyphname = Iacute;
lastChange = "2023-03-16 12:53:48 +0000";
layers = (
{
background = {
shapes = (
{
closed = 1;
nodes = (
(739,0,l),
(739,143,l),
(509,143,l),
(509,1362,l),
(739,1362,l),
(739,1505,l),
(30,1505,l),
(30,1362,l),
(274,1362,l),
(274,143,l),
(30,143,l),
(30,0,l)
);
},
{
closed = 1;
nodes = (
(239,1682,ls),
(392,1739,o),
(613,1842,o),
(672,1902,c),
(571,2041,l),
(493,1984,ls),
(388,1909,o),
(204,1769,o),
(96,1677,c),
(125,1638,l)
);
}
);
};
layerId = "EE746D13-63D7-48F9-B77E-C723CA6A668B";
shapes = (
{
ref = I;
},
{
pos = (19,432);
ref = acutecomb;
}
);
width = 769;
}
);
note = Iacute;
unicode = 205;
},
{
glyphname = Ibreve;
lastChange = "2023-03-16 12:53:48 +0000";
layers = (
{
background = {
shapes = (
{
closed = 1;
nodes = (
(463,1638,o),
(529,1674,o),
(566,1724,cs),
(602,1774,o),
(622,1829,o),
(625,1880,c),
(496,1880,l),
(492,1807,o),
(440,1757,o),
(384,1757,cs),
(325,1757,o),
(274,1808,o),
(273,1884,c),
(144,1884,l),
(147,1831,o),
(167,1774,o),
(205,1723,cs),
(243,1672,o),
(309,1638,o),
(386,1638,cs)
);
},
{
closed = 1;
nodes = (
(739,0,l),
(739,143,l),
(509,143,l),
(509,1362,l),
(739,1362,l),
(739,1505,l),
(30,1505,l),
(30,1362,l),
(274,1362,l),
(274,143,l),
(30,143,l),
(30,0,l)
);
}
);
};
layerId = "EE746D13-63D7-48F9-B77E-C723CA6A668B";
shapes = (
{
ref = I;
},
{
pos = (-194,432);
ref = brevecomb;
}
);
width = 769;
}
);
note = Ibreve;
unicode = 300;
},
{
glyphname = Icircumflex;
lastChange = "2023-03-16 12:53:48 +0000";
layers = (
{
background = {
shapes = (
{
closed = 1;
nodes = (
(711,1728,l),
(383,2085,l),
(57,1734,l),
(156,1642,l),
(195,1693,ls),
(248,1762,o),
(336,1870,o),
(383,1911,c),
(435,1864,o),
(511,1773,o),
(612,1638,c)
);
},
{
closed = 1;
nodes = (
(739,0,l),
(739,143,l),
(509,143,l),
(509,1362,l),
(739,1362,l),
(739,1505,l),
(30,1505,l),
(30,1362,l),
(274,1362,l),
(274,143,l),
(30,143,l),
(30,0,l)
);
}
);
};
layerId = "EE746D13-63D7-48F9-B77E-C723CA6A668B";
shapes = (
{
ref = I;
},
{
pos = (-22,432);
ref = circumflexcomb;
}
);
width = 769;
}
);
note = Icircumflex;
unicode = 206;
},
{
glyphname = Idblgrave;
lastChange = "2023-03-16 12:53:48 +0000";
layers = (
{
background = {
shapes = (
{
closed = 1;
nodes = (
(739,0,l),
(739,143,l),
(509,143,l),
(509,1362,l),
(739,1362,l),
(739,1505,l),
(30,1505,l),
(30,1362,l),
(274,1362,l),
(274,143,l),
(30,143,l),
(30,0,l)
);
},
{
closed = 1;
nodes = (
(846,1677,l),
(725,1781,o),
(580,1916,o),
(412,2082,c),
(311,1943,l),
(370,1883,o),
(608,1746,o),
(702,1698,cs),
(749,1673,o),
(787,1653,o),
(817,1638,c)
);
},
{
closed = 1;
nodes = (
(457,1677,l),
(336,1781,o),
(191,1916,o),
(22,2082,c),
(-78,1943,l),
(-19,1883,o),
(219,1746,o),
(313,1698,cs),
(360,1673,o),
(398,1653,o),
(428,1638,c)
);
}
);
};
layerId = "EE746D13-63D7-48F9-B77E-C723CA6A668B";
shapes = (
{
ref = I;
},
{
pos = (-268,444);
ref = dblgravecomb;
}
);
width = 769;
}
);
note = uni0208;
unicode = 520;
},
{
glyphname = Idieresis;
lastChange = "2023-03-16 12:53:48 +0000";
layers = (
{
background = {
shapes = (
{
closed = 1;
nodes = (
(696,1638,o),
(761,1702,o),
(761,1775,cs),
(761,1851,o),
(696,1914,o),
(621,1914,cs),
(545,1914,o),
(484,1851,o),
(484,1775,cs),
(484,1700,o),
(545,1638,o),
(621,1638,cs)
);
},
{
closed = 1;
nodes = (
(219,1638,o),
(283,1702,o),
(283,1775,cs),
(283,1851,o),
(221,1914,o),
(146,1914,cs),
(70,1914,o),
(9,1851,o),
(9,1775,cs),
(9,1700,o),
(70,1638,o),
(146,1638,cs)
);
},
{
closed = 1;
nodes = (
(739,0,l),
(739,143,l),
(509,143,l),
(509,1362,l),
(739,1362,l),
(739,1505,l),
(30,1505,l),
(30,1362,l),
(274,1362,l),
(274,143,l),
(30,143,l),
(30,0,l)
);
}
);
};
layerId = "EE746D13-63D7-48F9-B77E-C723CA6A668B";
shapes = (
{
ref = I;
},
{
pos = (-69,432);
ref = dieresiscomb;
}
);
width = 769;
}
);
note = Idieresis;
unicode = 207;
},
{
glyphname = Idotaccent;
lastChange = "2023-03-16 12:53:48 +0000";
layers = (
{
background = {
shapes = (
{
closed = 1;
nodes = (
(464,1638,o),
(533,1706,o),
(533,1786,cs),
(533,1867,o),
(464,1935,o),
(384,1935,cs),
(303,1935,o),
(236,1869,o),
(236,1786,cs),
(236,1706,o),
(303,1638,o),
(384,1638,cs)
);
},
{
closed = 1;
nodes = (
(739,0,l),
(739,143,l),
(509,143,l),
(509,1362,l),
(739,1362,l),
(739,1505,l),
(30,1505,l),
(30,1362,l),
(274,1362,l),
(274,143,l),
(30,143,l),
(30,0,l)
);
}
);
};
layerId = "EE746D13-63D7-48F9-B77E-C723CA6A668B";
shapes = (
{
ref = I;
},
{
pos = (50,432);
ref = dotaccentcomb;
}
);
width = 769;
}
);
note = Idotaccent;
unicode = 304;
},
{
glyphname = Igrave;
lastChange = "2023-03-16 12:53:48 +0000";
layers = (
{
background = {
shapes = (
{
closed = 1;
nodes = (
(739,0,l),
(739,143,l),
(509,143,l),
(509,1362,l),
(739,1362,l),
(739,1505,l),
(30,1505,l),
(30,1362,l),
(274,1362,l),
(274,143,l),
(30,143,l),
(30,0,l)
);
},
{
closed = 1;
nodes = (
(672,1677,l),
(551,1781,o),
(392,1902,o),
(197,2041,c),
(96,1902,l),
(133,1863,o),
(239,1806,o),
(330,1766,cs),
(421,1725,o),
(553,1672,o),
(594,1657,cs),
(615,1649,o),
(631,1643,o),
(643,1638,c)
);
}
);
};
layerId = "EE746D13-63D7-48F9-B77E-C723CA6A668B";
shapes = (
{
ref = I;
},
{
pos = (19,432);
ref = gravecomb;
}
);
width = 769;
}
);
note = Igrave;
unicode = 204;
},
{
glyphname = Iinvertedbreve;
lastChange = "2023-03-16 12:53:48 +0000";
layers = (
{
background = {
shapes = (
{
closed = 1;
nodes = (
(739,0,l),
(739,143,l),
(509,143,l),
(509,1362,l),
(739,1362,l),
(739,1505,l),
(30,1505,l),
(30,1362,l),
(274,1362,l),
(274,143,l),
(30,143,l),
(30,0,l)
);
},
{
closed = 1;
nodes = (
(625,1638,l),
(622,1691,o),
(603,1748,o),
(565,1799,cs),
(527,1850,o),
(460,1884,o),
(383,1884,cs),
(306,1884,o),
(240,1849,o),
(204,1799,cs),
(167,1749,o),
(147,1693,o),
(144,1642,c),
(273,1642,l),
(277,1715,o),
(329,1765,o),
(385,1765,cs),
(444,1765,o),
(495,1714,o),
(496,1638,c)
);
}
);
};
layerId = "EE746D13-63D7-48F9-B77E-C723CA6A668B";
shapes = (
{
ref = I;
},
{
pos = (-194,432);
ref = breveinvertedcomb;
}
);
width = 769;
}
);
note = uni020A;
unicode = 522;
},
{
glyphname = Imacron;
lastChange = "2023-03-16 12:53:48 +0000";
layers = (
{
background = {
shapes = (
{
closed = 1;
nodes = (
(704,1638,l),
(704,1776,l),
(122,1776,l),
(122,1638,l)
);
},
{
closed = 1;
nodes = (
(739,0,l),
(739,143,l),
(509,143,l),
(509,1362,l),
(739,1362,l),
(739,1505,l),
(30,1505,l),
(30,1362,l),
(274,1362,l),
(274,143,l),
(30,143,l),
(30,0,l)
);
}
);
};
layerId = "EE746D13-63D7-48F9-B77E-C723CA6A668B";
shapes = (
{
ref = I;
},
{
pos = (-59,432);
ref = macroncomb;
}
);
width = 769;
}
);
note = Imacron;
unicode = 298;
},
{
glyphname = Iogonek;
lastChange = "2023-03-16 12:53:48 +0000";
layers = (
{
background = {
shapes = (
{
closed = 1;
nodes = (
(489,-245,l),
(370,-229,o),
(333,-183,o),
(333,-122,cs),
(333,-67,o),
(386,-18,o),
(491,1,c),
(491,32,l),
(418,32,o),
(343,15,o),
(280,-16,cs),
(216,-48,o),
(173,-105,o),
(173,-173,cs),
(173,-284,o),
(291,-384,o),
(462,-384,c)
);
},
{
closed = 1;
nodes = (
(739,0,l),
(739,143,l),
(509,143,l),
(509,1362,l),
(739,1362,l),
(739,1505,l),
(30,1505,l),
(30,1362,l),
(274,1362,l),
(274,143,l),
(30,143,l),
(30,0,l)
);
}
);
};
layerId = "EE746D13-63D7-48F9-B77E-C723CA6A668B";
shapes = (
{
ref = I;
},
{
pos = (160,1);
ref = ogonekcomb;
}
);
width = 769;
}
);
note = Iogonek;
unicode = 302;
},
{
glyphname = Itilde;
lastChange = "2023-03-16 12:53:48 +0000";
layers = (
{
background = {
shapes = (
{
closed = 1;
nodes = (
(248,1638,o),
(308,1654,o),
(389,1685,cs),
(470,1716,o),
(525,1732,o),
(552,1732,cs),
(619,1732,o),
(640,1708,o),
(640,1640,c),
(728,1640,l),
(728,1817,o),
(683,1883,o),
(560,1883,cs),
(522,1883,o),
(462,1867,o),
(381,1836,cs),
(300,1805,o),
(245,1789,o),
(218,1789,cs),
(151,1789,o),
(130,1813,o),
(130,1881,c),
(42,1881,l),
(42,1704,o),
(87,1638,o),
(210,1638,cs)
);
},
{
closed = 1;
nodes = (
(739,0,l),
(739,143,l),
(509,143,l),
(509,1362,l),
(739,1362,l),
(739,1505,l),
(30,1505,l),
(30,1362,l),
(274,1362,l),
(274,143,l),
(30,143,l),
(30,0,l)
);
}
);
};
layerId = "EE746D13-63D7-48F9-B77E-C723CA6A668B";
shapes = (
{
ref = I;
},
{
pos = (-38,432);
ref = tildecomb;
}
);
width = 769;
}
);
note = Itilde;
unicode = 296;
},
{
glyphname = J;
kernRight = J;
lastChange = "2023-03-16 12:53:48 +0000";
layers = (
{
anchors = (
{
name = bottom;
pos = (581,0);
},
{
name = top;
pos = (774,1505);
}
);
background = {
shapes = (
{
closed = 1;
nodes = (
(524,-201,o),
(588,-191,o),
(643,-172,cs),
(753,-134,o),
(816,-73,o),
(857,22,cs),
(898,117,o),
(911,213,o),
(911,338,cs),
(911,1362,l),
(1149,1362,l),
(1149,1505,l),
(395,1505,l),
(395,1362,l),
(676,1362,l),
(676,311,ls),
(676,258,o),
(674,213,o),
(671,176,cs),
(664,101,o),
(646,25,o),
(612,-18,cs),
(578,-61,o),
(520,-88,o),
(440,-88,cs),
(376,-88,o),
(285,-63,o),
(260,-27,c),
(315,6,o),
(371,70,o),
(371,141,cs),
(371,238,o),
(293,301,o),
(205,301,cs),
(112,301,o),
(35,235,o),
(35,123,cs),
(35,-56,o),
(206,-201,o),
(451,-201,cs)
);
}
);
};
layerId = "EE746D13-63D7-48F9-B77E-C723CA6A668B";
shapes = (
{
closed = 1;
nodes = (
(524,-201,o),
(588,-191,o),
(643,-172,cs),
(753,-134,o),
(816,-73,o),
(857,22,cs),
(898,117,o),
(911,213,o),
(911,338,cs),
(911,1362,l),
(1149,1362,l),
(1149,1505,l),
(395,1505,l),
(395,1362,l),
(676,1362,l),
(676,311,ls),
(676,258,o),
(674,213,o),
(671,176,cs),
(664,101,o),
(646,25,o),
(612,-18,cs),
(578,-61,o),
(520,-88,o),
(440,-88,cs),
(376,-88,o),
(285,-63,o),
(260,-27,c),
(315,6,o),
(371,70,o),
(371,141,cs),
(371,238,o),
(293,301,o),
(205,301,cs),
(112,301,o),
(35,235,o),
(35,123,cs),
(35,-56,o),
(206,-201,o),
(451,-201,cs)
);
}
);
width = 1161;
}
);
note = J;
unicode = 74;
},
{
glyphname = Jcircumflex;
lastChange = "2023-03-16 12:53:48 +0000";
layers = (
{
background = {
shapes = (
{
closed = 1;
nodes = (
(524,-201,o),
(588,-191,o),
(643,-172,cs),
(753,-134,o),
(816,-73,o),
(857,22,cs),
(898,117,o),
(911,213,o),
(911,338,cs),
(911,1362,l),
(1149,1362,l),
(1149,1505,l),
(395,1505,l),
(395,1362,l),
(676,1362,l),
(676,311,ls),
(676,258,o),
(674,213,o),
(671,176,cs),
(664,101,o),
(646,25,o),
(612,-18,cs),
(578,-61,o),
(520,-88,o),
(440,-88,cs),
(376,-88,o),
(285,-63,o),
(260,-27,c),
(315,6,o),
(371,70,o),
(371,141,cs),
(371,238,o),
(293,301,o),
(205,301,cs),
(112,301,o),
(35,235,o),
(35,123,cs),
(35,-56,o),
(206,-201,o),
(451,-201,cs)
);
},
{
closed = 1;
nodes = (
(1099,1728,l),
(771,2085,l),
(445,1734,l),
(544,1642,l),
(583,1693,ls),
(636,1762,o),
(724,1870,o),
(771,1911,c),
(823,1864,o),
(899,1773,o),
(1000,1638,c)
);
}
);
};
layerId = "EE746D13-63D7-48F9-B77E-C723CA6A668B";
shapes = (
{
ref = J;
},
{
pos = (367,432);
ref = circumflexcomb;
}
);
width = 1161;
}
);
note = Jcircumflex;
unicode = 308;
},
{
glyphname = K;
kernRight = K;
lastChange = "2023-03-16 12:53:48 +0000";
layers = (
{
anchors = (
{
name = bottom;
pos = (785,0);
},
{
name = top;
pos = (812,1505);
}
);
background = {
shapes = (
{
closed = 1;
nodes = (
(723,0,l),
(723,143,l),
(512,143,l),
(512,553,l),
(684,696,l),
(1128,143,l),
(905,143,l),
(905,0,l),
(1612,0,l),
(1612,143,l),
(1436,143,l),
(862,825,l),
(1370,1362,l),
(1599,1362,l),
(1599,1505,l),
(889,1505,l),
(889,1362,l),
(1118,1362,l),
(1006,1239,ls),
(855,1075,o),
(649,853,o),
(612,817,cs),
(596,801,o),
(524,739,o),
(512,735,c),
(512,1362,l),
(723,1362,l),
(723,1505,l),
(33,1505,l),
(33,1362,l),
(276,1362,l),
(276,143,l),
(33,143,l),
(33,0,l)
);
}
);
};
layerId = "EE746D13-63D7-48F9-B77E-C723CA6A668B";
shapes = (
{
closed = 1;
nodes = (
(723,0,l),
(723,143,l),
(512,143,l),
(512,553,l),
(684,696,l),
(1128,143,l),
(905,143,l),
(905,0,l),
(1612,0,l),
(1612,143,l),
(1436,143,l),
(862,825,l),
(1370,1362,l),
(1599,1362,l),
(1599,1505,l),
(889,1505,l),
(889,1362,l),
(1118,1362,l),
(1006,1239,ls),
(856,1074,o),
(649,853,o),
(612,817,cs),
(596,801,o),
(524,739,o),
(512,735,c),
(512,1362,l),
(723,1362,l),
(723,1505,l),
(33,1505,l),
(33,1362,l),
(276,1362,l),
(276,143,l),
(33,143,l),
(33,0,l)
);
}
);
width = 1624;
}
);
note = K;
unicode = 75;
},
{
glyphname = Kcommaaccent;
kernRight = K;
lastChange = "2023-03-16 12:53:48 +0000";
layers = (
{
background = {
shapes = (
{
closed = 1;
nodes = (
(819,-457,ls),
(862,-342,o),
(912,-166,o),
(908,-102,c),
(738,-102,l),
(740,-171,ls),
(741,-218,o),
(742,-277,o),
(742,-350,cs),
(742,-423,o),
(741,-485,o),
(738,-537,c),
(787,-543,l)
);
},
{
closed = 1;
nodes = (
(723,0,l),
(723,143,l),
(512,143,l),
(512,553,l),
(684,696,l),
(1128,143,l),
(905,143,l),
(905,0,l),
(1612,0,l),
(1612,143,l),
(1436,143,l),
(862,825,l),
(1370,1362,l),
(1599,1362,l),
(1599,1505,l),
(889,1505,l),
(889,1362,l),
(1118,1362,l),
(1006,1239,ls),
(855,1075,o),
(649,853,o),
(612,817,cs),
(596,801,o),
(524,739,o),
(512,735,c),
(512,1362,l),
(723,1362,l),
(723,1505,l),
(33,1505,l),
(33,1362,l),
(276,1362,l),
(276,143,l),
(33,143,l),
(33,0,l)
);
}
);
};
layerId = "EE746D13-63D7-48F9-B77E-C723CA6A668B";
shapes = (
{
ref = K;
},
{
pos = (208,0);
ref = commaaccentcomb;
}
);
width = 1624;
}
);
note = uni0136;
unicode = 310;
},
{
glyphname = L;
kernRight = L;
lastChange = "2023-03-16 12:53:48 +0000";
layers = (
{
anchors = (
{
name = bottom;
pos = (625,0);
},
{
name = center;
pos = (645,753);
},
{
name = top;
pos = (541,1505);
},
{
name = topright;
pos = (1270,1505);
}
);
background = {
shapes = (
{
closed = 1;
nodes = (
(1264,0,l),
(1264,625,l),
(1077,625,l),
(1077,143,l),
(512,143,l),
(512,1362,l),
(741,1362,l),
(741,1505,l),
(33,1505,l),
(33,1362,l),
(276,1362,l),
(276,143,l),
(33,143,l),
(33,0,l)
);
}
);
};
layerId = "EE746D13-63D7-48F9-B77E-C723CA6A668B";
shapes = (
{
closed = 1;
nodes = (
(1264,0,l),
(1264,625,l),
(1077,625,l),
(1077,143,l),
(512,143,l),
(512,1362,l),
(741,1362,l),
(741,1505,l),
(33,1505,l),
(33,1362,l),
(276,1362,l),
(276,143,l),
(33,143,l),
(33,0,l)
);
}
);
width = 1290;
}
);
note = L;
unicode = 76;
},
{
glyphname = LJ;
lastChange = "2023-03-16 12:53:48 +0000";
layers = (
{
background = {
shapes = (
{
closed = 1;
nodes = (
(1814,-201,o),
(1878,-191,o),
(1933,-172,cs),
(2043,-134,o),
(2106,-73,o),
(2147,22,cs),
(2188,117,o),
(2201,213,o),
(2201,338,cs),
(2201,1362,l),
(2439,1362,l),
(2439,1505,l),
(1685,1505,l),
(1685,1362,l),
(1966,1362,l),
(1966,311,ls),
(1966,258,o),
(1964,213,o),
(1961,176,cs),
(1954,101,o),
(1936,25,o),
(1902,-18,cs),
(1868,-61,o),
(1810,-88,o),
(1730,-88,cs),
(1666,-88,o),
(1575,-63,o),
(1550,-27,c),
(1605,6,o),
(1661,70,o),
(1661,141,cs),
(1661,238,o),
(1583,301,o),
(1495,301,cs),
(1402,301,o),
(1325,235,o),
(1325,123,cs),
(1325,-56,o),
(1496,-201,o),
(1741,-201,cs)
);
},
{
closed = 1;
nodes = (
(1264,0,l),
(1264,625,l),
(1077,625,l),
(1077,143,l),
(512,143,l),
(512,1362,l),
(741,1362,l),
(741,1505,l),
(33,1505,l),
(33,1362,l),
(276,1362,l),
(276,143,l),
(33,143,l),
(33,0,l)
);
}
);
};
layerId = "EE746D13-63D7-48F9-B77E-C723CA6A668B";
shapes = (
{
ref = L;
},
{
pos = (1290,0);
ref = J;
}
);
width = 2451;
}
);
note = uni01C7;
unicode = 455;
},
{
glyphname = Lacute;
kernRight = L;
lastChange = "2023-03-16 12:53:48 +0000";
layers = (
{
background = {
shapes = (
{
closed = 1;
nodes = (
(1264,0,l),
(1264,625,l),
(1077,625,l),
(1077,143,l),
(512,143,l),
(512,1362,l),
(741,1362,l),
(741,1505,l),
(33,1505,l),
(33,1362,l),
(276,1362,l),
(276,143,l),
(33,143,l),
(33,0,l)
);
},
{
closed = 1;
nodes = (
(504,1682,ls),
(657,1739,o),
(878,1842,o),
(937,1902,c),
(836,2041,l),
(758,1984,ls),
(653,1909,o),
(469,1769,o),
(361,1677,c),
(390,1638,l)
);
}
);
};
layerId = "EE746D13-63D7-48F9-B77E-C723CA6A668B";
shapes = (
{
ref = L;
},
{
pos = (175,432);
ref = acutecomb;
}
);
width = 1290;
}
);
note = Lacute;
unicode = 313;
},
{
glyphname = Lcaron;
kernRight = L;
lastChange = "2023-03-16 12:53:48 +0000";
layers = (
{
background = {
shapes = (
{
closed = 1;
nodes = (
(1311,1024,o),
(1315,1027,o),
(1319,1028,c),
(1442,1112,o),
(1499,1224,o),
(1499,1327,cs),
(1499,1460,o),
(1406,1536,o),
(1311,1536,cs),
(1238,1536,o),
(1161,1468,o),
(1161,1393,cs),
(1161,1325,o),
(1225,1260,o),
(1294,1260,cs),
(1324,1260,o),
(1352,1268,o),
(1378,1284,c),
(1383,1277,o),
(1386,1267,o),
(1386,1256,cs),
(1386,1204,o),
(1321,1137,o),
(1257,1098,c),
(1307,1020,l)
);
},
{
closed = 1;
nodes = (
(1264,0,l),
(1264,625,l),
(1077,625,l),
(1077,143,l),
(512,143,l),
(512,1362,l),
(741,1362,l),
(741,1505,l),
(33,1505,l),
(33,1362,l),
(276,1362,l),
(276,143,l),
(33,143,l),
(33,0,l)
);
}
);
};
layerId = "EE746D13-63D7-48F9-B77E-C723CA6A668B";
shapes = (
{
ref = L;
},
{
closed = 1;
nodes = (
(1311,1024,o),
(1315,1027,o),
(1319,1028,c),
(1442,1112,o),
(1499,1224,o),
(1499,1327,cs),
(1499,1460,o),
(1406,1536,o),
(1311,1536,cs),
(1238,1536,o),
(1161,1468,o),
(1161,1393,cs),
(1161,1325,o),
(1225,1260,o),
(1294,1260,cs),
(1324,1260,o),
(1352,1268,o),
(1378,1284,c),
(1383,1277,o),
(1386,1267,o),
(1386,1256,cs),
(1386,1204,o),
(1321,1137,o),
(1257,1098,c),
(1307,1020,l)
);
}
);
width = 1290;
}
);
note = Lcaron;
unicode = 317;
},
{
glyphname = Lcommaaccent;
kernRight = L;
lastChange = "2023-03-16 12:53:48 +0000";
layers = (
{
background = {
shapes = (
{
closed = 1;
nodes = (
(645,-457,ls),
(688,-342,o),
(738,-166,o),
(734,-102,c),
(564,-102,l),
(566,-171,ls),
(567,-218,o),
(568,-277,o),
(568,-350,cs),
(568,-423,o),
(567,-485,o),
(564,-537,c),
(613,-543,l)
);
},
{
closed = 1;
nodes = (
(1264,0,l),
(1264,625,l),
(1077,625,l),
(1077,143,l),
(512,143,l),
(512,1362,l),
(741,1362,l),
(741,1505,l),
(33,1505,l),
(33,1362,l),
(276,1362,l),
(276,143,l),
(33,143,l),
(33,0,l)
);
}
);
};
layerId = "EE746D13-63D7-48F9-B77E-C723CA6A668B";
shapes = (
{
ref = L;
},
{
pos = (48,0);
ref = commaaccentcomb;
}
);
width = 1290;
}
);
note = uni013B;
unicode = 315;
},
{
glyphname = Ldot;
kernRight = L;
lastChange = "2023-03-16 12:53:48 +0000";
layers = (
{
background = {
shapes = (
{
closed = 1;
nodes = (
(998,758,o),
(1067,826,o),
(1067,906,cs),
(1067,987,o),
(998,1055,o),
(918,1055,cs),
(837,1055,o),
(770,989,o),
(770,906,cs),
(770,826,o),
(837,758,o),
(918,758,cs)
);
},
{
closed = 1;
nodes = (
(1264,0,l),
(1264,625,l),
(1077,625,l),
(1077,143,l),
(512,143,l),
(512,1362,l),
(741,1362,l),
(741,1505,l),
(33,1505,l),
(33,1362,l),
(276,1362,l),
(276,143,l),
(33,143,l),
(33,0,l)
);
}
);
};
layerId = "EE746D13-63D7-48F9-B77E-C723CA6A668B";
shapes = (
{
ref = L;
},
{
pos = (584,-19);
ref = periodcentered;
}
);
width = 1290;
}
);
note = Ldot;
unicode = 319;
},
{
glyphname = Lj;
lastChange = "2023-03-16 12:53:48 +0000";
layers = (
{
background = {
shapes = (
{
closed = 1;
nodes = (
(1661,-471,o),
(1802,-335,o),
(1802,-90,cs),
(1802,1073,l),
(1343,1073,l),
(1343,961,l),
(1587,961,l),
(1587,-121,ls),
(1587,-218,o),
(1566,-287,o),
(1531,-319,cs),
(1495,-351,o),
(1463,-362,o),
(1423,-362,cs),
(1397,-362,o),
(1373,-358,o),
(1351,-350,c),
(1390,-333,o),
(1409,-291,o),
(1409,-223,cs),
(1409,-154,o),
(1356,-113,o),
(1292,-113,cs),
(1215,-113,o),
(1147,-166,o),
(1147,-254,cs),
(1147,-390,o),
(1253,-471,o),
(1450,-471,cs)
);
},
{
closed = 1;
nodes = (
(1745,1262,o),
(1814,1329,o),
(1814,1409,cs),
(1814,1490,o),
(1745,1559,o),
(1665,1559,cs),
(1584,1559,o),
(1517,1492,o),
(1517,1409,cs),
(1517,1329,o),
(1584,1262,o),
(1665,1262,cs)
);
},
{
closed = 1;
nodes = (
(1264,0,l),
(1264,625,l),
(1077,625,l),
(1077,143,l),
(512,143,l),
(512,1362,l),
(741,1362,l),
(741,1505,l),
(33,1505,l),
(33,1362,l),
(276,1362,l),
(276,143,l),
(33,143,l),
(33,0,l)
);
}
);
};
layerId = "EE746D13-63D7-48F9-B77E-C723CA6A668B";
shapes = (
{
ref = L;
},
{
pos = (1290,0);
ref = j;
}
);
width = 1955;
}
);
note = uni01C8;
unicode = 456;
},
{
glyphname = Lslash;
kernRight = L;
lastChange = "2023-03-16 12:53:48 +0000";
layers = (
{
background = {
shapes = (
{
closed = 1;
nodes = (
(1264,0,l),
(1264,625,l),
(1077,625,l),
(1077,137,l),
(512,137,l),
(512,821,l),
(724,925,l),
(724,1073,l),
(512,969,l),
(512,1362,l),
(741,1362,l),
(741,1505,l),
(33,1505,l),
(33,1362,l),
(276,1362,l),
(276,853,l),
(61,747,l),
(61,599,l),
(276,705,l),
(276,137,l),
(33,137,l),
(33,0,l)
);
}
);
};
layerId = "EE746D13-63D7-48F9-B77E-C723CA6A668B";
shapes = (
{
closed = 1;
nodes = (
(1264,0,l),
(1264,625,l),
(1077,625,l),
(1077,137,l),
(512,137,l),
(512,821,l),
(724,925,l),
(724,1073,l),
(512,969,l),
(512,1362,l),
(741,1362,l),
(741,1505,l),
(33,1505,l),
(33,1362,l),
(276,1362,l),
(276,853,l),
(61,747,l),
(61,599,l),
(276,705,l),
(276,137,l),
(33,137,l),
(33,0,l)
);
}
);
width = 1290;
}
);
note = Lslash;
unicode = 321;
},
{
glyphname = M;
kernRight = H;
lastChange = "2023-03-16 12:53:48 +0000";
layers = (
{
anchors = (
{
name = bottom;
pos = (969,0);
},
{
name = top;
pos = (969,1505);
}
);
background = {
shapes = (
{
closed = 1;
nodes = (
(705,0,l),
(705,143,l),
(453,143,l),
(453,1360,l),
(891,252,ls),
(907,212,o),
(938,182,o),
(969,182,cs),
(998,182,o),
(1023,207,o),
(1042,258,cs),
(1432,1329,l),
(1432,143,l),
(1212,143,l),
(1212,0,l),
(1905,0,l),
(1905,143,l),
(1657,143,l),
(1657,1362,l),
(1890,1362,l),
(1890,1505,l),
(1327,1505,l),
(995,557,l),
(639,1505,l),
(33,1505,l),
(33,1362,l),
(270,1362,l),
(270,143,l),
(51,143,l),
(51,0,l)
);
}
);
};
layerId = "EE746D13-63D7-48F9-B77E-C723CA6A668B";
shapes = (
{
closed = 1;
nodes = (
(705,0,l),
(705,143,l),
(453,143,l),
(453,1360,l),
(891,252,ls),
(907,212,o),
(938,182,o),
(969,182,cs),
(998,182,o),
(1023,207,o),
(1042,258,cs),
(1432,1329,l),
(1432,143,l),
(1212,143,l),
(1212,0,l),
(1905,0,l),
(1905,143,l),
(1657,143,l),
(1657,1362,l),
(1890,1362,l),
(1890,1505,l),
(1327,1505,l),
(995,557,l),
(639,1505,l),
(33,1505,l),
(33,1362,l),
(270,1362,l),
(270,143,l),
(51,143,l),
(51,0,l)
);
}
);
width = 1937;
}
);
note = M;
unicode = 77;
},
{
glyphname = N;
kernRight = H;
lastChange = "2023-03-16 12:53:48 +0000";
layers = (
{
anchors = (
{
name = bottom;
pos = (860,0);
},
{
name = top;
pos = (860,1505);
}
);
background = {
shapes = (
{
closed = 1;
nodes = (
(694,0,l),
(694,143,l),
(465,143,l),
(465,1292,l),
(1208,0,l),
(1475,0,l),
(1475,1362,l),
(1704,1362,l),
(1704,1505,l),
(1040,1505,l),
(1040,1362,l),
(1284,1362,l),
(1284,266,l),
(573,1505,l),
(33,1505,l),
(33,1362,l),
(274,1362,l),
(274,143,l),
(33,143,l),
(33,0,l)
);
}
);
};
layerId = "EE746D13-63D7-48F9-B77E-C723CA6A668B";
shapes = (
{
closed = 1;
nodes = (
(694,0,l),
(694,143,l),
(465,143,l),
(465,1292,l),
(1208,0,l),
(1475,0,l),
(1475,1362,l),
(1704,1362,l),
(1704,1505,l),
(1040,1505,l),
(1040,1362,l),
(1284,1362,l),
(1284,266,l),
(573,1505,l),
(33,1505,l),
(33,1362,l),
(274,1362,l),
(274,143,l),
(33,143,l),
(33,0,l)
);
}
);
width = 1720;
}
);
note = N;
unicode = 78;
},
{
glyphname = NJ;
lastChange = "2023-03-16 12:53:48 +0000";
layers = (
{
background = {
shapes = (
{
closed = 1;
nodes = (
(2244,-201,o),
(2308,-191,o),
(2363,-172,cs),
(2473,-134,o),
(2536,-73,o),
(2577,22,cs),
(2618,117,o),
(2631,213,o),
(2631,338,cs),
(2631,1362,l),
(2869,1362,l),
(2869,1505,l),
(2115,1505,l),
(2115,1362,l),
(2396,1362,l),
(2396,311,ls),
(2396,258,o),
(2394,213,o),
(2391,176,cs),
(2384,101,o),
(2366,25,o),
(2332,-18,cs),
(2298,-61,o),
(2240,-88,o),
(2160,-88,cs),
(2096,-88,o),
(2005,-63,o),
(1980,-27,c),
(2035,6,o),
(2091,70,o),
(2091,141,cs),
(2091,238,o),
(2013,301,o),
(1925,301,cs),
(1832,301,o),
(1755,235,o),
(1755,123,cs),
(1755,-56,o),
(1926,-201,o),
(2171,-201,cs)
);
},
{
closed = 1;
nodes = (
(694,0,l),
(694,143,l),
(465,143,l),
(465,1292,l),
(1208,0,l),
(1475,0,l),
(1475,1362,l),
(1704,1362,l),
(1704,1505,l),
(1040,1505,l),
(1040,1362,l),
(1284,1362,l),
(1284,266,l),
(573,1505,l),
(33,1505,l),
(33,1362,l),
(274,1362,l),
(274,143,l),
(33,143,l),
(33,0,l)
);
}
);
};
layerId = "EE746D13-63D7-48F9-B77E-C723CA6A668B";
shapes = (
{
ref = N;
},
{
pos = (1720,0);
ref = J;
}
);
width = 2881;
}
);
note = uni01CA;
unicode = 458;
},
{
glyphname = Nacute;
kernRight = H;
lastChange = "2023-03-16 12:53:48 +0000";
layers = (
{
background = {
shapes = (
{
closed = 1;
nodes = (
(694,0,l),
(694,143,l),
(465,143,l),
(465,1292,l),
(1208,0,l),
(1475,0,l),
(1475,1362,l),
(1704,1362,l),
(1704,1505,l),
(1040,1505,l),
(1040,1362,l),
(1284,1362,l),
(1284,266,l),
(573,1505,l),
(33,1505,l),
(33,1362,l),
(274,1362,l),
(274,143,l),
(33,143,l),
(33,0,l)
);
},
{
closed = 1;
nodes = (
(724,1682,ls),
(877,1739,o),
(1098,1842,o),
(1157,1902,c),
(1056,2041,l),
(978,1984,ls),
(873,1909,o),
(689,1769,o),
(581,1677,c),
(610,1638,l)
);
}
);
};
layerId = "EE746D13-63D7-48F9-B77E-C723CA6A668B";
shapes = (
{
ref = N;
},
{
pos = (494,432);
ref = acutecomb;
}
);
width = 1720;
}
);
note = Nacute;
unicode = 323;
},
{
glyphname = Ncaron;
kernRight = H;
lastChange = "2023-03-16 12:53:48 +0000";
layers = (
{
background = {
shapes = (
{
closed = 1;
nodes = (
(1196,1988,l),
(1097,2081,l),
(1058,2029,ls),
(1005,1961,o),
(917,1853,o),
(870,1812,c),
(818,1859,o),
(742,1950,o),
(641,2085,c),
(542,1995,l),
(870,1638,l)
);
},
{
closed = 1;
nodes = (
(694,0,l),
(694,143,l),
(465,143,l),
(465,1292,l),
(1208,0,l),
(1475,0,l),
(1475,1362,l),
(1704,1362,l),
(1704,1505,l),
(1040,1505,l),
(1040,1362,l),
(1284,1362,l),
(1284,266,l),
(573,1505,l),
(33,1505,l),
(33,1362,l),
(274,1362,l),
(274,143,l),
(33,143,l),
(33,0,l)
);
}
);
};
layerId = "EE746D13-63D7-48F9-B77E-C723CA6A668B";
shapes = (
{
ref = N;
},
{
pos = (469,478);
ref = caroncomb;
}
);
width = 1720;
}
);
note = Ncaron;
unicode = 327;
},
{
glyphname = Ncommaaccent;
kernRight = H;
lastChange = "2023-03-16 12:53:48 +0000";
layers = (
{
background = {
shapes = (
{
closed = 1;
nodes = (
(865,-457,ls),
(908,-342,o),
(958,-166,o),
(954,-102,c),
(784,-102,l),
(786,-171,ls),
(787,-218,o),
(788,-277,o),
(788,-350,cs),
(788,-423,o),
(787,-485,o),
(784,-537,c),
(833,-543,l)
);
},
{
closed = 1;
nodes = (
(694,0,l),
(694,143,l),
(465,143,l),
(465,1292,l),
(1208,0,l),
(1475,0,l),
(1475,1362,l),
(1704,1362,l),
(1704,1505,l),
(1040,1505,l),
(1040,1362,l),
(1284,1362,l),
(1284,266,l),
(573,1505,l),
(33,1505,l),
(33,1362,l),
(274,1362,l),
(274,143,l),
(33,143,l),
(33,0,l)
);
}
);
};
layerId = "EE746D13-63D7-48F9-B77E-C723CA6A668B";
shapes = (
{
ref = N;
},
{
pos = (283,0);
ref = commaaccentcomb;
}
);
width = 1720;
}
);
note = uni0145;
unicode = 325;
},
{
glyphname = Nj;
lastChange = "2023-03-16 12:53:48 +0000";
layers = (
{
background = {
shapes = (
{
closed = 1;
nodes = (
(2091,-471,o),
(2232,-335,o),
(2232,-90,cs),
(2232,1073,l),
(1773,1073,l),
(1773,961,l),
(2017,961,l),
(2017,-121,ls),
(2017,-218,o),
(1996,-287,o),
(1961,-319,cs),
(1925,-351,o),
(1893,-362,o),
(1853,-362,cs),
(1827,-362,o),
(1803,-358,o),
(1781,-350,c),
(1820,-333,o),
(1839,-291,o),
(1839,-223,cs),
(1839,-154,o),
(1786,-113,o),
(1722,-113,cs),
(1645,-113,o),
(1577,-166,o),
(1577,-254,cs),
(1577,-390,o),
(1683,-471,o),
(1880,-471,cs)
);
},
{
closed = 1;
nodes = (
(2175,1262,o),
(2244,1329,o),
(2244,1409,cs),
(2244,1490,o),
(2175,1559,o),
(2095,1559,cs),
(2014,1559,o),
(1947,1492,o),
(1947,1409,cs),
(1947,1329,o),
(2014,1262,o),
(2095,1262,cs)
);
},
{
closed = 1;
nodes = (
(694,0,l),
(694,143,l),
(465,143,l),
(465,1292,l),
(1208,0,l),
(1475,0,l),
(1475,1362,l),
(1704,1362,l),
(1704,1505,l),
(1040,1505,l),
(1040,1362,l),
(1284,1362,l),
(1284,266,l),
(573,1505,l),
(33,1505,l),
(33,1362,l),
(274,1362,l),
(274,143,l),
(33,143,l),
(33,0,l)
);
}
);
};
layerId = "EE746D13-63D7-48F9-B77E-C723CA6A668B";
shapes = (
{
ref = N;
},
{
pos = (1720,0);
ref = j;
}
);
width = 2385;
}
);
note = uni01CB;
unicode = 459;
},
{
glyphname = Ntilde;
kernRight = H;
lastChange = "2023-03-16 12:53:48 +0000";
layers = (
{
background = {
shapes = (
{
closed = 1;
nodes = (
(731,1638,o),
(791,1654,o),
(872,1685,cs),
(953,1716,o),
(1008,1732,o),
(1035,1732,cs),
(1102,1732,o),
(1123,1708,o),
(1123,1640,c),
(1211,1640,l),
(1211,1817,o),
(1166,1883,o),
(1043,1883,cs),
(1005,1883,o),
(945,1867,o),
(864,1836,cs),
(783,1805,o),
(728,1789,o),
(701,1789,cs),
(634,1789,o),
(613,1813,o),
(613,1881,c),
(525,1881,l),
(525,1704,o),
(570,1638,o),
(693,1638,cs)
);
},
{
closed = 1;
nodes = (
(694,0,l),
(694,143,l),
(465,143,l),
(465,1292,l),
(1208,0,l),
(1475,0,l),
(1475,1362,l),
(1704,1362,l),
(1704,1505,l),
(1040,1505,l),
(1040,1362,l),
(1284,1362,l),
(1284,266,l),
(573,1505,l),
(33,1505,l),
(33,1362,l),
(274,1362,l),
(274,143,l),
(33,143,l),
(33,0,l)
);
}
);
};
layerId = "EE746D13-63D7-48F9-B77E-C723CA6A668B";
shapes = (
{
ref = N;
},
{
pos = (437,432);
ref = tildecomb;
}
);
width = 1720;
}
);
note = Ntilde;
unicode = 209;
},
{
glyphname = Eng;
lastChange = "2023-03-16 12:53:48 +0000";
layers = (
{
anchors = (
{
name = bottom;
pos = (2053,-576);
},
{
name = top;
pos = (2097,1559);
}
);
layerId = "EE746D13-63D7-48F9-B77E-C723CA6A668B";
shapes = (
{
closed = 1;
nodes = (
(694,0,l),
(694,143,l),
(465,143,l),
(465,1292,l),
(1208,0,l),
(1475,0,l),
(1475,1362,l),
(1704,1362,l),
(1704,1505,l),
(1040,1505,l),
(1040,1362,l),
(1284,1362,l),
(1284,266,l),
(573,1505,l),
(33,1505,l),
(33,1362,l),
(274,1362,l),
(274,143,l),
(33,143,l),
(33,0,l)
);
},
{
closed = 1;
nodes = (
(1259,109,l),
(1259,-201,ls),
(1259,-298,o),
(1238,-367,o),
(1203,-399,cs),
(1167,-431,o),
(1135,-442,o),
(1095,-442,cs),
(1069,-442,o),
(1045,-438,o),
(1023,-430,c),
(1062,-413,o),
(1081,-371,o),
(1081,-303,cs),
(1081,-234,o),
(1028,-193,o),
(964,-193,cs),
(887,-193,o),
(819,-246,o),
(819,-334,cs),
(819,-470,o),
(925,-551,o),
(1122,-551,cs),
(1130,-551,ls),
(1335,-551,o),
(1474,-413,o),
(1474,-170,cs),
(1474,109,l)
);
}
);
width = 1720;
}
);
metricLeft = N;
metricRight = N;
unicode = 330;
},
{
glyphname = O;
kernLeft = C;
kernRight = D;
lastChange = "2023-03-16 12:53:48 +0000";
layers = (
{
anchors = (
{
name = bottom;
pos = (795,0);
},
{
name = center;
pos = (795,753);
},
{
name = ogonek;
pos = (1430,10);
},
{
name = top;
pos = (795,1505);
},
{
name = topleft;
pos = (20,1505);
},
{
name = topright;
pos = (1569,1505);
}
);
background = {
shapes = (
{
closed = 1;
nodes = (
(888,-27,o),
(973,-12,o),
(1052,18,cs),
(1208,77,o),
(1315,179,o),
(1392,313,cs),
(1469,447,o),
(1505,598,o),
(1505,754,cs),
(1505,832,o),
(1496,908,o),
(1478,983,cs),
(1441,1131,o),
(1362,1270,o),
(1252,1371,cs),
(1142,1472,o),
(980,1536,o),
(795,1536,cs),
(702,1536,o),
(617,1521,o),
(538,1492,cs),
(381,1432,o),
(274,1329,o),
(197,1195,cs),
(120,1061,o),
(84,910,o),
(84,754,cs),
(84,676,o),
(93,600,o),
(112,525,cs),
(148,376,o),
(228,237,o),
(338,137,cs),
(448,37,o),
(610,-27,o),
(795,-27,cs)
);
},
{
closed = 1;
nodes = (
(738,113,o),
(684,125,o),
(635,149,cs),
(535,196,o),
(467,281,o),
(416,390,cs),
(364,499,o),
(340,625,o),
(340,756,cs),
(340,919,o),
(381,1075,o),
(456,1196,cs),
(531,1317,o),
(652,1396,o),
(795,1396,cs),
(852,1396,o),
(906,1384,o),
(955,1360,cs),
(1054,1311,o),
(1123,1225,o),
(1174,1116,cs),
(1225,1007,o),
(1249,880,o),
(1249,752,cs),
(1249,589,o),
(1208,433,o),
(1134,313,cs),
(1060,192,o),
(938,113,o),
(795,113,cs)
);
}
);
};
layerId = "EE746D13-63D7-48F9-B77E-C723CA6A668B";
shapes = (
{
closed = 1;
nodes = (
(1219,-27,o),
(1505,308,o),
(1505,754,cs),
(1505,1171,o),
(1246,1536,o),
(795,1536,cs),
(343,1536,o),
(84,1170,o),
(84,754,cs),
(84,331,o),
(349,-27,o),
(795,-27,cs)
);
},
{
closed = 1;
nodes = (
(491,113,o),
(340,448,o),
(340,756,cs),
(340,1064,o),
(492,1396,o),
(795,1396,cs),
(1099,1396,o),
(1249,1056,o),
(1249,752,cs),
(1249,445,o),
(1100,113,o),
(795,113,cs)
);
}
);
width = 1589;
}
);
note = O;
unicode = 79;
},
{
glyphname = Oacute;
kernRight = D;
lastChange = "2023-03-16 12:53:48 +0000";
layers = (
{
background = {
shapes = (
{
closed = 1;
nodes = (
(888,-27,o),
(973,-12,o),
(1052,18,cs),
(1208,77,o),
(1315,179,o),
(1392,313,cs),
(1469,447,o),
(1505,598,o),
(1505,754,cs),
(1505,832,o),
(1496,908,o),
(1478,983,cs),
(1441,1131,o),
(1362,1270,o),
(1252,1371,cs),
(1142,1472,o),
(980,1536,o),
(795,1536,cs),
(702,1536,o),
(617,1521,o),
(538,1492,cs),
(381,1432,o),
(274,1329,o),
(197,1195,cs),
(120,1061,o),
(84,910,o),
(84,754,cs),
(84,676,o),
(93,600,o),
(112,525,cs),
(148,376,o),
(228,237,o),
(338,137,cs),
(448,37,o),
(610,-27,o),
(795,-27,cs)
);
},
{
closed = 1;
nodes = (
(738,113,o),
(684,125,o),
(635,149,cs),
(535,196,o),
(467,281,o),
(416,390,cs),
(364,499,o),
(340,625,o),
(340,756,cs),
(340,919,o),
(381,1075,o),
(456,1196,cs),
(531,1317,o),
(652,1396,o),
(795,1396,cs),
(852,1396,o),
(906,1384,o),
(955,1360,cs),
(1054,1311,o),
(1123,1225,o),
(1174,1116,cs),
(1225,1007,o),
(1249,880,o),
(1249,752,cs),
(1249,589,o),
(1208,433,o),
(1134,313,cs),
(1060,192,o),
(938,113,o),
(795,113,cs)
);
},
{
closed = 1;
nodes = (
(650,1682,ls),
(803,1739,o),
(1024,1842,o),
(1083,1902,c),
(982,2041,l),
(904,1984,ls),
(799,1909,o),
(615,1769,o),
(507,1677,c),
(536,1638,l)
);
}
);
};
layerId = "EE746D13-63D7-48F9-B77E-C723CA6A668B";
shapes = (
{
ref = O;
},
{
pos = (429,432);
ref = acutecomb;
}
);
width = 1589;
}
);
note = Oacute;
unicode = 211;
},
{
glyphname = Obreve;
kernRight = D;
lastChange = "2023-03-16 12:53:48 +0000";
layers = (
{
background = {
shapes = (
{
closed = 1;
nodes = (
(873,1638,o),
(939,1674,o),
(976,1724,cs),
(1012,1774,o),
(1032,1829,o),
(1035,1880,c),
(906,1880,l),
(902,1807,o),
(850,1757,o),
(794,1757,cs),
(735,1757,o),
(684,1808,o),
(683,1884,c),
(554,1884,l),
(557,1831,o),
(577,1774,o),
(615,1723,cs),
(653,1672,o),
(719,1638,o),
(796,1638,cs)
);
},
{
closed = 1;
nodes = (
(888,-27,o),
(973,-12,o),
(1052,18,cs),
(1208,77,o),
(1315,179,o),
(1392,313,cs),
(1469,447,o),
(1505,598,o),
(1505,754,cs),
(1505,832,o),
(1496,908,o),
(1478,983,cs),
(1441,1131,o),
(1362,1270,o),
(1252,1371,cs),
(1142,1472,o),
(980,1536,o),
(795,1536,cs),
(702,1536,o),
(617,1521,o),
(538,1492,cs),
(381,1432,o),
(274,1329,o),
(197,1195,cs),
(120,1061,o),
(84,910,o),
(84,754,cs),
(84,676,o),
(93,600,o),
(112,525,cs),
(148,376,o),
(228,237,o),
(338,137,cs),
(448,37,o),
(610,-27,o),
(795,-27,cs)
);
},
{
closed = 1;
nodes = (
(738,113,o),
(684,125,o),
(635,149,cs),
(535,196,o),
(467,281,o),
(416,390,cs),
(364,499,o),
(340,625,o),
(340,756,cs),
(340,919,o),
(381,1075,o),
(456,1196,cs),
(531,1317,o),
(652,1396,o),
(795,1396,cs),
(852,1396,o),
(906,1384,o),
(955,1360,cs),
(1054,1311,o),
(1123,1225,o),
(1174,1116,cs),
(1225,1007,o),
(1249,880,o),
(1249,752,cs),
(1249,589,o),
(1208,433,o),
(1134,313,cs),
(1060,192,o),
(938,113,o),
(795,113,cs)
);
}
);
};
layerId = "EE746D13-63D7-48F9-B77E-C723CA6A668B";
shapes = (
{
ref = O;
},
{
pos = (216,432);
ref = brevecomb;
}
);
width = 1589;
}
);
note = Obreve;
unicode = 334;
},
{
glyphname = Ocircumflex;
kernRight = D;
lastChange = "2023-03-16 12:53:48 +0000";
layers = (
{
background = {
shapes = (
{
closed = 1;
nodes = (
(1122,1728,l),
(794,2085,l),
(468,1734,l),
(567,1642,l),
(606,1693,ls),
(659,1762,o),
(747,1870,o),
(794,1911,c),
(846,1864,o),
(922,1773,o),
(1023,1638,c)
);
},
{
closed = 1;
nodes = (
(888,-27,o),
(973,-12,o),
(1052,18,cs),
(1208,77,o),
(1315,179,o),
(1392,313,cs),
(1469,447,o),
(1505,598,o),
(1505,754,cs),
(1505,832,o),
(1496,908,o),
(1478,983,cs),
(1441,1131,o),
(1362,1270,o),
(1252,1371,cs),
(1142,1472,o),
(980,1536,o),
(795,1536,cs),
(702,1536,o),
(617,1521,o),
(538,1492,cs),
(381,1432,o),
(274,1329,o),
(197,1195,cs),
(120,1061,o),
(84,910,o),
(84,754,cs),
(84,676,o),
(93,600,o),
(112,525,cs),
(148,376,o),
(228,237,o),
(338,137,cs),
(448,37,o),
(610,-27,o),
(795,-27,cs)
);
},
{
closed = 1;
nodes = (
(738,113,o),
(684,125,o),
(635,149,cs),
(535,196,o),
(467,281,o),
(416,390,cs),
(364,499,o),
(340,625,o),
(340,756,cs),
(340,919,o),
(381,1075,o),
(456,1196,cs),
(531,1317,o),
(652,1396,o),
(795,1396,cs),
(852,1396,o),
(906,1384,o),
(955,1360,cs),
(1054,1311,o),
(1123,1225,o),
(1174,1116,cs),
(1225,1007,o),
(1249,880,o),
(1249,752,cs),
(1249,589,o),
(1208,433,o),
(1134,313,cs),
(1060,192,o),
(938,113,o),
(795,113,cs)
);
}
);
};
layerId = "EE746D13-63D7-48F9-B77E-C723CA6A668B";
shapes = (
{
ref = O;
},
{
pos = (388,432);
ref = circumflexcomb;
}
);
width = 1589;
}
);
note = Ocircumflex;
unicode = 212;
},
{
glyphname = Odblgrave;
kernRight = D;
lastChange = "2023-03-16 12:53:48 +0000";
layers = (
{
background = {
shapes = (
{
closed = 1;
nodes = (
(888,-27,o),
(973,-12,o),
(1052,18,cs),
(1208,77,o),
(1315,179,o),
(1392,313,cs),
(1469,447,o),
(1505,598,o),
(1505,754,cs),
(1505,832,o),
(1496,908,o),
(1478,983,cs),
(1441,1131,o),
(1362,1270,o),
(1252,1371,cs),
(1142,1472,o),
(980,1536,o),
(795,1536,cs),
(702,1536,o),
(617,1521,o),
(538,1492,cs),
(381,1432,o),
(274,1329,o),
(197,1195,cs),
(120,1061,o),
(84,910,o),
(84,754,cs),
(84,676,o),
(93,600,o),
(112,525,cs),
(148,376,o),
(228,237,o),
(338,137,cs),
(448,37,o),
(610,-27,o),
(795,-27,cs)
);
},
{
closed = 1;
nodes = (
(738,113,o),
(684,125,o),
(635,149,cs),
(535,196,o),
(467,281,o),
(416,390,cs),
(364,499,o),
(340,625,o),
(340,756,cs),
(340,919,o),
(381,1075,o),
(456,1196,cs),
(531,1317,o),
(652,1396,o),
(795,1396,cs),
(852,1396,o),
(906,1384,o),
(955,1360,cs),
(1054,1311,o),
(1123,1225,o),
(1174,1116,cs),
(1225,1007,o),
(1249,880,o),
(1249,752,cs),
(1249,589,o),
(1208,433,o),
(1134,313,cs),
(1060,192,o),
(938,113,o),
(795,113,cs)
);
},
{
closed = 1;
nodes = (
(1257,1677,l),
(1136,1781,o),
(991,1916,o),
(823,2082,c),
(722,1943,l),
(781,1883,o),
(1019,1746,o),
(1113,1698,cs),
(1160,1673,o),
(1198,1653,o),
(1228,1638,c)
);
},
{
closed = 1;
nodes = (
(868,1677,l),
(747,1781,o),
(602,1916,o),
(433,2082,c),
(333,1943,l),
(392,1883,o),
(630,1746,o),
(724,1698,cs),
(771,1673,o),
(809,1653,o),
(839,1638,c)
);
}
);
};
layerId = "EE746D13-63D7-48F9-B77E-C723CA6A668B";
shapes = (
{
ref = O;
},
{
pos = (142,444);
ref = dblgravecomb;
}
);
width = 1589;
}
);
note = uni020C;
unicode = 524;
},
{
glyphname = Odieresis;
kernRight = D;
lastChange = "2023-03-16 12:53:48 +0000";
layers = (
{
background = {
shapes = (
{
closed = 1;
nodes = (
(1105,1638,o),
(1170,1702,o),
(1170,1775,cs),
(1170,1851,o),
(1105,1914,o),
(1030,1914,cs),
(954,1914,o),
(893,1851,o),
(893,1775,cs),
(893,1700,o),
(954,1638,o),
(1030,1638,cs)
);
},
{
closed = 1;
nodes = (
(628,1638,o),
(692,1702,o),
(692,1775,cs),
(692,1851,o),
(630,1914,o),
(555,1914,cs),
(479,1914,o),
(418,1851,o),
(418,1775,cs),
(418,1700,o),
(479,1638,o),
(555,1638,cs)
);
},
{
closed = 1;
nodes = (
(888,-27,o),
(973,-12,o),
(1052,18,cs),
(1208,77,o),
(1315,179,o),
(1392,313,cs),
(1469,447,o),
(1505,598,o),
(1505,754,cs),
(1505,832,o),
(1496,908,o),
(1478,983,cs),
(1441,1131,o),
(1362,1270,o),
(1252,1371,cs),
(1142,1472,o),
(980,1536,o),
(795,1536,cs),
(702,1536,o),
(617,1521,o),
(538,1492,cs),
(381,1432,o),
(274,1329,o),
(197,1195,cs),
(120,1061,o),
(84,910,o),
(84,754,cs),
(84,676,o),
(93,600,o),
(112,525,cs),
(148,376,o),
(228,237,o),
(338,137,cs),
(448,37,o),
(610,-27,o),
(795,-27,cs)
);
},
{
closed = 1;
nodes = (
(738,113,o),
(684,125,o),
(635,149,cs),
(535,196,o),
(467,281,o),
(416,390,cs),
(364,499,o),
(340,625,o),
(340,756,cs),
(340,919,o),
(381,1075,o),
(456,1196,cs),
(531,1317,o),
(652,1396,o),
(795,1396,cs),
(852,1396,o),
(906,1384,o),
(955,1360,cs),
(1054,1311,o),
(1123,1225,o),
(1174,1116,cs),
(1225,1007,o),
(1249,880,o),
(1249,752,cs),
(1249,589,o),
(1208,433,o),
(1134,313,cs),
(1060,192,o),
(938,113,o),
(795,113,cs)
);
}
);
};
layerId = "EE746D13-63D7-48F9-B77E-C723CA6A668B";
shapes = (
{
ref = O;
},
{
pos = (341,432);
ref = dieresiscomb;
}
);
width = 1589;
}
);
note = Odieresis;
unicode = 214;
},
{
glyphname = Ograve;
kernRight = D;
lastChange = "2023-03-16 12:53:48 +0000";
layers = (
{
background = {
shapes = (
{
closed = 1;
nodes = (
(888,-27,o),
(973,-12,o),
(1052,18,cs),
(1208,77,o),
(1315,179,o),
(1392,313,cs),
(1469,447,o),
(1505,598,o),
(1505,754,cs),
(1505,832,o),
(1496,908,o),
(1478,983,cs),
(1441,1131,o),
(1362,1270,o),
(1252,1371,cs),
(1142,1472,o),
(980,1536,o),
(795,1536,cs),
(702,1536,o),
(617,1521,o),
(538,1492,cs),
(381,1432,o),
(274,1329,o),
(197,1195,cs),
(120,1061,o),
(84,910,o),
(84,754,cs),
(84,676,o),
(93,600,o),
(112,525,cs),
(148,376,o),
(228,237,o),
(338,137,cs),
(448,37,o),
(610,-27,o),
(795,-27,cs)
);
},
{
closed = 1;
nodes = (
(738,113,o),
(684,125,o),
(635,149,cs),
(535,196,o),
(467,281,o),
(416,390,cs),
(364,499,o),
(340,625,o),
(340,756,cs),
(340,919,o),
(381,1075,o),
(456,1196,cs),
(531,1317,o),
(652,1396,o),
(795,1396,cs),
(852,1396,o),
(906,1384,o),
(955,1360,cs),
(1054,1311,o),
(1123,1225,o),
(1174,1116,cs),
(1225,1007,o),
(1249,880,o),
(1249,752,cs),
(1249,589,o),
(1208,433,o),
(1134,313,cs),
(1060,192,o),
(938,113,o),
(795,113,cs)
);
},
{
closed = 1;
nodes = (
(1083,1677,l),
(962,1781,o),
(803,1902,o),
(608,2041,c),
(507,1902,l),
(544,1863,o),
(650,1806,o),
(741,1766,cs),
(832,1725,o),
(964,1672,o),
(1005,1657,cs),
(1026,1649,o),
(1042,1643,o),
(1054,1638,c)
);
}
);
};
layerId = "EE746D13-63D7-48F9-B77E-C723CA6A668B";
shapes = (
{
ref = O;
},
{
pos = (429,432);
ref = gravecomb;
}
);
width = 1589;
}
);
note = Ograve;
unicode = 210;
},
{
glyphname = Ohungarumlaut;
kernRight = D;
lastChange = "2023-03-16 12:53:48 +0000";
layers = (
{
background = {
shapes = (
{
closed = 1;
nodes = (
(1018,1692,ls),
(1157,1763,o),
(1360,1883,o),
(1419,1943,c),
(1319,2082,l),
(1250,2016,ls),
(1159,1927,o),
(992,1769,o),
(884,1677,c),
(913,1638,l)
);
},
{
closed = 1;
nodes = (
(628,1692,ls),
(768,1763,o),
(971,1883,o),
(1030,1943,c),
(929,2082,l),
(861,2016,ls),
(770,1927,o),
(603,1769,o),
(495,1677,c),
(524,1638,l)
);
},
{
closed = 1;
nodes = (
(888,-27,o),
(973,-12,o),
(1052,18,cs),
(1208,77,o),
(1315,179,o),
(1392,313,cs),
(1469,447,o),
(1505,598,o),
(1505,754,cs),
(1505,832,o),
(1496,908,o),
(1478,983,cs),
(1441,1131,o),
(1362,1270,o),
(1252,1371,cs),
(1142,1472,o),
(980,1536,o),
(795,1536,cs),
(702,1536,o),
(617,1521,o),
(538,1492,cs),
(381,1432,o),
(274,1329,o),
(197,1195,cs),
(120,1061,o),
(84,910,o),
(84,754,cs),
(84,676,o),
(93,600,o),
(112,525,cs),
(148,376,o),
(228,237,o),
(338,137,cs),
(448,37,o),
(610,-27,o),
(795,-27,cs)
);
},
{
closed = 1;
nodes = (
(738,113,o),
(684,125,o),
(635,149,cs),
(535,196,o),
(467,281,o),
(416,390,cs),
(364,499,o),
(340,625,o),
(340,756,cs),
(340,919,o),
(381,1075,o),
(456,1196,cs),
(531,1317,o),
(652,1396,o),
(795,1396,cs),
(852,1396,o),
(906,1384,o),
(955,1360,cs),
(1054,1311,o),
(1123,1225,o),
(1174,1116,cs),
(1225,1007,o),
(1249,880,o),
(1249,752,cs),
(1249,589,o),
(1208,433,o),
(1134,313,cs),
(1060,192,o),
(938,113,o),
(795,113,cs)
);
}
);
};
layerId = "EE746D13-63D7-48F9-B77E-C723CA6A668B";
shapes = (
{
ref = O;
},
{
pos = (18,432);
ref = hungarumlautcomb;
}
);
width = 1589;
}
);
note = Ohungarumlaut;
unicode = 336;
},
{
glyphname = Oinvertedbreve;
kernRight = D;
lastChange = "2023-03-16 12:53:48 +0000";
layers = (
{
background = {
shapes = (
{
closed = 1;
nodes = (
(1035,1638,l),
(1032,1691,o),
(1013,1748,o),
(975,1799,cs),
(937,1850,o),
(870,1884,o),
(793,1884,cs),
(716,1884,o),
(650,1849,o),
(614,1799,cs),
(577,1749,o),
(557,1693,o),
(554,1642,c),
(683,1642,l),
(687,1715,o),
(739,1765,o),
(795,1765,cs),
(854,1765,o),
(905,1714,o),
(906,1638,c)
);
},
{
closed = 1;
nodes = (
(888,-27,o),
(973,-12,o),
(1052,18,cs),
(1208,77,o),
(1315,179,o),
(1392,313,cs),
(1469,447,o),
(1505,598,o),
(1505,754,cs),
(1505,832,o),
(1496,908,o),
(1478,983,cs),
(1441,1131,o),
(1362,1270,o),
(1252,1371,cs),
(1142,1472,o),
(980,1536,o),
(795,1536,cs),
(702,1536,o),
(617,1521,o),
(538,1492,cs),
(381,1432,o),
(274,1329,o),
(197,1195,cs),
(120,1061,o),
(84,910,o),
(84,754,cs),
(84,676,o),
(93,600,o),
(112,525,cs),
(148,376,o),
(228,237,o),
(338,137,cs),
(448,37,o),
(610,-27,o),
(795,-27,cs)
);
},
{
closed = 1;
nodes = (
(738,113,o),
(684,125,o),
(635,149,cs),
(535,196,o),
(467,281,o),
(416,390,cs),
(364,499,o),
(340,625,o),
(340,756,cs),
(340,919,o),
(381,1075,o),
(456,1196,cs),
(531,1317,o),
(652,1396,o),
(795,1396,cs),
(852,1396,o),
(906,1384,o),
(955,1360,cs),
(1054,1311,o),
(1123,1225,o),
(1174,1116,cs),
(1225,1007,o),
(1249,880,o),
(1249,752,cs),
(1249,589,o),
(1208,433,o),
(1134,313,cs),
(1060,192,o),
(938,113,o),
(795,113,cs)
);
}
);
};
layerId = "EE746D13-63D7-48F9-B77E-C723CA6A668B";
shapes = (
{
ref = O;
},
{
pos = (216,432);
ref = breveinvertedcomb;
}
);
width = 1589;
}
);
note = uni020E;
unicode = 526;
},
{
glyphname = Omacron;
kernRight = D;
lastChange = "2023-03-16 12:53:48 +0000";
layers = (
{
background = {
shapes = (
{
closed = 1;
nodes = (
(1113,1638,l),
(1113,1776,l),
(531,1776,l),
(531,1638,l)
);
},
{
closed = 1;
nodes = (
(888,-27,o),
(973,-12,o),
(1052,18,cs),
(1208,77,o),
(1315,179,o),
(1392,313,cs),
(1469,447,o),
(1505,598,o),
(1505,754,cs),
(1505,832,o),
(1496,908,o),
(1478,983,cs),
(1441,1131,o),
(1362,1270,o),
(1252,1371,cs),
(1142,1472,o),
(980,1536,o),
(795,1536,cs),
(702,1536,o),
(617,1521,o),
(538,1492,cs),
(381,1432,o),
(274,1329,o),
(197,1195,cs),
(120,1061,o),
(84,910,o),
(84,754,cs),
(84,676,o),
(93,600,o),
(112,525,cs),
(148,376,o),
(228,237,o),
(338,137,cs),
(448,37,o),
(610,-27,o),
(795,-27,cs)
);
},
{
closed = 1;
nodes = (
(738,113,o),
(684,125,o),
(635,149,cs),
(535,196,o),
(467,281,o),
(416,390,cs),
(364,499,o),
(340,625,o),
(340,756,cs),
(340,919,o),
(381,1075,o),
(456,1196,cs),
(531,1317,o),
(652,1396,o),
(795,1396,cs),
(852,1396,o),
(906,1384,o),
(955,1360,cs),
(1054,1311,o),
(1123,1225,o),
(1174,1116,cs),
(1225,1007,o),
(1249,880,o),
(1249,752,cs),
(1249,589,o),
(1208,433,o),
(1134,313,cs),
(1060,192,o),
(938,113,o),
(795,113,cs)
);
}
);
};
layerId = "EE746D13-63D7-48F9-B77E-C723CA6A668B";
shapes = (
{
ref = O;
},
{
pos = (351,432);
ref = macroncomb;
}
);
width = 1589;
}
);
note = Omacron;
unicode = 332;
},
{
glyphname = Oslash;
kernLeft = C;
kernRight = D;
lastChange = "2023-03-16 12:53:48 +0000";
layers = (
{
anchors = (
{
name = bottom;
pos = (795,0);
},
{
name = top;
pos = (795,1505);
}
);
background = {
shapes = (
{
closed = 1;
nodes = (
(350,127,l),
(471,24,o),
(620,-27,o),
(795,-27,cs),
(888,-27,o),
(973,-12,o),
(1052,18,cs),
(1208,77,o),
(1315,179,o),
(1392,313,cs),
(1469,447,o),
(1505,598,o),
(1505,754,cs),
(1505,950,o),
(1446,1142,o),
(1331,1286,c),
(1497,1483,l),
(1432,1536,l),
(1274,1349,l),
(1147,1474,o),
(988,1536,o),
(795,1536,cs),
(702,1536,o),
(617,1521,o),
(538,1492,cs),
(381,1432,o),
(274,1329,o),
(197,1195,cs),
(120,1061,o),
(84,910,o),
(84,754,cs),
(84,541,o),
(156,333,o),
(289,186,c),
(100,-37,l),
(166,-90,l)
);
},
{
closed = 1;
nodes = (
(667,113,o),
(562,169,o),
(479,280,c),
(1179,1107,l),
(1226,998,o),
(1249,880,o),
(1249,752,cs),
(1249,589,o),
(1208,433,o),
(1134,313,cs),
(1060,192,o),
(938,113,o),
(795,113,cs)
);
},
{
closed = 1;
nodes = (
(371,470,o),
(340,603,o),
(340,756,cs),
(340,919,o),
(381,1077,o),
(456,1198,cs),
(531,1319,o),
(652,1399,o),
(795,1399,cs),
(937,1399,o),
(1051,1329,o),
(1137,1188,c),
(432,355,l)
);
}
);
};
layerId = "EE746D13-63D7-48F9-B77E-C723CA6A668B";
shapes = (
{
closed = 1;
nodes = (
(350,127,l),
(471,24,o),
(620,-27,o),
(795,-27,cs),
(888,-27,o),
(973,-12,o),
(1052,18,cs),
(1208,77,o),
(1315,179,o),
(1392,313,cs),
(1469,447,o),
(1505,598,o),
(1505,754,cs),
(1505,950,o),
(1446,1142,o),
(1331,1286,c),
(1497,1483,l),
(1432,1536,l),
(1274,1349,l),
(1147,1474,o),
(988,1536,o),
(795,1536,cs),
(702,1536,o),
(617,1521,o),
(538,1492,cs),
(381,1432,o),
(274,1329,o),
(197,1195,cs),
(120,1061,o),
(84,910,o),
(84,754,cs),
(84,541,o),
(156,333,o),
(289,186,c),
(100,-37,l),
(166,-90,l)
);
},
{
closed = 1;
nodes = (
(667,113,o),
(562,169,o),
(479,280,c),
(1179,1107,l),
(1226,998,o),
(1249,880,o),
(1249,752,cs),
(1249,589,o),
(1208,433,o),
(1134,313,cs),
(1060,192,o),
(938,113,o),
(795,113,cs)
);
},
{
closed = 1;
nodes = (
(371,470,o),
(340,603,o),
(340,756,cs),
(340,919,o),
(381,1077,o),
(456,1198,cs),
(531,1319,o),
(652,1399,o),
(795,1399,cs),
(937,1399,o),
(1051,1329,o),
(1137,1188,c),
(432,355,l)
);
}
);
width = 1589;
}
);
note = Oslash;
unicode = 216;
},
{
glyphname = Otilde;
kernRight = D;
lastChange = "2023-03-16 12:53:48 +0000";
layers = (
{
background = {
shapes = (
{
closed = 1;
nodes = (
(657,1638,o),
(717,1654,o),
(798,1685,cs),
(879,1716,o),
(934,1732,o),
(961,1732,cs),
(1028,1732,o),
(1049,1708,o),
(1049,1640,c),
(1137,1640,l),
(1137,1817,o),
(1092,1883,o),
(969,1883,cs),
(931,1883,o),
(871,1867,o),
(790,1836,cs),
(709,1805,o),
(654,1789,o),
(627,1789,cs),
(560,1789,o),
(539,1813,o),
(539,1881,c),
(451,1881,l),
(451,1704,o),
(496,1638,o),
(619,1638,cs)
);
},
{
closed = 1;
nodes = (
(888,-27,o),
(973,-12,o),
(1052,18,cs),
(1208,77,o),
(1315,179,o),
(1392,313,cs),
(1469,447,o),
(1505,598,o),
(1505,754,cs),
(1505,832,o),
(1496,908,o),
(1478,983,cs),
(1441,1131,o),
(1362,1270,o),
(1252,1371,cs),
(1142,1472,o),
(980,1536,o),
(795,1536,cs),
(702,1536,o),
(617,1521,o),
(538,1492,cs),
(381,1432,o),
(274,1329,o),
(197,1195,cs),
(120,1061,o),
(84,910,o),
(84,754,cs),
(84,676,o),
(93,600,o),
(112,525,cs),
(148,376,o),
(228,237,o),
(338,137,cs),
(448,37,o),
(610,-27,o),
(795,-27,cs)
);
},
{
closed = 1;
nodes = (
(738,113,o),
(684,125,o),
(635,149,cs),
(535,196,o),
(467,281,o),
(416,390,cs),
(364,499,o),
(340,625,o),
(340,756,cs),
(340,919,o),
(381,1075,o),
(456,1196,cs),
(531,1317,o),
(652,1396,o),
(795,1396,cs),
(852,1396,o),
(906,1384,o),
(955,1360,cs),
(1054,1311,o),
(1123,1225,o),
(1174,1116,cs),
(1225,1007,o),
(1249,880,o),
(1249,752,cs),
(1249,589,o),
(1208,433,o),
(1134,313,cs),
(1060,192,o),
(938,113,o),
(795,113,cs)
);
}
);
};
layerId = "EE746D13-63D7-48F9-B77E-C723CA6A668B";
shapes = (
{
ref = O;
},
{
pos = (372,432);
ref = tildecomb;
}
);
width = 1589;
}
);
note = Otilde;
unicode = 213;
},
{
glyphname = OE;
kernLeft = C;
lastChange = "2023-03-16 12:53:48 +0000";
layers = (
{
anchors = (
{
name = bottom;
pos = (1099,0);
},
{
name = top;
pos = (1099,1505);
}
);
background = {
shapes = (
{
closed = 1;
nodes = (
(2087,0,l),
(2087,571,l),
(1907,571,l),
(1907,137,l),
(1268,137,l),
(1268,698,l),
(1581,698,l),
(1581,424,l),
(1714,424,l),
(1714,1038,l),
(1581,1038,l),
(1581,813,l),
(1268,813,l),
(1268,1335,l),
(1907,1335,l),
(1907,899,l),
(2087,899,l),
(2087,1479,l),
(772,1479,ls),
(593,1479,o),
(428,1415,o),
(298,1296,cs),
(168,1176,o),
(84,978,o),
(84,741,cs),
(84,510,o),
(163,314,o),
(289,192,cs),
(415,70,o),
(583,0,o),
(768,0,cs)
);
},
{
closed = 1;
nodes = (
(526,137,o),
(340,371,o),
(340,743,cs),
(340,940,o),
(393,1097,o),
(479,1192,cs),
(565,1287,o),
(677,1335,o),
(805,1335,cs),
(1042,1335,l),
(1042,137,l),
(774,137,ls)
);
}
);
};
layerId = "EE746D13-63D7-48F9-B77E-C723CA6A668B";
shapes = (
{
closed = 1;
nodes = (
(2087,0,l),
(2087,571,l),
(1907,571,l),
(1907,137,l),
(1268,137,l),
(1268,698,l),
(1581,698,l),
(1581,424,l),
(1714,424,l),
(1714,1038,l),
(1581,1038,l),
(1581,813,l),
(1268,813,l),
(1268,1335,l),
(1907,1335,l),
(1907,899,l),
(2087,899,l),
(2087,1479,l),
(772,1479,ls),
(593,1479,o),
(428,1415,o),
(298,1296,cs),
(168,1176,o),
(84,978,o),
(84,741,cs),
(84,510,o),
(163,314,o),
(289,192,cs),
(415,70,o),
(583,0,o),
(768,0,cs)
);
},
{
closed = 1;
nodes = (
(526,137,o),
(340,371,o),
(340,743,cs),
(340,940,o),
(393,1097,o),
(479,1192,cs),
(565,1287,o),
(677,1335,o),
(805,1335,cs),
(1042,1335,l),
(1042,137,l),
(774,137,ls)
);
}
);
width = 2197;
}
);
note = OE;
unicode = 338;
},
{
glyphname = P;
kernRight = P;
lastChange = "2023-03-16 12:53:48 +0000";
layers = (
{
anchors = (
{
name = bottom;
pos = (667,0);
},
{
name = top;
pos = (667,1505);
}
);
background = {
shapes = (
{
closed = 1;
nodes = (
(762,0,l),
(762,143,l),
(512,143,l),
(512,676,l),
(592,676,ls),
(649,676,o),
(698,677,o),
(741,679,cs),
(825,682,o),
(945,695,o),
(1021,718,cs),
(1097,741,o),
(1184,785,o),
(1233,843,cs),
(1281,901,o),
(1315,989,o),
(1315,1098,cs),
(1315,1152,o),
(1307,1201,o),
(1290,1244,cs),
(1256,1330,o),
(1207,1382,o),
(1127,1423,cs),
(1046,1463,o),
(982,1481,o),
(884,1493,cs),
(786,1504,o),
(734,1505,o),
(647,1505,cs),
(33,1505,l),
(33,1362,l),
(276,1362,l),
(276,143,l),
(33,143,l),
(33,0,l)
);
},
{
closed = 1;
nodes = (
(512,1362,l),
(580,1362,l),
(591,1362,ls),
(625,1362,o),
(654,1362,o),
(677,1361,cs),
(724,1360,o),
(793,1357,o),
(834,1350,cs),
(874,1343,o),
(928,1332,o),
(959,1314,cs),
(990,1296,o),
(1026,1268,o),
(1043,1233,cs),
(1060,1197,o),
(1073,1149,o),
(1073,1090,cs),
(1073,900,o),
(932,805,o),
(651,805,cs),
(512,805,l)
);
}
);
};
layerId = "EE746D13-63D7-48F9-B77E-C723CA6A668B";
shapes = (
{
closed = 1;
nodes = (
(762,0,l),
(762,143,l),
(512,143,l),
(512,676,l),
(592,676,ls),
(967,676,o),
(1315,719,o),
(1315,1098,cs),
(1315,1449,o),
(988,1505,o),
(651,1505,cs),
(33,1505,l),
(33,1362,l),
(276,1362,l),
(276,143,l),
(33,143,l),
(33,0,l)
);
},
{
closed = 1;
nodes = (
(512,1362,l),
(591,1362,ls),
(845,1362,o),
(1073,1361,o),
(1073,1090,cs),
(1073,900,o),
(932,805,o),
(651,805,cs),
(512,805,l)
);
}
);
width = 1333;
}
);
note = P;
unicode = 80;
},
{
glyphname = Thorn;
lastChange = "2023-03-16 12:53:48 +0000";
layers = (
{
anchors = (
{
name = bottom;
pos = (691,0);
},
{
name = top;
pos = (691,1505);
}
);
background = {
shapes = (
{
closed = 1;
nodes = (
(799,0,l),
(799,137,l),
(549,137,l),
(549,377,l),
(629,377,ls),
(692,377,o),
(742,377,o),
(779,378,cs),
(851,379,o),
(991,390,o),
(1059,410,cs),
(1127,429,o),
(1225,468,o),
(1270,524,cs),
(1315,579,o),
(1352,665,o),
(1352,774,cs),
(1352,816,o),
(1347,855,o),
(1336,890,cs),
(1315,961,o),
(1286,1010,o),
(1232,1050,cs),
(1178,1090,o),
(1135,1114,o),
(1061,1133,cs),
(987,1152,o),
(944,1159,o),
(865,1164,cs),
(785,1169,o),
(755,1169,o),
(684,1169,cs),
(549,1169,l),
(549,1335,l),
(778,1335,l),
(778,1479,l),
(70,1479,l),
(70,1335,l),
(313,1335,l),
(313,137,l),
(70,137,l),
(70,0,l)
);
},
{
closed = 1;
nodes = (
(549,1026,l),
(616,1026,l),
(658,1026,ls),
(698,1026,o),
(733,1026,o),
(762,1025,cs),
(821,1024,o),
(894,1017,o),
(941,1005,cs),
(988,992,o),
(1037,966,o),
(1065,930,cs),
(1092,894,o),
(1110,838,o),
(1110,766,cs),
(1110,721,o),
(1102,683,o),
(1086,651,cs),
(1053,586,o),
(1006,552,o),
(928,531,cs),
(850,510,o),
(784,506,o),
(688,506,cs),
(549,506,l)
);
}
);
};
layerId = "EE746D13-63D7-48F9-B77E-C723CA6A668B";
shapes = (
{
closed = 1;
nodes = (
(799,0,l),
(799,137,l),
(549,137,l),
(549,377,l),
(629,377,ls),
(692,377,o),
(742,378,o),
(779,378,cs),
(1076,382,o),
(1352,447,o),
(1352,776,cs),
(1352,1133,o),
(993,1169,o),
(684,1169,cs),
(549,1169,l),
(549,1335,l),
(778,1335,l),
(778,1479,l),
(70,1479,l),
(70,1335,l),
(313,1335,l),
(313,137,l),
(70,137,l),
(70,0,l)
);
},
{
closed = 1;
nodes = (
(549,1026,l),
(687,1026,ls),
(923,1026,o),
(1110,1010,o),
(1110,766,cs),
(1110,539,o),
(908,506,o),
(688,506,cs),
(549,506,l)
);
}
);
width = 1382;
}
);
note = Thorn;
unicode = 222;
},
{
glyphname = Q;
kernLeft = C;
kernRight = D;
lastChange = "2023-03-16 12:53:48 +0000";
layers = (
{
anchors = (
{
name = bottom;
pos = (809,0);
},
{
name = top;
pos = (809,1505);
}
);
background = {
shapes = (
{
closed = 1;
nodes = (
(1462,-221,o),
(1529,-201,o),
(1586,-137,cs),
(1643,-74,o),
(1671,46,o),
(1671,229,cs),
(1671,252,l),
(1550,252,l),
(1550,229,ls),
(1550,86,o),
(1493,-21,o),
(1413,-29,c),
(1405,-29,ls),
(1352,-29,o),
(1304,22,o),
(1237,121,c),
(1410,264,o),
(1505,506,o),
(1505,754,cs),
(1505,832,o),
(1496,908,o),
(1478,983,cs),
(1441,1131,o),
(1362,1270,o),
(1252,1371,cs),
(1142,1472,o),
(980,1536,o),
(795,1536,cs),
(702,1536,o),
(617,1521,o),
(538,1492,cs),
(381,1432,o),
(274,1329,o),
(197,1195,cs),
(120,1061,o),
(84,910,o),
(84,754,cs),
(84,676,o),
(93,600,o),
(112,525,cs),
(148,376,o),
(228,237,o),
(338,137,cs),
(448,37,o),
(610,-27,o),
(795,-27,cs),
(888,-27,o),
(972,-13,o),
(1049,14,c),
(1144,-134,o),
(1233,-221,o),
(1358,-221,cs)
);
},
{
closed = 1;
nodes = (
(689,113,o),
(599,150,o),
(526,223,c),
(582,324,o),
(644,375,o),
(713,375,cs),
(808,375,o),
(880,295,o),
(965,152,c),
(914,126,o),
(858,113,o),
(795,113,cs)
);
},
{
closed = 1;
nodes = (
(1019,420,o),
(913,502,o),
(766,502,cs),
(675,502,o),
(596,475,o),
(547,433,cs),
(498,391,o),
(472,355,o),
(451,315,c),
(380,430,o),
(340,595,o),
(340,756,cs),
(340,919,o),
(381,1075,o),
(456,1196,cs),
(531,1317,o),
(652,1396,o),
(795,1396,cs),
(852,1396,o),
(906,1384,o),
(955,1360,cs),
(1054,1311,o),
(1123,1225,o),
(1174,1116,cs),
(1225,1007,o),
(1249,880,o),
(1249,752,cs),
(1249,579,o),
(1204,402,o),
(1120,289,c)
);
}
);
};
layerId = "EE746D13-63D7-48F9-B77E-C723CA6A668B";
shapes = (
{
closed = 1;
nodes = (
(1626,-221,o),
(1671,-37,o),
(1671,229,cs),
(1671,252,l),
(1550,252,l),
(1550,229,ls),
(1550,86,o),
(1493,-29,o),
(1409,-29,cs),
(1352,-29,o),
(1304,22,o),
(1237,121,c),
(1410,264,o),
(1505,506,o),
(1505,754,cs),
(1505,1171,o),
(1246,1536,o),
(795,1536,cs),
(371,1536,o),
(84,1202,o),
(84,754,cs),
(84,331,o),
(349,-27,o),
(795,-27,cs),
(888,-27,o),
(972,-13,o),
(1049,14,c),
(1144,-134,o),
(1233,-221,o),
(1358,-221,cs)
);
},
{
closed = 1;
nodes = (
(689,113,o),
(599,150,o),
(526,223,c),
(582,324,o),
(644,375,o),
(713,375,cs),
(808,375,o),
(880,295,o),
(965,152,c),
(914,126,o),
(858,113,o),
(795,113,cs)
);
},
{
closed = 1;
nodes = (
(1019,420,o),
(913,502,o),
(766,502,cs),
(605,502,o),
(508,423,o),
(451,315,c),
(380,430,o),
(340,595,o),
(340,756,cs),
(340,1064,o),
(492,1396,o),
(795,1396,cs),
(1099,1396,o),
(1249,1056,o),
(1249,752,cs),
(1249,579,o),
(1204,402,o),
(1120,289,c)
);
}
);
width = 1617;
}
);
note = Q;
unicode = 81;
},
{
glyphname = R;
kernRight = R;
lastChange = "2023-03-16 12:53:48 +0000";
layers = (
{
anchors = (
{
name = bottom;
pos = (772,0);
},
{
name = top;
pos = (712,1505);
}
);
background = {
shapes = (
{
closed = 1;
nodes = (
(1481,-33,o),
(1581,86,o),
(1581,324,cs),
(1581,471,l),
(1446,471,l),
(1446,332,ls),
(1446,206,o),
(1412,143,o),
(1343,143,cs),
(1308,143,o),
(1281,165,o),
(1265,193,cs),
(1248,221,o),
(1231,276,o),
(1223,319,cs),
(1214,362,o),
(1198,437,o),
(1186,481,cs),
(1165,558,o),
(1148,603,o),
(1113,649,cs),
(1077,695,o),
(1026,721,o),
(950,737,c),
(1173,782,o),
(1323,875,o),
(1323,1108,cs),
(1323,1458,o),
(997,1505,o),
(635,1505,cs),
(33,1505,l),
(33,1362,l),
(276,1362,l),
(276,143,l),
(33,143,l),
(33,0,l),
(739,0,l),
(739,143,l),
(512,143,l),
(512,686,l),
(748,686,ls),
(756,686,o),
(766,685,o),
(778,682,cs),
(801,676,o),
(841,652,o),
(874,619,cs),
(906,586,o),
(939,520,o),
(952,440,cs),
(963,376,o),
(975,322,o),
(986,277,cs),
(1008,187,o),
(1043,97,o),
(1088,48,cs),
(1132,-1,o),
(1198,-33,o),
(1282,-33,cs)
);
},
{
closed = 1;
nodes = (
(512,1362,l),
(629,1362,ls),
(800,1362,o),
(907,1348,o),
(991,1308,cs),
(1075,1267,o),
(1112,1198,o),
(1112,1090,cs),
(1112,1027,o),
(1093,977,o),
(1054,939,cs),
(977,862,o),
(845,836,o),
(637,836,cs),
(512,836,l)
);
}
);
};
layerId = "EE746D13-63D7-48F9-B77E-C723CA6A668B";
shapes = (
{
closed = 1;
nodes = (
(1481,-33,o),
(1581,86,o),
(1581,324,cs),
(1581,471,l),
(1446,471,l),
(1446,332,ls),
(1446,206,o),
(1412,143,o),
(1343,143,cs),
(1308,143,o),
(1281,165,o),
(1265,193,cs),
(1248,221,o),
(1231,276,o),
(1223,319,cs),
(1214,362,o),
(1198,437,o),
(1186,481,cs),
(1165,558,o),
(1148,603,o),
(1113,649,cs),
(1077,695,o),
(1026,721,o),
(950,737,c),
(1173,782,o),
(1323,875,o),
(1323,1108,cs),
(1323,1458,o),
(997,1505,o),
(635,1505,cs),
(33,1505,l),
(33,1362,l),
(276,1362,l),
(276,143,l),
(33,143,l),
(33,0,l),
(739,0,l),
(739,143,l),
(512,143,l),
(512,686,l),
(748,686,ls),
(756,686,o),
(766,685,o),
(778,682,cs),
(872,658,o),
(935,544,o),
(952,440,cs),
(963,376,o),
(975,322,o),
(986,277,cs),
(1008,187,o),
(1043,97,o),
(1088,48,cs),
(1132,-1,o),
(1198,-33,o),
(1282,-33,cs)
);
},
{
closed = 1;
nodes = (
(512,1362,l),
(629,1362,ls),
(872,1362,o),
(1112,1345,o),
(1112,1090,cs),
(1112,867,o),
(864,836,o),
(637,836,cs),
(512,836,l)
);
}
);
width = 1583;
}
);
note = R;
unicode = 82;
},
{
glyphname = Racute;
kernRight = R;
lastChange = "2023-03-16 12:53:48 +0000";
layers = (
{
background = {
shapes = (
{
closed = 1;
nodes = (
(921,1682,ls),
(1074,1739,o),
(1295,1842,o),
(1354,1902,c),
(1253,2041,l),
(1175,1984,ls),
(1070,1909,o),
(886,1769,o),
(778,1677,c),
(807,1638,l)
);
},
{
closed = 1;
nodes = (
(1481,-33,o),
(1581,86,o),
(1581,324,cs),
(1581,471,l),
(1446,471,l),
(1446,332,ls),
(1446,206,o),
(1412,143,o),
(1343,143,cs),
(1308,143,o),
(1281,165,o),
(1265,193,cs),
(1248,221,o),
(1231,276,o),
(1223,319,cs),
(1214,362,o),
(1198,437,o),
(1186,481,cs),
(1165,558,o),
(1148,603,o),
(1113,649,cs),
(1077,695,o),
(1026,721,o),
(950,737,c),
(1063,760,o),
(1142,791,o),
(1214,847,cs),
(1285,903,o),
(1323,991,o),
(1323,1108,cs),
(1323,1163,o),
(1315,1211,o),
(1298,1254,cs),
(1264,1339,o),
(1220,1390,o),
(1134,1429,cs),
(1048,1468,o),
(991,1484,o),
(878,1495,cs),
(765,1506,o),
(720,1505,o),
(608,1505,cs),
(33,1505,l),
(33,1362,l),
(276,1362,l),
(276,143,l),
(33,143,l),
(33,0,l),
(739,0,l),
(739,143,l),
(512,143,l),
(512,686,l),
(748,686,ls),
(756,686,o),
(766,685,o),
(778,682,cs),
(801,676,o),
(841,652,o),
(874,619,cs),
(906,586,o),
(939,520,o),
(952,440,cs),
(963,376,o),
(975,322,o),
(986,277,cs),
(1008,187,o),
(1043,97,o),
(1088,48,cs),
(1132,-1,o),
(1198,-33,o),
(1282,-33,cs)
);
},
{
closed = 1;
nodes = (
(512,1362,l),
(629,1362,ls),
(800,1362,o),
(907,1348,o),
(991,1308,cs),
(1075,1267,o),
(1112,1198,o),
(1112,1090,cs),
(1112,1027,o),
(1093,977,o),
(1054,939,cs),
(977,862,o),
(845,836,o),
(637,836,cs),
(512,836,l)
);
}
);
};
layerId = "EE746D13-63D7-48F9-B77E-C723CA6A668B";
shapes = (
{
ref = R;
},
{
pos = (346,432);
ref = acutecomb;
}
);
width = 1583;
}
);
note = Racute;
unicode = 340;
},
{
glyphname = Rcaron;
kernRight = R;
lastChange = "2023-03-16 12:53:48 +0000";
layers = (
{
background = {
shapes = (
{
closed = 1;
nodes = (
(1134,1988,l),
(1035,2081,l),
(996,2029,ls),
(943,1961,o),
(855,1853,o),
(808,1812,c),
(756,1859,o),
(680,1950,o),
(579,2085,c),
(480,1995,l),
(808,1638,l)
);
},
{
closed = 1;
nodes = (
(1481,-33,o),
(1581,86,o),
(1581,324,cs),
(1581,471,l),
(1446,471,l),
(1446,332,ls),
(1446,206,o),
(1412,143,o),
(1343,143,cs),
(1308,143,o),
(1281,165,o),
(1265,193,cs),
(1248,221,o),
(1231,276,o),
(1223,319,cs),
(1214,362,o),
(1198,437,o),
(1186,481,cs),
(1165,558,o),
(1148,603,o),
(1113,649,cs),
(1077,695,o),
(1026,721,o),
(950,737,c),
(1063,760,o),
(1142,791,o),
(1214,847,cs),
(1285,903,o),
(1323,991,o),
(1323,1108,cs),
(1323,1163,o),
(1315,1211,o),
(1298,1254,cs),
(1264,1339,o),
(1220,1390,o),
(1134,1429,cs),
(1048,1468,o),
(991,1484,o),
(878,1495,cs),
(765,1506,o),
(720,1505,o),
(608,1505,cs),
(33,1505,l),
(33,1362,l),
(276,1362,l),
(276,143,l),
(33,143,l),
(33,0,l),
(739,0,l),
(739,143,l),
(512,143,l),
(512,686,l),
(748,686,ls),
(756,686,o),
(766,685,o),
(778,682,cs),
(801,676,o),
(841,652,o),
(874,619,cs),
(906,586,o),
(939,520,o),
(952,440,cs),
(963,376,o),
(975,322,o),
(986,277,cs),
(1008,187,o),
(1043,97,o),
(1088,48,cs),
(1132,-1,o),
(1198,-33,o),
(1282,-33,cs)
);
},
{
closed = 1;
nodes = (
(512,1362,l),
(629,1362,ls),
(800,1362,o),
(907,1348,o),
(991,1308,cs),
(1075,1267,o),
(1112,1198,o),
(1112,1090,cs),
(1112,1027,o),
(1093,977,o),
(1054,939,cs),
(977,862,o),
(845,836,o),
(637,836,cs),
(512,836,l)
);
}
);
};
layerId = "EE746D13-63D7-48F9-B77E-C723CA6A668B";
shapes = (
{
ref = R;
},
{
pos = (321,478);
ref = caroncomb;
}
);
width = 1583;
}
);
note = Rcaron;
unicode = 344;
},
{
glyphname = Rcommaaccent;
kernRight = R;
lastChange = "2023-03-16 12:53:48 +0000";
layers = (
{
background = {
shapes = (
{
closed = 1;
nodes = (
(803,-490,ls),
(846,-375,o),
(896,-199,o),
(892,-135,c),
(722,-135,l),
(724,-204,ls),
(725,-251,o),
(726,-310,o),
(726,-383,cs),
(726,-456,o),
(725,-518,o),
(722,-570,c),
(771,-576,l)
);
},
{
closed = 1;
nodes = (
(1481,-33,o),
(1581,86,o),
(1581,324,cs),
(1581,471,l),
(1446,471,l),
(1446,332,ls),
(1446,206,o),
(1412,143,o),
(1343,143,cs),
(1308,143,o),
(1281,165,o),
(1265,193,cs),
(1248,221,o),
(1231,276,o),
(1223,319,cs),
(1214,362,o),
(1198,437,o),
(1186,481,cs),
(1165,558,o),
(1148,603,o),
(1113,649,cs),
(1077,695,o),
(1026,721,o),
(950,737,c),
(1063,760,o),
(1142,791,o),
(1214,847,cs),
(1285,903,o),
(1323,991,o),
(1323,1108,cs),
(1323,1163,o),
(1315,1211,o),
(1298,1254,cs),
(1264,1339,o),
(1220,1390,o),
(1134,1429,cs),
(1048,1468,o),
(991,1484,o),
(878,1495,cs),
(765,1506,o),
(720,1505,o),
(608,1505,cs),
(33,1505,l),
(33,1362,l),
(276,1362,l),
(276,143,l),
(33,143,l),
(33,0,l),
(739,0,l),
(739,143,l),
(512,143,l),
(512,686,l),
(748,686,ls),
(756,686,o),
(766,685,o),
(778,682,cs),
(801,676,o),
(841,652,o),
(874,619,cs),
(906,586,o),
(939,520,o),
(952,440,cs),
(963,376,o),
(975,322,o),
(986,277,cs),
(1008,187,o),
(1043,97,o),
(1088,48,cs),
(1132,-1,o),
(1198,-33,o),
(1282,-33,cs)
);
},
{
closed = 1;
nodes = (
(512,1362,l),
(629,1362,ls),
(800,1362,o),
(907,1348,o),
(991,1308,cs),
(1075,1267,o),
(1112,1198,o),
(1112,1090,cs),
(1112,1027,o),
(1093,977,o),
(1054,939,cs),
(977,862,o),
(845,836,o),
(637,836,cs),
(512,836,l)
);
}
);
};
layerId = "EE746D13-63D7-48F9-B77E-C723CA6A668B";
shapes = (
{
ref = R;
},
{
pos = (195,0);
ref = commaaccentcomb;
}
);
width = 1583;
}
);
note = uni0156;
unicode = 342;
},
{
glyphname = Rdblgrave;
kernRight = R;
lastChange = "2023-03-16 12:53:48 +0000";
layers = (
{
background = {
shapes = (
{
closed = 1;
nodes = (
(1030,1677,l),
(909,1781,o),
(764,1916,o),
(596,2082,c),
(495,1943,l),
(554,1883,o),
(792,1746,o),
(886,1698,cs),
(933,1673,o),
(971,1653,o),
(1001,1638,c)
);
},
{
closed = 1;
nodes = (
(641,1677,l),
(520,1781,o),
(375,1916,o),
(206,2082,c),
(106,1943,l),
(165,1883,o),
(403,1746,o),
(497,1698,cs),
(544,1673,o),
(582,1653,o),
(612,1638,c)
);
},
{
closed = 1;
nodes = (
(1481,-33,o),
(1581,86,o),
(1581,324,cs),
(1581,471,l),
(1446,471,l),
(1446,332,ls),
(1446,206,o),
(1412,143,o),
(1343,143,cs),
(1308,143,o),
(1281,165,o),
(1265,193,cs),
(1248,221,o),
(1231,276,o),
(1223,319,cs),
(1214,362,o),
(1198,437,o),
(1186,481,cs),
(1165,558,o),
(1148,603,o),
(1113,649,cs),
(1077,695,o),
(1026,721,o),
(950,737,c),
(1063,760,o),
(1142,791,o),
(1214,847,cs),
(1285,903,o),
(1323,991,o),
(1323,1108,cs),
(1323,1163,o),
(1315,1211,o),
(1298,1254,cs),
(1264,1339,o),
(1220,1390,o),
(1134,1429,cs),
(1048,1468,o),
(991,1484,o),
(878,1495,cs),
(765,1506,o),
(720,1505,o),
(608,1505,cs),
(33,1505,l),
(33,1362,l),
(276,1362,l),
(276,143,l),
(33,143,l),
(33,0,l),
(739,0,l),
(739,143,l),
(512,143,l),
(512,686,l),
(748,686,ls),
(756,686,o),
(766,685,o),
(778,682,cs),
(801,676,o),
(841,652,o),
(874,619,cs),
(906,586,o),
(939,520,o),
(952,440,cs),
(963,376,o),
(975,322,o),
(986,277,cs),
(1008,187,o),
(1043,97,o),
(1088,48,cs),
(1132,-1,o),
(1198,-33,o),
(1282,-33,cs)
);
},
{
closed = 1;
nodes = (
(512,1362,l),
(629,1362,ls),
(800,1362,o),
(907,1348,o),
(991,1308,cs),
(1075,1267,o),
(1112,1198,o),
(1112,1090,cs),
(1112,1027,o),
(1093,977,o),
(1054,939,cs),
(977,862,o),
(845,836,o),
(637,836,cs),
(512,836,l)
);
}
);
};
layerId = "EE746D13-63D7-48F9-B77E-C723CA6A668B";
shapes = (
{
ref = R;
},
{
pos = (59,444);
ref = dblgravecomb;
}
);
width = 1583;
}
);
note = uni0210;
unicode = 528;
},
{
glyphname = Rinvertedbreve;
kernRight = R;
lastChange = "2023-03-16 12:53:48 +0000";
layers = (
{
background = {
shapes = (
{
closed = 1;
nodes = (
(1047,1638,l),
(1044,1691,o),
(1025,1748,o),
(987,1799,cs),
(949,1850,o),
(882,1884,o),
(805,1884,cs),
(728,1884,o),
(662,1849,o),
(626,1799,cs),
(589,1749,o),
(569,1693,o),
(566,1642,c),
(695,1642,l),
(699,1715,o),
(751,1765,o),
(807,1765,cs),
(866,1765,o),
(917,1714,o),
(918,1638,c)
);
},
{
closed = 1;
nodes = (
(1481,-33,o),
(1581,86,o),
(1581,324,cs),
(1581,471,l),
(1446,471,l),
(1446,332,ls),
(1446,206,o),
(1412,143,o),
(1343,143,cs),
(1308,143,o),
(1281,165,o),
(1265,193,cs),
(1248,221,o),
(1231,276,o),
(1223,319,cs),
(1214,362,o),
(1198,437,o),
(1186,481,cs),
(1165,558,o),
(1148,603,o),
(1113,649,cs),
(1077,695,o),
(1026,721,o),
(950,737,c),
(1063,760,o),
(1142,791,o),
(1214,847,cs),
(1285,903,o),
(1323,991,o),
(1323,1108,cs),
(1323,1163,o),
(1315,1211,o),
(1298,1254,cs),
(1264,1339,o),
(1220,1390,o),
(1134,1429,cs),
(1048,1468,o),
(991,1484,o),
(878,1495,cs),
(765,1506,o),
(720,1505,o),
(608,1505,cs),
(33,1505,l),
(33,1362,l),
(276,1362,l),
(276,143,l),
(33,143,l),
(33,0,l),
(739,0,l),
(739,143,l),
(512,143,l),
(512,686,l),
(748,686,ls),
(756,686,o),
(766,685,o),
(778,682,cs),
(801,676,o),
(841,652,o),
(874,619,cs),
(906,586,o),
(939,520,o),
(952,440,cs),
(963,376,o),
(975,322,o),
(986,277,cs),
(1008,187,o),
(1043,97,o),
(1088,48,cs),
(1132,-1,o),
(1198,-33,o),
(1282,-33,cs)
);
},
{
closed = 1;
nodes = (
(512,1362,l),
(629,1362,ls),
(800,1362,o),
(907,1348,o),
(991,1308,cs),
(1075,1267,o),
(1112,1198,o),
(1112,1090,cs),
(1112,1027,o),
(1093,977,o),
(1054,939,cs),
(977,862,o),
(845,836,o),
(637,836,cs),
(512,836,l)
);
}
);
};
layerId = "EE746D13-63D7-48F9-B77E-C723CA6A668B";
shapes = (
{
ref = R;
},
{
pos = (133,432);
ref = breveinvertedcomb;
}
);
width = 1583;
}
);
note = uni0212;
unicode = 530;
},
{
glyphname = S;
lastChange = "2023-03-16 12:53:48 +0000";
layers = (
{
anchors = (
{
name = bottom;
pos = (639,0);
},
{
name = top;
pos = (659,1505);
}
);
background = {
shapes = (
{
closed = 1;
nodes = (
(1063,-27,o),
(1278,133,o),
(1278,397,cs),
(1278,444,o),
(1273,487,o),
(1263,524,cs),
(1242,598,o),
(1189,674,o),
(1098,732,cs),
(1007,790,o),
(864,843,o),
(668,887,cs),
(607,900,o),
(555,915,o),
(512,932,cs),
(424,965,o),
(379,995,o),
(351,1035,cs),
(322,1075,o),
(317,1106,o),
(317,1153,cs),
(317,1202,o),
(334,1246,o),
(369,1284,cs),
(438,1359,o),
(551,1396,o),
(678,1396,cs),
(824,1396,o),
(937,1365,o),
(1016,1303,c),
(943,1303,o),
(879,1254,o),
(879,1147,cs),
(879,1062,o),
(958,1006,o),
(1047,1006,cs),
(1155,1006,o),
(1217,1089,o),
(1217,1206,cs),
(1217,1253,o),
(1204,1295,o),
(1179,1334,cs),
(1127,1411,o),
(1045,1457,o),
(942,1490,cs),
(839,1523,o),
(742,1536,o),
(653,1536,cs),
(313,1536,o),
(78,1357,o),
(78,1112,cs),
(78,1035,o),
(94,969,o),
(125,915,cs),
(187,806,o),
(341,717,o),
(614,649,cs),
(675,634,o),
(725,620,o),
(765,608,cs),
(844,584,o),
(921,550,o),
(960,514,cs),
(999,477,o),
(1022,427,o),
(1022,362,cs),
(1022,307,o),
(1004,260,o),
(968,221,cs),
(896,144,o),
(783,113,o),
(643,113,cs),
(458,113,o),
(350,150,o),
(258,215,c),
(345,226,o),
(399,272,o),
(399,360,cs),
(399,445,o),
(329,526,o),
(240,526,cs),
(144,526,o),
(59,447,o),
(59,336,cs),
(59,216,o),
(135,117,o),
(254,60,cs),
(373,3,o),
(519,-27,o),
(676,-27,cs)
);
}
);
};
layerId = "EE746D13-63D7-48F9-B77E-C723CA6A668B";
shapes = (
{
closed = 1;
nodes = (
(1063,-27,o),
(1278,133,o),
(1278,397,cs),
(1278,540,o),
(1230,648,o),
(1098,732,cs),
(1007,790,o),
(864,843,o),
(668,887,cs),
(498,923,o),
(317,979,o),
(317,1153,cs),
(317,1317,o),
(506,1396,o),
(678,1396,cs),
(824,1396,o),
(937,1365,o),
(1016,1303,c),
(943,1303,o),
(879,1254,o),
(879,1147,cs),
(879,1062,o),
(958,1006,o),
(1047,1006,cs),
(1155,1006,o),
(1217,1089,o),
(1217,1206,cs),
(1217,1445,o),
(875,1536,o),
(653,1536,cs),
(313,1536,o),
(78,1357,o),
(78,1112,cs),
(78,817,o),
(328,720,o),
(614,649,cs),
(675,634,o),
(725,620,o),
(765,608,cs),
(907,565,o),
(1022,511,o),
(1022,362,cs),
(1022,184,o),
(836,113,o),
(643,113,cs),
(458,113,o),
(350,150,o),
(258,215,c),
(345,226,o),
(399,272,o),
(399,360,cs),
(399,445,o),
(329,526,o),
(240,526,cs),
(144,526,o),
(59,447,o),
(59,336,cs),
(59,216,o),
(135,117,o),
(254,60,cs),
(373,3,o),
(519,-27,o),
(676,-27,cs)
);
}
);
width = 1337;
}
);
note = S;
unicode = 83;
},
{
glyphname = Sacute;
lastChange = "2023-03-16 12:53:48 +0000";
layers = (
{
background = {
shapes = (
{
closed = 1;
nodes = (
(1063,-27,o),
(1278,133,o),
(1278,397,cs),
(1278,444,o),
(1273,487,o),
(1263,524,cs),
(1242,598,o),
(1189,674,o),
(1098,732,cs),
(1007,790,o),
(864,843,o),
(668,887,cs),
(607,900,o),
(555,915,o),
(512,932,cs),
(424,965,o),
(379,995,o),
(351,1035,cs),
(322,1075,o),
(317,1106,o),
(317,1153,cs),
(317,1202,o),
(334,1246,o),
(369,1284,cs),
(438,1359,o),
(551,1396,o),
(678,1396,cs),
(824,1396,o),
(937,1365,o),
(1016,1303,c),
(943,1303,o),
(879,1254,o),
(879,1147,cs),
(879,1062,o),
(958,1006,o),
(1047,1006,cs),
(1155,1006,o),
(1217,1089,o),
(1217,1206,cs),
(1217,1253,o),
(1204,1295,o),
(1179,1334,cs),
(1127,1411,o),
(1045,1457,o),
(942,1490,cs),
(839,1523,o),
(742,1536,o),
(653,1536,cs),
(313,1536,o),
(78,1357,o),
(78,1112,cs),
(78,1035,o),
(94,969,o),
(125,915,cs),
(187,806,o),
(341,717,o),
(614,649,cs),
(675,634,o),
(725,620,o),
(765,608,cs),
(844,584,o),
(921,550,o),
(960,514,cs),
(999,477,o),
(1022,427,o),
(1022,362,cs),
(1022,307,o),
(1004,260,o),
(968,221,cs),
(896,144,o),
(783,113,o),
(643,113,cs),
(458,113,o),
(350,150,o),
(258,215,c),
(345,226,o),
(399,272,o),
(399,360,cs),
(399,445,o),
(329,526,o),
(240,526,cs),
(144,526,o),
(59,447,o),
(59,336,cs),
(59,216,o),
(135,117,o),
(254,60,cs),
(373,3,o),
(519,-27,o),
(676,-27,cs)
);
},
{
closed = 1;
nodes = (
(508,1682,ls),
(661,1739,o),
(882,1842,o),
(941,1902,c),
(840,2041,l),
(762,1984,ls),
(657,1909,o),
(473,1769,o),
(365,1677,c),
(394,1638,l)
);
}
);
};
layerId = "EE746D13-63D7-48F9-B77E-C723CA6A668B";
shapes = (
{
ref = S;
},
{
pos = (293,432);
ref = acutecomb;
}
);
width = 1337;
}
);
note = Sacute;
unicode = 346;
},
{
glyphname = Scaron;
lastChange = "2023-03-16 12:53:48 +0000";
layers = (
{
background = {
shapes = (
{
closed = 1;
nodes = (
(996,1988,l),
(897,2081,l),
(858,2029,ls),
(805,1961,o),
(717,1853,o),
(670,1812,c),
(618,1859,o),
(542,1950,o),
(441,2085,c),
(342,1995,l),
(670,1638,l)
);
},
{
closed = 1;
nodes = (
(1063,-27,o),
(1278,133,o),
(1278,397,cs),
(1278,444,o),
(1273,487,o),
(1263,524,cs),
(1242,598,o),
(1189,674,o),
(1098,732,cs),
(1007,790,o),
(864,843,o),
(668,887,cs),
(607,900,o),
(555,915,o),
(512,932,cs),
(424,965,o),
(379,995,o),
(351,1035,cs),
(322,1075,o),
(317,1106,o),
(317,1153,cs),
(317,1202,o),
(334,1246,o),
(369,1284,cs),
(438,1359,o),
(551,1396,o),
(678,1396,cs),
(824,1396,o),
(937,1365,o),
(1016,1303,c),
(943,1303,o),
(879,1254,o),
(879,1147,cs),
(879,1062,o),
(958,1006,o),
(1047,1006,cs),
(1155,1006,o),
(1217,1089,o),
(1217,1206,cs),
(1217,1253,o),
(1204,1295,o),
(1179,1334,cs),
(1127,1411,o),
(1045,1457,o),
(942,1490,cs),
(839,1523,o),
(742,1536,o),
(653,1536,cs),
(313,1536,o),
(78,1357,o),
(78,1112,cs),
(78,1035,o),
(94,969,o),
(125,915,cs),
(187,806,o),
(341,717,o),
(614,649,cs),
(675,634,o),
(725,620,o),
(765,608,cs),
(844,584,o),
(921,550,o),
(960,514,cs),
(999,477,o),
(1022,427,o),
(1022,362,cs),
(1022,307,o),
(1004,260,o),
(968,221,cs),
(896,144,o),
(783,113,o),
(643,113,cs),
(458,113,o),
(350,150,o),
(258,215,c),
(345,226,o),
(399,272,o),
(399,360,cs),
(399,445,o),
(329,526,o),
(240,526,cs),
(144,526,o),
(59,447,o),
(59,336,cs),
(59,216,o),
(135,117,o),
(254,60,cs),
(373,3,o),
(519,-27,o),
(676,-27,cs)
);
}
);
};
layerId = "EE746D13-63D7-48F9-B77E-C723CA6A668B";
shapes = (
{
ref = S;
},
{
pos = (268,478);
ref = caroncomb;
}
);
width = 1337;
}
);
note = Scaron;
unicode = 352;
},
{
glyphname = Scedilla;
lastChange = "2023-03-16 12:53:48 +0000";
layers = (
{
background = {
shapes = (
{
closed = 1;
nodes = (
(501,-451,ls),
(538,-444,o),
(595,-427,o),
(648,-403,cs),
(700,-379,o),
(743,-336,o),
(743,-288,cs),
(743,-12,l),
(704,-12,ls),
(589,-12,o),
(495,-103,o),
(495,-180,cs),
(495,-197,o),
(511,-220,o),
(543,-251,cs),
(574,-282,o),
(590,-305,o),
(590,-319,cs),
(590,-332,o),
(575,-345,o),
(546,-357,cs),
(517,-369,o),
(483,-378,o),
(444,-385,c),
(473,-456,l)
);
},
{
closed = 1;
nodes = (
(1063,-27,o),
(1278,133,o),
(1278,397,cs),
(1278,444,o),
(1273,487,o),
(1263,524,cs),
(1242,598,o),
(1189,674,o),
(1098,732,cs),
(1007,790,o),
(864,843,o),
(668,887,cs),
(607,900,o),
(555,915,o),
(512,932,cs),
(424,965,o),
(379,995,o),
(351,1035,cs),
(322,1075,o),
(317,1106,o),
(317,1153,cs),
(317,1202,o),
(334,1246,o),
(369,1284,cs),
(438,1359,o),
(551,1396,o),
(678,1396,cs),
(824,1396,o),
(937,1365,o),
(1016,1303,c),
(943,1303,o),
(879,1254,o),
(879,1147,cs),
(879,1062,o),
(958,1006,o),
(1047,1006,cs),
(1155,1006,o),
(1217,1089,o),
(1217,1206,cs),
(1217,1253,o),
(1204,1295,o),
(1179,1334,cs),
(1127,1411,o),
(1045,1457,o),
(942,1490,cs),
(839,1523,o),
(742,1536,o),
(653,1536,cs),
(313,1536,o),
(78,1357,o),
(78,1112,cs),
(78,1035,o),
(94,969,o),
(125,915,cs),
(187,806,o),
(341,717,o),
(614,649,cs),
(675,634,o),
(725,620,o),
(765,608,cs),
(844,584,o),
(921,550,o),
(960,514,cs),
(999,477,o),
(1022,427,o),
(1022,362,cs),
(1022,307,o),
(1004,260,o),
(968,221,cs),
(896,144,o),
(783,113,o),
(643,113,cs),
(458,113,o),
(350,150,o),
(258,215,c),
(345,226,o),
(399,272,o),
(399,360,cs),
(399,445,o),
(329,526,o),
(240,526,cs),
(144,526,o),
(59,447,o),
(59,336,cs),
(59,216,o),
(135,117,o),
(254,60,cs),
(373,3,o),
(519,-27,o),
(676,-27,cs)
);
}
);
};
layerId = "EE746D13-63D7-48F9-B77E-C723CA6A668B";
shapes = (
{
ref = S;
},
{
pos = (481,0);
ref = cedillacomb;
}
);
width = 1337;
}
);
note = Scedilla;
unicode = 350;
},
{
glyphname = Scommaaccent;
lastChange = "2023-03-16 12:53:48 +0000";
layers = (
{
background = {
shapes = (
{
closed = 1;
nodes = (
(665,-484,ls),
(708,-369,o),
(758,-193,o),
(754,-129,c),
(584,-129,l),
(586,-198,ls),
(587,-245,o),
(588,-304,o),
(588,-377,cs),
(588,-450,o),
(587,-512,o),
(584,-564,c),
(633,-570,l)
);
},
{
closed = 1;
nodes = (
(1063,-27,o),
(1278,133,o),
(1278,397,cs),
(1278,444,o),
(1273,487,o),
(1263,524,cs),
(1242,598,o),
(1189,674,o),
(1098,732,cs),
(1007,790,o),
(864,843,o),
(668,887,cs),
(607,900,o),
(555,915,o),
(512,932,cs),
(424,965,o),
(379,995,o),
(351,1035,cs),
(322,1075,o),
(317,1106,o),
(317,1153,cs),
(317,1202,o),
(334,1246,o),
(369,1284,cs),
(438,1359,o),
(551,1396,o),
(678,1396,cs),
(824,1396,o),
(937,1365,o),
(1016,1303,c),
(943,1303,o),
(879,1254,o),
(879,1147,cs),
(879,1062,o),
(958,1006,o),
(1047,1006,cs),
(1155,1006,o),
(1217,1089,o),
(1217,1206,cs),
(1217,1253,o),
(1204,1295,o),
(1179,1334,cs),
(1127,1411,o),
(1045,1457,o),
(942,1490,cs),
(839,1523,o),
(742,1536,o),
(653,1536,cs),
(313,1536,o),
(78,1357,o),
(78,1112,cs),
(78,1035,o),
(94,969,o),
(125,915,cs),
(187,806,o),
(341,717,o),
(614,649,cs),
(675,634,o),
(725,620,o),
(765,608,cs),
(844,584,o),
(921,550,o),
(960,514,cs),
(999,477,o),
(1022,427,o),
(1022,362,cs),
(1022,307,o),
(1004,260,o),
(968,221,cs),
(896,144,o),
(783,113,o),
(643,113,cs),
(458,113,o),
(350,150,o),
(258,215,c),
(345,226,o),
(399,272,o),
(399,360,cs),
(399,445,o),
(329,526,o),
(240,526,cs),
(144,526,o),
(59,447,o),
(59,336,cs),
(59,216,o),
(135,117,o),
(254,60,cs),
(373,3,o),
(519,-27,o),
(676,-27,cs)
);
}
);
};
layerId = "EE746D13-63D7-48F9-B77E-C723CA6A668B";
shapes = (
{
ref = S;
},
{
pos = (62,0);
ref = commaaccentcomb;
}
);
width = 1337;
}
);
note = uni0218;
unicode = 536;
},
{
glyphname = T;
kernLeft = T;
kernRight = T;
lastChange = "2023-03-16 12:53:48 +0000";
layers = (
{
anchors = (
{
name = bottom;
pos = (678,0);
},
{
name = center;
pos = (718,753);
},
{
name = top;
pos = (708,1505);
}
);
background = {
shapes = (
{
closed = 1;
nodes = (
(1079,0,l),
(1079,143,l),
(840,143,l),
(840,1362,l),
(1214,1362,l),
(1214,897,l),
(1401,897,l),
(1401,1505,l),
(35,1505,l),
(35,897,l),
(221,897,l),
(221,1362,l),
(604,1362,l),
(604,143,l),
(371,143,l),
(371,0,l)
);
}
);
};
layerId = "EE746D13-63D7-48F9-B77E-C723CA6A668B";
shapes = (
{
closed = 1;
nodes = (
(1079,0,l),
(1079,143,l),
(840,143,l),
(840,1362,l),
(1214,1362,l),
(1214,897,l),
(1401,897,l),
(1401,1505,l),
(35,1505,l),
(35,897,l),
(221,897,l),
(221,1362,l),
(604,1362,l),
(604,143,l),
(371,143,l),
(371,0,l)
);
}
);
width = 1435;
}
);
note = T;
unicode = 84;
},
{
glyphname = Tcaron;
kernLeft = T;
kernRight = T;
lastChange = "2023-03-16 12:53:48 +0000";
layers = (
{
background = {
shapes = (
{
closed = 1;
nodes = (
(1045,1988,l),
(946,2081,l),
(907,2029,ls),
(854,1961,o),
(766,1853,o),
(719,1812,c),
(667,1859,o),
(591,1950,o),
(490,2085,c),
(391,1995,l),
(719,1638,l)
);
},
{
closed = 1;
nodes = (
(1079,0,l),
(1079,143,l),
(840,143,l),
(840,1362,l),
(1214,1362,l),
(1214,897,l),
(1401,897,l),
(1401,1505,l),
(35,1505,l),
(35,897,l),
(221,897,l),
(221,1362,l),
(604,1362,l),
(604,143,l),
(371,143,l),
(371,0,l)
);
}
);
};
layerId = "EE746D13-63D7-48F9-B77E-C723CA6A668B";
shapes = (
{
ref = T;
},
{
pos = (317,478);
ref = caroncomb;
}
);
width = 1435;
}
);
note = Tcaron;
unicode = 356;
},
{
glyphname = Tcedilla;
lastChange = "2023-03-16 12:53:48 +0000";
layers = (
{
background = {
shapes = (
{
closed = 1;
nodes = (
(1079,0,l),
(1079,143,l),
(840,143,l),
(840,1362,l),
(1214,1362,l),
(1214,897,l),
(1401,897,l),
(1401,1505,l),
(35,1505,l),
(35,897,l),
(221,897,l),
(221,1362,l),
(604,1362,l),
(604,143,l),
(371,143,l),
(371,0,l)
);
},
{
closed = 1;
nodes = (
(495,-424,ls),
(532,-417,o),
(589,-400,o),
(642,-376,cs),
(694,-352,o),
(737,-309,o),
(737,-261,cs),
(737,15,l),
(698,15,ls),
(583,15,o),
(489,-76,o),
(489,-153,cs),
(489,-170,o),
(505,-193,o),
(537,-224,cs),
(568,-255,o),
(584,-278,o),
(584,-292,cs),
(584,-305,o),
(569,-318,o),
(540,-330,cs),
(511,-342,o),
(477,-351,o),
(438,-358,c),
(467,-429,l)
);
}
);
};
layerId = "EE746D13-63D7-48F9-B77E-C723CA6A668B";
shapes = (
{
ref = T;
},
{
pos = (520,0);
ref = cedilla;
}
);
width = 1435;
}
);
note = _400;
unicode = 354;
},
{
glyphname = Tcommaaccent;
kernRight = T;
lastChange = "2023-03-16 12:53:48 +0000";
layers = (
{
background = {
shapes = (
{
closed = 1;
nodes = (
(714,-457,ls),
(757,-342,o),
(807,-166,o),
(803,-102,c),
(633,-102,l),
(635,-171,ls),
(636,-218,o),
(637,-277,o),
(637,-350,cs),
(637,-423,o),
(636,-485,o),
(633,-537,c),
(682,-543,l)
);
},
{
closed = 1;
nodes = (
(1079,0,l),
(1079,143,l),
(840,143,l),
(840,1362,l),
(1214,1362,l),
(1214,897,l),
(1401,897,l),
(1401,1505,l),
(35,1505,l),
(35,897,l),
(221,897,l),
(221,1362,l),
(604,1362,l),
(604,143,l),
(371,143,l),
(371,0,l)
);
}
);
};
layerId = "EE746D13-63D7-48F9-B77E-C723CA6A668B";
shapes = (
{
ref = T;
},
{
pos = (101,0);
ref = commaaccentcomb;
}
);
width = 1435;
}
);
note = uni021A;
unicode = 538;
},
{
glyphname = U;
kernLeft = U;
kernRight = U;
lastChange = "2023-03-16 12:53:48 +0000";
layers = (
{
anchors = (
{
name = bottom;
pos = (802,0);
},
{
name = ogonek;
pos = (1063,6);
},
{
name = top;
pos = (811,1505);
},
{
name = topright;
pos = (1583,1505);
}
);
background = {
shapes = (
{
closed = 1;
nodes = (
(888,-27,o),
(966,-17,o),
(1033,2,cs),
(1167,41,o),
(1249,105,o),
(1302,205,cs),
(1355,304,o),
(1374,410,o),
(1374,547,cs),
(1374,1362,l),
(1583,1362,l),
(1583,1505,l),
(944,1505,l),
(944,1362,l),
(1171,1362,l),
(1171,508,ls),
(1171,245,o),
(1049,113,o),
(821,113,cs),
(588,113,o),
(471,243,o),
(471,502,cs),
(471,1362,l),
(692,1362,l),
(692,1505,l),
(20,1505,l),
(20,1362,l),
(236,1362,l),
(236,516,ls),
(236,356,o),
(277,228,o),
(364,129,cs),
(451,29,o),
(600,-27,o),
(799,-27,cs)
);
}
);
};
layerId = "EE746D13-63D7-48F9-B77E-C723CA6A668B";
shapes = (
{
closed = 1;
nodes = (
(888,-27,o),
(966,-17,o),
(1033,2,cs),
(1167,41,o),
(1249,105,o),
(1302,205,cs),
(1355,304,o),
(1374,410,o),
(1374,547,cs),
(1374,1362,l),
(1583,1362,l),
(1583,1505,l),
(944,1505,l),
(944,1362,l),
(1171,1362,l),
(1171,508,ls),
(1171,245,o),
(1049,113,o),
(821,113,cs),
(588,113,o),
(471,243,o),
(471,502,cs),
(471,1362,l),
(692,1362,l),
(692,1505,l),
(20,1505,l),
(20,1362,l),
(236,1362,l),
(236,516,ls),
(236,356,o),
(277,228,o),
(364,129,cs),
(451,29,o),
(600,-27,o),
(799,-27,cs)
);
}
);
width = 1603;
}
);
note = U;
unicode = 85;
},
{
glyphname = Uacute;
kernLeft = U;
kernRight = U;
lastChange = "2023-03-16 12:53:48 +0000";
layers = (
{
background = {
shapes = (
{
closed = 1;
nodes = (
(888,-27,o),
(966,-17,o),
(1033,2,cs),
(1167,41,o),
(1249,105,o),
(1302,205,cs),
(1355,304,o),
(1374,410,o),
(1374,547,cs),
(1374,1362,l),
(1583,1362,l),
(1583,1505,l),
(944,1505,l),
(944,1362,l),
(1171,1362,l),
(1171,508,ls),
(1171,245,o),
(1049,113,o),
(821,113,cs),
(588,113,o),
(471,243,o),
(471,502,cs),
(471,1362,l),
(692,1362,l),
(692,1505,l),
(20,1505,l),
(20,1362,l),
(236,1362,l),
(236,516,ls),
(236,356,o),
(277,228,o),
(364,129,cs),
(451,29,o),
(600,-27,o),
(799,-27,cs)
);
},
{
closed = 1;
nodes = (
(656,1682,ls),
(809,1739,o),
(1030,1842,o),
(1089,1902,c),
(988,2041,l),
(910,1984,ls),
(805,1909,o),
(621,1769,o),
(513,1677,c),
(542,1638,l)
);
}
);
};
layerId = "EE746D13-63D7-48F9-B77E-C723CA6A668B";
shapes = (
{
ref = U;
},
{
pos = (445,432);
ref = acutecomb;
}
);
width = 1603;
}
);
note = Uacute;
unicode = 218;
},
{
glyphname = Ubreve;
kernLeft = U;
kernRight = U;
lastChange = "2023-03-16 12:53:48 +0000";
layers = (
{
background = {
shapes = (
{
closed = 1;
nodes = (
(888,-27,o),
(966,-17,o),
(1033,2,cs),
(1167,41,o),
(1249,105,o),
(1302,205,cs),
(1355,304,o),
(1374,410,o),
(1374,547,cs),
(1374,1362,l),
(1583,1362,l),
(1583,1505,l),
(944,1505,l),
(944,1362,l),
(1171,1362,l),
(1171,508,ls),
(1171,245,o),
(1049,113,o),
(821,113,cs),
(588,113,o),
(471,243,o),
(471,502,cs),
(471,1362,l),
(692,1362,l),
(692,1505,l),
(20,1505,l),
(20,1362,l),
(236,1362,l),
(236,516,ls),
(236,356,o),
(277,228,o),
(364,129,cs),
(451,29,o),
(600,-27,o),
(799,-27,cs)
);
},
{
closed = 1;
nodes = (
(880,1638,o),
(946,1674,o),
(983,1724,cs),
(1019,1774,o),
(1039,1829,o),
(1042,1880,c),
(913,1880,l),
(909,1807,o),
(857,1757,o),
(801,1757,cs),
(742,1757,o),
(691,1808,o),
(690,1884,c),
(561,1884,l),
(564,1831,o),
(584,1774,o),
(622,1723,cs),
(660,1672,o),
(726,1638,o),
(803,1638,cs)
);
}
);
};
layerId = "EE746D13-63D7-48F9-B77E-C723CA6A668B";
shapes = (
{
ref = U;
},
{
pos = (232,432);
ref = brevecomb;
}
);
width = 1603;
}
);
note = Ubreve;
unicode = 364;
},
{
glyphname = Ucircumflex;
kernLeft = U;
kernRight = U;
lastChange = "2023-03-16 12:53:48 +0000";
layers = (
{
background = {
shapes = (
{
closed = 1;
nodes = (
(1128,1728,l),
(800,2085,l),
(474,1734,l),
(573,1642,l),
(612,1693,ls),
(665,1762,o),
(753,1870,o),
(800,1911,c),
(852,1864,o),
(928,1773,o),
(1029,1638,c)
);
},
{
closed = 1;
nodes = (
(888,-27,o),
(966,-17,o),
(1033,2,cs),
(1167,41,o),
(1249,105,o),
(1302,205,cs),
(1355,304,o),
(1374,410,o),
(1374,547,cs),
(1374,1362,l),
(1583,1362,l),
(1583,1505,l),
(944,1505,l),
(944,1362,l),
(1171,1362,l),
(1171,508,ls),
(1171,245,o),
(1049,113,o),
(821,113,cs),
(588,113,o),
(471,243,o),
(471,502,cs),
(471,1362,l),
(692,1362,l),
(692,1505,l),
(20,1505,l),
(20,1362,l),
(236,1362,l),
(236,516,ls),
(236,356,o),
(277,228,o),
(364,129,cs),
(451,29,o),
(600,-27,o),
(799,-27,cs)
);
}
);
};
layerId = "EE746D13-63D7-48F9-B77E-C723CA6A668B";
shapes = (
{
ref = U;
},
{
pos = (404,432);
ref = circumflexcomb;
}
);
width = 1603;
}
);
note = Ucircumflex;
unicode = 219;
},
{
glyphname = Udblgrave;
kernLeft = U;
kernRight = U;
lastChange = "2023-03-16 12:53:48 +0000";
layers = (
{
background = {
shapes = (
{
closed = 1;
nodes = (
(1209,1677,l),
(1088,1781,o),
(943,1916,o),
(775,2082,c),
(674,1943,l),
(733,1883,o),
(971,1746,o),
(1065,1698,cs),
(1112,1673,o),
(1150,1653,o),
(1180,1638,c)
);
},
{
closed = 1;
nodes = (
(820,1677,l),
(699,1781,o),
(554,1916,o),
(385,2082,c),
(285,1943,l),
(344,1883,o),
(582,1746,o),
(676,1698,cs),
(723,1673,o),
(761,1653,o),
(791,1638,c)
);
},
{
closed = 1;
nodes = (
(888,-27,o),
(966,-17,o),
(1033,2,cs),
(1167,41,o),
(1249,105,o),
(1302,205,cs),
(1355,304,o),
(1374,410,o),
(1374,547,cs),
(1374,1362,l),
(1583,1362,l),
(1583,1505,l),
(944,1505,l),
(944,1362,l),
(1171,1362,l),
(1171,508,ls),
(1171,245,o),
(1049,113,o),
(821,113,cs),
(588,113,o),
(471,243,o),
(471,502,cs),
(471,1362,l),
(692,1362,l),
(692,1505,l),
(20,1505,l),
(20,1362,l),
(236,1362,l),
(236,516,ls),
(236,356,o),
(277,228,o),
(364,129,cs),
(451,29,o),
(600,-27,o),
(799,-27,cs)
);
}
);
};
layerId = "EE746D13-63D7-48F9-B77E-C723CA6A668B";
shapes = (
{
ref = U;
},
{
pos = (158,444);
ref = dblgravecomb;
}
);
width = 1603;
}
);
note = uni0214;
unicode = 532;
},
{
glyphname = Udieresis;
kernLeft = U;
kernRight = U;
lastChange = "2023-03-16 12:53:48 +0000";
layers = (
{
background = {
shapes = (
{
closed = 1;
nodes = (
(1113,1638,o),
(1178,1702,o),
(1178,1775,cs),
(1178,1851,o),
(1113,1914,o),
(1038,1914,cs),
(962,1914,o),
(901,1851,o),
(901,1775,cs),
(901,1700,o),
(962,1638,o),
(1038,1638,cs)
);
},
{
closed = 1;
nodes = (
(636,1638,o),
(700,1702,o),
(700,1775,cs),
(700,1851,o),
(638,1914,o),
(563,1914,cs),
(487,1914,o),
(426,1851,o),
(426,1775,cs),
(426,1700,o),
(487,1638,o),
(563,1638,cs)
);
},
{
closed = 1;
nodes = (
(888,-27,o),
(966,-17,o),
(1033,2,cs),
(1167,41,o),
(1249,105,o),
(1302,205,cs),
(1355,304,o),
(1374,410,o),
(1374,547,cs),
(1374,1362,l),
(1583,1362,l),
(1583,1505,l),
(944,1505,l),
(944,1362,l),
(1171,1362,l),
(1171,508,ls),
(1171,245,o),
(1049,113,o),
(821,113,cs),
(588,113,o),
(471,243,o),
(471,502,cs),
(471,1362,l),
(692,1362,l),
(692,1505,l),
(20,1505,l),
(20,1362,l),
(236,1362,l),
(236,516,ls),
(236,356,o),
(277,228,o),
(364,129,cs),
(451,29,o),
(600,-27,o),
(799,-27,cs)
);
}
);
};
layerId = "EE746D13-63D7-48F9-B77E-C723CA6A668B";
shapes = (
{
ref = U;
},
{
pos = (357,432);
ref = dieresiscomb;
}
);
width = 1603;
}
);
note = Udieresis;
unicode = 220;
},
{
glyphname = Ugrave;
kernLeft = U;
kernRight = U;
lastChange = "2023-03-16 12:53:48 +0000";
layers = (
{
background = {
shapes = (
{
closed = 1;
nodes = (
(888,-27,o),
(966,-17,o),
(1033,2,cs),
(1167,41,o),
(1249,105,o),
(1302,205,cs),
(1355,304,o),
(1374,410,o),
(1374,547,cs),
(1374,1362,l),
(1583,1362,l),
(1583,1505,l),
(944,1505,l),
(944,1362,l),
(1171,1362,l),
(1171,508,ls),
(1171,245,o),
(1049,113,o),
(821,113,cs),
(588,113,o),
(471,243,o),
(471,502,cs),
(471,1362,l),
(692,1362,l),
(692,1505,l),
(20,1505,l),
(20,1362,l),
(236,1362,l),
(236,516,ls),
(236,356,o),
(277,228,o),
(364,129,cs),
(451,29,o),
(600,-27,o),
(799,-27,cs)
);
},
{
closed = 1;
nodes = (
(1089,1677,l),
(968,1781,o),
(809,1902,o),
(614,2041,c),
(513,1902,l),
(550,1863,o),
(656,1806,o),
(747,1766,cs),
(838,1725,o),
(970,1672,o),
(1011,1657,cs),
(1032,1649,o),
(1048,1643,o),
(1060,1638,c)
);
}
);
};
layerId = "EE746D13-63D7-48F9-B77E-C723CA6A668B";
shapes = (
{
ref = U;
},
{
pos = (445,432);
ref = gravecomb;
}
);
width = 1603;
}
);
note = Ugrave;
unicode = 217;
},
{
glyphname = Uhungarumlaut;
kernLeft = U;
kernRight = U;
lastChange = "2023-03-16 12:53:48 +0000";
layers = (
{
background = {
shapes = (
{
closed = 1;
nodes = (
(1101,1692,ls),
(1240,1763,o),
(1443,1883,o),
(1502,1943,c),
(1402,2082,l),
(1333,2016,ls),
(1242,1927,o),
(1075,1769,o),
(967,1677,c),
(996,1638,l)
);
},
{
closed = 1;
nodes = (
(711,1692,ls),
(851,1763,o),
(1054,1883,o),
(1113,1943,c),
(1012,2082,l),
(944,2016,ls),
(853,1927,o),
(686,1769,o),
(578,1677,c),
(607,1638,l)
);
},
{
closed = 1;
nodes = (
(888,-27,o),
(966,-17,o),
(1033,2,cs),
(1167,41,o),
(1249,105,o),
(1302,205,cs),
(1355,304,o),
(1374,410,o),
(1374,547,cs),
(1374,1362,l),
(1583,1362,l),
(1583,1505,l),
(944,1505,l),
(944,1362,l),
(1171,1362,l),
(1171,508,ls),
(1171,245,o),
(1049,113,o),
(821,113,cs),
(588,113,o),
(471,243,o),
(471,502,cs),
(471,1362,l),
(692,1362,l),
(692,1505,l),
(20,1505,l),
(20,1362,l),
(236,1362,l),
(236,516,ls),
(236,356,o),
(277,228,o),
(364,129,cs),
(451,29,o),
(600,-27,o),
(799,-27,cs)
);
}
);
};
layerId = "EE746D13-63D7-48F9-B77E-C723CA6A668B";
shapes = (
{
ref = U;
},
{
pos = (34,432);
ref = hungarumlautcomb;
}
);
width = 1603;
}
);
note = Uhungarumlaut;
unicode = 368;
},
{
glyphname = Uinvertedbreve;
kernLeft = U;
kernRight = U;
lastChange = "2023-03-16 12:53:48 +0000";
layers = (
{
background = {
shapes = (
{
closed = 1;
nodes = (
(1042,1638,l),
(1039,1691,o),
(1020,1748,o),
(982,1799,cs),
(944,1850,o),
(877,1884,o),
(800,1884,cs),
(723,1884,o),
(657,1849,o),
(621,1799,cs),
(584,1749,o),
(564,1693,o),
(561,1642,c),
(690,1642,l),
(694,1715,o),
(746,1765,o),
(802,1765,cs),
(861,1765,o),
(912,1714,o),
(913,1638,c)
);
},
{
closed = 1;
nodes = (
(888,-27,o),
(966,-17,o),
(1033,2,cs),
(1167,41,o),
(1249,105,o),
(1302,205,cs),
(1355,304,o),
(1374,410,o),
(1374,547,cs),
(1374,1362,l),
(1583,1362,l),
(1583,1505,l),
(944,1505,l),
(944,1362,l),
(1171,1362,l),
(1171,508,ls),
(1171,245,o),
(1049,113,o),
(821,113,cs),
(588,113,o),
(471,243,o),
(471,502,cs),
(471,1362,l),
(692,1362,l),
(692,1505,l),
(20,1505,l),
(20,1362,l),
(236,1362,l),
(236,516,ls),
(236,356,o),
(277,228,o),
(364,129,cs),
(451,29,o),
(600,-27,o),
(799,-27,cs)
);
}
);
};
layerId = "EE746D13-63D7-48F9-B77E-C723CA6A668B";
shapes = (
{
ref = U;
},
{
pos = (232,432);
ref = breveinvertedcomb;
}
);
width = 1603;
}
);
note = uni0216;
unicode = 534;
},
{
glyphname = Umacron;
kernLeft = U;
kernRight = U;
lastChange = "2023-03-16 12:53:48 +0000";
layers = (
{
background = {
shapes = (
{
closed = 1;
nodes = (
(888,-27,o),
(966,-17,o),
(1033,2,cs),
(1167,41,o),
(1249,105,o),
(1302,205,cs),
(1355,304,o),
(1374,410,o),
(1374,547,cs),
(1374,1362,l),
(1583,1362,l),
(1583,1505,l),
(944,1505,l),
(944,1362,l),
(1171,1362,l),
(1171,508,ls),
(1171,245,o),
(1049,113,o),
(821,113,cs),
(588,113,o),
(471,243,o),
(471,502,cs),
(471,1362,l),
(692,1362,l),
(692,1505,l),
(20,1505,l),
(20,1362,l),
(236,1362,l),
(236,516,ls),
(236,356,o),
(277,228,o),
(364,129,cs),
(451,29,o),
(600,-27,o),
(799,-27,cs)
);
},
{
closed = 1;
nodes = (
(1121,1638,l),
(1121,1776,l),
(539,1776,l),
(539,1638,l)
);
}
);
};
layerId = "EE746D13-63D7-48F9-B77E-C723CA6A668B";
shapes = (
{
ref = U;
},
{
pos = (367,432);
ref = macroncomb;
}
);
width = 1603;
}
);
note = Umacron;
unicode = 362;
},
{
glyphname = Uogonek;
kernLeft = U;
kernRight = U;
lastChange = "2023-03-16 12:53:48 +0000";
layers = (
{
background = {
shapes = (
{
closed = 1;
nodes = (
(904,-266,l),
(785,-250,o),
(748,-204,o),
(748,-143,cs),
(748,-88,o),
(801,-39,o),
(906,-20,c),
(906,11,l),
(833,11,o),
(758,-6,o),
(695,-37,cs),
(631,-69,o),
(588,-126,o),
(588,-194,cs),
(588,-305,o),
(706,-405,o),
(877,-405,c)
);
},
{
closed = 1;
nodes = (
(888,-27,o),
(966,-17,o),
(1033,2,cs),
(1167,41,o),
(1249,105,o),
(1302,205,cs),
(1355,304,o),
(1374,410,o),
(1374,547,cs),
(1374,1362,l),
(1583,1362,l),
(1583,1505,l),
(944,1505,l),
(944,1362,l),
(1171,1362,l),
(1171,508,ls),
(1171,245,o),
(1049,113,o),
(821,113,cs),
(588,113,o),
(471,243,o),
(471,502,cs),
(471,1362,l),
(692,1362,l),
(692,1505,l),
(20,1505,l),
(20,1362,l),
(236,1362,l),
(236,516,ls),
(236,356,o),
(277,228,o),
(364,129,cs),
(451,29,o),
(600,-27,o),
(799,-27,cs)
);
}
);
};
layerId = "EE746D13-63D7-48F9-B77E-C723CA6A668B";
shapes = (
{
ref = U;
},
{
pos = (691,0);
ref = ogonekcomb;
}
);
width = 1603;
}
);
note = Uogonek;
unicode = 370;
},
{
glyphname = Uring;
kernLeft = U;
kernRight = U;
lastChange = "2023-03-16 12:53:48 +0000";
layers = (
{
background = {
shapes = (
{
closed = 1;
nodes = (
(888,-27,o),
(966,-17,o),
(1033,2,cs),
(1167,41,o),
(1249,105,o),
(1302,205,cs),
(1355,304,o),
(1374,410,o),
(1374,547,cs),
(1374,1362,l),
(1583,1362,l),
(1583,1505,l),
(944,1505,l),
(944,1362,l),
(1171,1362,l),
(1171,508,ls),
(1171,245,o),
(1049,113,o),
(821,113,cs),
(588,113,o),
(471,243,o),
(471,502,cs),
(471,1362,l),
(692,1362,l),
(692,1505,l),
(20,1505,l),
(20,1362,l),
(236,1362,l),
(236,516,ls),
(236,356,o),
(277,228,o),
(364,129,cs),
(451,29,o),
(600,-27,o),
(799,-27,cs)
);
},
{
closed = 1;
nodes = (
(924,1638,o),
(1002,1716,o),
(1002,1821,cs),
(1002,1926,o),
(924,2003,o),
(803,2003,cs),
(679,2003,o),
(602,1926,o),
(602,1821,cs),
(602,1714,o),
(680,1638,o),
(803,1638,cs)
);
},
{
closed = 1;
nodes = (
(741,1696,o),
(690,1742,o),
(690,1821,cs),
(690,1900,o),
(743,1948,o),
(803,1948,cs),
(833,1948,o),
(859,1937,o),
(881,1914,cs),
(903,1891,o),
(914,1860,o),
(914,1821,cs),
(914,1744,o),
(861,1696,o),
(801,1696,cs)
);
}
);
};
layerId = "EE746D13-63D7-48F9-B77E-C723CA6A668B";
shapes = (
{
ref = U;
},
{
pos = (532,430);
ref = ringcomb;
}
);
width = 1603;
}
);
note = Uring;
unicode = 366;
},
{
glyphname = Utilde;
kernLeft = U;
kernRight = U;
lastChange = "2023-03-16 12:53:48 +0000";
layers = (
{
background = {
shapes = (
{
closed = 1;
nodes = (
(888,-27,o),
(966,-17,o),
(1033,2,cs),
(1167,41,o),
(1249,105,o),
(1302,205,cs),
(1355,304,o),
(1374,410,o),
(1374,547,cs),
(1374,1362,l),
(1583,1362,l),
(1583,1505,l),
(944,1505,l),
(944,1362,l),
(1171,1362,l),
(1171,508,ls),
(1171,245,o),
(1049,113,o),
(821,113,cs),
(588,113,o),
(471,243,o),
(471,502,cs),
(471,1362,l),
(692,1362,l),
(692,1505,l),
(20,1505,l),
(20,1362,l),
(236,1362,l),
(236,516,ls),
(236,356,o),
(277,228,o),
(364,129,cs),
(451,29,o),
(600,-27,o),
(799,-27,cs)
);
},
{
closed = 1;
nodes = (
(665,1638,o),
(725,1654,o),
(806,1685,cs),
(887,1716,o),
(942,1732,o),
(969,1732,cs),
(1036,1732,o),
(1057,1708,o),
(1057,1640,c),
(1145,1640,l),
(1145,1817,o),
(1100,1883,o),
(977,1883,cs),
(939,1883,o),
(879,1867,o),
(798,1836,cs),
(717,1805,o),
(662,1789,o),
(635,1789,cs),
(568,1789,o),
(547,1813,o),
(547,1881,c),
(459,1881,l),
(459,1704,o),
(504,1638,o),
(627,1638,cs)
);
}
);
};
layerId = "EE746D13-63D7-48F9-B77E-C723CA6A668B";
shapes = (
{
ref = U;
},
{
pos = (388,432);
ref = tildecomb;
}
);
width = 1603;
}
);
note = Utilde;
unicode = 360;
},
{
glyphname = V;
kernLeft = V;
kernRight = V;
lastChange = "2023-03-16 12:53:48 +0000";
layers = (
{
anchors = (
{
name = bottom;
pos = (820,0);
},
{
name = top;
pos = (820,1505);
}
);
background = {
shapes = (
{
closed = 1;
nodes = (
(893,-35,o),
(922,3,o),
(958,106,cs),
(1389,1362,l),
(1632,1362,l),
(1632,1505,l),
(954,1505,l),
(954,1362,l),
(1219,1362,l),
(866,293,l),
(502,1362,l),
(713,1362,l),
(713,1505,l),
(-4,1505,l),
(-4,1362,l),
(225,1362,l),
(676,106,ls),
(712,5,o),
(750,-35,o),
(821,-35,cs)
);
}
);
};
layerId = "EE746D13-63D7-48F9-B77E-C723CA6A668B";
shapes = (
{
closed = 1;
nodes = (
(893,-35,o),
(922,3,o),
(958,106,cs),
(1389,1362,l),
(1632,1362,l),
(1632,1505,l),
(954,1505,l),
(954,1362,l),
(1219,1362,l),
(866,293,l),
(502,1362,l),
(713,1362,l),
(713,1505,l),
(-4,1505,l),
(-4,1362,l),
(225,1362,l),
(676,106,ls),
(712,5,o),
(750,-35,o),
(821,-35,cs)
);
}
);
width = 1640;
}
);
note = V;
unicode = 86;
},
{
glyphname = W;
kernLeft = W;
kernRight = W;
lastChange = "2023-03-16 13:15:35 +0000";
layers = (
{
anchors = (
{
name = bottom;
pos = (1119,0);
},
{
name = top;
pos = (1199,1505);
}
);
background = {
shapes = (
{
closed = 1;
nodes = (
(851,-35,o),
(887,6,o),
(915,106,cs),
(978,332,ls),
(1021,483,o),
(1063,635,o),
(1105,786,cs),
(1147,937,o),
(1168,1012,o),
(1167,1012,c),
(1432,106,ls),
(1464,-3,o),
(1482,-35,o),
(1550,-35,cs),
(1621,-35,o),
(1642,-1,o),
(1679,106,c),
(2028,1362,l),
(2210,1362,l),
(2210,1505,l),
(1655,1505,l),
(1655,1362,l),
(1858,1362,l),
(1585,307,l),
(1294,1362,l),
(1094,1362,l),
(805,307,l),
(514,1362,l),
(725,1362,l),
(725,1505,l),
(29,1505,l),
(29,1362,l),
(258,1362,l),
(645,106,ls),
(677,2,o),
(709,-35,o),
(778,-35,cs)
);
}
);
};
layerId = "EE746D13-63D7-48F9-B77E-C723CA6A668B";
shapes = (
{
closed = 1;
nodes = (
(851,-35,o),
(887,6,o),
(915,106,cs),
(1167,1012,l),
(1432,106,ls),
(1464,-3,o),
(1482,-35,o),
(1550,-35,cs),
(1621,-35,o),
(1650,-3,o),
(1680,106,cs),
(2028,1362,l),
(2210,1362,l),
(2210,1505,l),
(1655,1505,l),
(1655,1362,l),
(1858,1362,l),
(1585,307,l),
(1294,1362,l),
(1094,1362,l),
(805,307,l),
(514,1362,l),
(725,1362,l),
(725,1505,l),
(29,1505,l),
(29,1362,l),
(258,1362,l),
(645,106,ls),
(677,2,o),
(709,-35,o),
(778,-35,cs)
);
}
);
width = 2238;
}
);
note = W;
unicode = 87;
},
{
glyphname = X;
kernLeft = X;
lastChange = "2023-03-16 12:53:48 +0000";
layers = (
{
anchors = (
{
name = bottom;
pos = (850,0);
},
{
name = top;
pos = (850,1505);
}
);
background = {
shapes = (
{
closed = 1;
nodes = (
(664,0,l),
(664,143,l),
(453,143,l),
(834,609,l),
(1190,143,l),
(969,143,l),
(969,0,l),
(1683,0,l),
(1683,143,l),
(1464,143,l),
(975,785,l),
(1440,1362,l),
(1669,1362,l),
(1669,1505,l),
(961,1505,l),
(961,1362,l),
(1208,1362,l),
(863,935,l),
(541,1362,l),
(770,1362,l),
(770,1505,l),
(23,1505,l),
(23,1362,l),
(266,1362,l),
(721,759,l),
(217,143,l),
(16,143,l),
(16,0,l)
);
}
);
};
layerId = "EE746D13-63D7-48F9-B77E-C723CA6A668B";
shapes = (
{
closed = 1;
nodes = (
(664,0,l),
(664,143,l),
(453,143,l),
(834,609,l),
(1190,143,l),
(969,143,l),
(969,0,l),
(1683,0,l),
(1683,143,l),
(1464,143,l),
(975,785,l),
(1440,1362,l),
(1669,1362,l),
(1669,1505,l),
(961,1505,l),
(961,1362,l),
(1208,1362,l),
(863,935,l),
(541,1362,l),
(770,1362,l),
(770,1505,l),
(23,1505,l),
(23,1362,l),
(266,1362,l),
(721,759,l),
(217,143,l),
(16,143,l),
(16,0,l)
);
}
);
width = 1699;
}
);
note = X;
unicode = 88;
},
{
glyphname = Y;
kernLeft = Y;
kernRight = Y;
lastChange = "2023-03-16 12:53:48 +0000";
layers = (
{
anchors = (
{
name = bottom;
pos = (777,0);
},
{
name = top;
pos = (807,1505);
},
{
name = topleft;
pos = (20,1505);
}
);
background = {
shapes = (
{
closed = 1;
nodes = (
(1124,0,l),
(1124,143,l),
(895,143,l),
(895,590,l),
(1343,1362,l),
(1532,1362,l),
(1532,1505,l),
(926,1505,l),
(926,1362,l),
(1149,1362,l),
(801,741,l),
(463,1362,l),
(692,1362,l),
(692,1505,l),
(23,1505,l),
(23,1362,l),
(227,1362,l),
(659,595,l),
(659,143,l),
(416,143,l),
(416,0,l)
);
}
);
};
layerId = "EE746D13-63D7-48F9-B77E-C723CA6A668B";
shapes = (
{
closed = 1;
nodes = (
(1124,0,l),
(1124,143,l),
(895,143,l),
(895,590,l),
(1343,1362,l),
(1532,1362,l),
(1532,1505,l),
(926,1505,l),
(926,1362,l),
(1149,1362,l),
(801,741,l),
(463,1362,l),
(692,1362,l),
(692,1505,l),
(23,1505,l),
(23,1362,l),
(227,1362,l),
(659,595,l),
(659,143,l),
(416,143,l),
(416,0,l)
);
}
);
width = 1554;
}
);
note = Y;
unicode = 89;
},
{
glyphname = Yacute;
kernLeft = Y;
kernRight = Y;
lastChange = "2023-03-16 12:53:48 +0000";
layers = (
{
background = {
shapes = (
{
closed = 1;
nodes = (
(1124,0,l),
(1124,143,l),
(895,143,l),
(895,590,l),
(1343,1362,l),
(1532,1362,l),
(1532,1505,l),
(926,1505,l),
(926,1362,l),
(1149,1362,l),
(801,741,l),
(463,1362,l),
(692,1362,l),
(692,1505,l),
(23,1505,l),
(23,1362,l),
(227,1362,l),
(659,595,l),
(659,143,l),
(416,143,l),
(416,0,l)
);
},
{
closed = 1;
nodes = (
(632,1682,ls),
(785,1739,o),
(1006,1842,o),
(1065,1902,c),
(964,2041,l),
(886,1984,ls),
(781,1909,o),
(597,1769,o),
(489,1677,c),
(518,1638,l)
);
}
);
};
layerId = "EE746D13-63D7-48F9-B77E-C723CA6A668B";
shapes = (
{
ref = Y;
},
{
pos = (441,432);
ref = acutecomb;
}
);
width = 1554;
}
);
note = Yacute;
unicode = 221;
},
{
glyphname = Ydieresis;
kernLeft = Y;
kernRight = Y;
lastChange = "2023-03-16 12:53:48 +0000";
layers = (
{
background = {
shapes = (
{
closed = 1;
nodes = (
(1089,1638,o),
(1154,1702,o),
(1154,1775,cs),
(1154,1851,o),
(1089,1914,o),
(1014,1914,cs),
(938,1914,o),
(877,1851,o),
(877,1775,cs),
(877,1700,o),
(938,1638,o),
(1014,1638,cs)
);
},
{
closed = 1;
nodes = (
(612,1638,o),
(676,1702,o),
(676,1775,cs),
(676,1851,o),
(614,1914,o),
(539,1914,cs),
(463,1914,o),
(402,1851,o),
(402,1775,cs),
(402,1700,o),
(463,1638,o),
(539,1638,cs)
);
},
{
closed = 1;
nodes = (
(1124,0,l),
(1124,143,l),
(895,143,l),
(895,590,l),
(1343,1362,l),
(1532,1362,l),
(1532,1505,l),
(926,1505,l),
(926,1362,l),
(1149,1362,l),
(801,741,l),
(463,1362,l),
(692,1362,l),
(692,1505,l),
(23,1505,l),
(23,1362,l),
(227,1362,l),
(659,595,l),
(659,143,l),
(416,143,l),
(416,0,l)
);
}
);
};
layerId = "EE746D13-63D7-48F9-B77E-C723CA6A668B";
shapes = (
{
ref = Y;
},
{
pos = (353,432);
ref = dieresiscomb;
}
);
width = 1554;
}
);
note = Ydieresis;
unicode = 376;
},
{
glyphname = Z;
lastChange = "2023-03-16 13:11:44 +0000";
layers = (
{
anchors = (
{
name = bottom;
pos = (680,0);
},
{
name = center;
pos = (680,753);
},
{
name = top;
pos = (700,1505);
}
);
background = {
shapes = (
{
closed = 1;
nodes = (
(1278,0,l),
(1278,590,l),
(1092,590,l),
(1092,143,l),
(381,143,l),
(1245,1335,l),
(1204,1505,l),
(129,1505,l),
(129,946,l),
(315,946,l),
(315,1368,l),
(983,1368,l),
(113,166,l),
(111,166,l),
(135,0,l)
);
}
);
};
layerId = "EE746D13-63D7-48F9-B77E-C723CA6A668B";
shapes = (
{
closed = 1;
nodes = (
(1278,0,l),
(1278,590,l),
(1092,590,l),
(1092,143,l),
(381,143,l),
(1245,1335,l),
(1204,1505,l),
(129,1505,l),
(129,946,l),
(315,946,l),
(315,1368,l),
(983,1368,l),
(111,166,l),
(135,0,l)
);
}
);
width = 1359;
}
);
note = Z;
unicode = 90;
},
{
glyphname = Zacute;
lastChange = "2023-03-16 12:53:48 +0000";
layers = (
{
background = {
shapes = (
{
closed = 1;
nodes = (
(1278,0,l),
(1278,590,l),
(1092,590,l),
(1092,143,l),
(381,143,l),
(1245,1335,l),
(1204,1505,l),
(129,1505,l),
(129,946,l),
(315,946,l),
(315,1368,l),
(983,1368,l),
(113,166,l),
(111,166,l),
(135,0,l)
);
},
{
closed = 1;
nodes = (
(522,1682,ls),
(675,1739,o),
(896,1842,o),
(955,1902,c),
(854,2041,l),
(776,1984,ls),
(671,1909,o),
(487,1769,o),
(379,1677,c),
(408,1638,l)
);
}
);
};
layerId = "EE746D13-63D7-48F9-B77E-C723CA6A668B";
shapes = (
{
ref = Z;
},
{
pos = (334,432);
ref = acutecomb;
}
);
width = 1359;
}
);
note = Zacute;
unicode = 377;
},
{
glyphname = Zcaron;
lastChange = "2023-03-16 12:53:48 +0000";
layers = (
{
background = {
shapes = (
{
closed = 1;
nodes = (
(1022,1988,l),
(923,2081,l),
(884,2029,ls),
(831,1961,o),
(743,1853,o),
(696,1812,c),
(644,1859,o),
(568,1950,o),
(467,2085,c),
(368,1995,l),
(696,1638,l)
);
},
{
closed = 1;
nodes = (
(1278,0,l),
(1278,590,l),
(1092,590,l),
(1092,143,l),
(381,143,l),
(1245,1335,l),
(1204,1505,l),
(129,1505,l),
(129,946,l),
(315,946,l),
(315,1368,l),
(983,1368,l),
(113,166,l),
(111,166,l),
(135,0,l)
);
}
);
};
layerId = "EE746D13-63D7-48F9-B77E-C723CA6A668B";
shapes = (
{
ref = Z;
},
{
pos = (309,478);
ref = caroncomb;
}
);
width = 1359;
}
);
note = Zcaron;
unicode = 381;
},
{
glyphname = Zdotaccent;
lastChange = "2023-03-16 12:53:48 +0000";
layers = (
{
background = {
shapes = (
{
closed = 1;
nodes = (
(774,1638,o),
(843,1706,o),
(843,1786,cs),
(843,1867,o),
(774,1935,o),
(694,1935,cs),
(613,1935,o),
(546,1869,o),
(546,1786,cs),
(546,1706,o),
(613,1638,o),
(694,1638,cs)
);
},
{
closed = 1;
nodes = (
(1278,0,l),
(1278,590,l),
(1092,590,l),
(1092,143,l),
(381,143,l),
(1245,1335,l),
(1204,1505,l),
(129,1505,l),
(129,946,l),
(315,946,l),
(315,1368,l),
(983,1368,l),
(113,166,l),
(111,166,l),
(135,0,l)
);
}
);
};
layerId = "EE746D13-63D7-48F9-B77E-C723CA6A668B";
shapes = (
{
ref = Z;
},
{
pos = (365,432);
ref = dotaccentcomb;
}
);
width = 1359;
}
);
note = Zdotaccent;
unicode = 379;
},
{
glyphname = a;
kernLeft = a;
kernRight = a;
lastChange = "2023-03-16 12:53:48 +0000";
layers = (
{
anchors = (
{
name = bottom;
pos = (634,0);
},
{
name = ogonek;
pos = (1170,6);
},
{
name = top;
pos = (544,1073);
}
);
background = {
shapes = (
{
closed = 1;
nodes = (
(515,-27,o),
(666,78,o),
(723,223,c),
(728,168,o),
(745,122,o),
(773,83,cs),
(828,6,o),
(908,-27,o),
(997,-27,cs),
(1081,-27,o),
(1141,-9,o),
(1194,39,cs),
(1247,87,o),
(1276,180,o),
(1276,313,cs),
(1276,442,l),
(1167,442,l),
(1167,293,ls),
(1167,174,o),
(1125,115,o),
(1040,115,cs),
(1011,115,o),
(988,125,o),
(969,144,cs),
(932,183,o),
(922,231,o),
(922,283,cs),
(922,743,ls),
(922,874,o),
(880,971,o),
(808,1025,cs),
(735,1079,o),
(646,1102,o),
(537,1102,cs),
(401,1102,o),
(282,1058,o),
(216,998,cs),
(150,938,o),
(113,872,o),
(113,817,cs),
(113,712,o),
(181,655,o),
(260,655,cs),
(336,655,o),
(399,713,o),
(399,797,cs),
(399,860,o),
(345,913,o),
(260,913,c),
(307,965,o),
(399,997,o),
(494,997,cs),
(629,997,o),
(707,924,o),
(707,772,cs),
(707,711,o),
(668,660,o),
(609,625,cs),
(549,590,o),
(471,554,o),
(393,526,cs),
(315,497,o),
(236,455,o),
(177,411,cs),
(117,367,o),
(78,299,o),
(78,219,cs),
(78,66,o),
(192,-27,o),
(356,-27,cs)
);
},
{
closed = 1;
nodes = (
(331,117,o),
(291,162,o),
(291,229,cs),
(291,309,o),
(351,365,o),
(423,397,cs),
(494,429,o),
(622,500,o),
(707,584,c),
(707,371,ls),
(707,334,o),
(692,296,o),
(661,256,cs),
(600,176,o),
(496,117,o),
(408,117,cs)
);
}
);
};
layerId = "EE746D13-63D7-48F9-B77E-C723CA6A668B";
shapes = (
{
closed = 1;
nodes = (
(515,-27,o),
(666,78,o),
(723,223,c),
(728,168,o),
(745,122,o),
(773,83,cs),
(828,6,o),
(908,-27,o),
(997,-27,cs),
(1081,-27,o),
(1141,-9,o),
(1194,39,cs),
(1247,87,o),
(1276,180,o),
(1276,313,cs),
(1276,442,l),
(1167,442,l),
(1167,293,ls),
(1167,174,o),
(1125,115,o),
(1040,115,cs),
(1011,115,o),
(988,125,o),
(969,144,cs),
(932,183,o),
(922,231,o),
(922,283,cs),
(922,743,ls),
(922,874,o),
(880,971,o),
(808,1025,cs),
(735,1079,o),
(646,1102,o),
(537,1102,cs),
(401,1102,o),
(282,1058,o),
(216,998,cs),
(150,938,o),
(113,872,o),
(113,817,cs),
(113,712,o),
(181,655,o),
(260,655,cs),
(336,655,o),
(399,713,o),
(399,797,cs),
(399,860,o),
(345,913,o),
(260,913,c),
(307,965,o),
(399,997,o),
(494,997,cs),
(629,997,o),
(707,924,o),
(707,772,cs),
(707,711,o),
(668,660,o),
(609,625,cs),
(549,590,o),
(471,554,o),
(393,526,cs),
(315,497,o),
(236,455,o),
(177,411,cs),
(117,367,o),
(78,299,o),
(78,219,cs),
(78,66,o),
(192,-27,o),
(356,-27,cs)
);
},
{
closed = 1;
nodes = (
(331,117,o),
(291,162,o),
(291,229,cs),
(291,309,o),
(351,365,o),
(423,397,cs),
(494,429,o),
(622,500,o),
(707,584,c),
(707,371,ls),
(707,334,o),
(692,296,o),
(661,256,cs),
(600,176,o),
(496,117,o),
(408,117,cs)
);
}
);
width = 1267;
}
);
note = a;
unicode = 97;
},
{
glyphname = aacute;
kernLeft = a;
kernRight = a;
lastChange = "2023-03-16 12:53:48 +0000";
layers = (
{
background = {
shapes = (
{
closed = 1;
nodes = (
(515,-27,o),
(666,78,o),
(723,223,c),
(728,168,o),
(745,122,o),
(773,83,cs),
(828,6,o),
(908,-27,o),
(997,-27,cs),
(1081,-27,o),
(1141,-9,o),
(1194,39,cs),
(1247,87,o),
(1276,180,o),
(1276,313,cs),
(1276,442,l),
(1167,442,l),
(1167,293,ls),
(1167,174,o),
(1125,115,o),
(1040,115,cs),
(1011,115,o),
(988,125,o),
(969,144,cs),
(932,183,o),
(922,231,o),
(922,283,cs),
(922,743,ls),
(922,874,o),
(880,971,o),
(808,1025,cs),
(735,1079,o),
(646,1102,o),
(537,1102,cs),
(401,1102,o),
(282,1058,o),
(216,998,cs),
(150,938,o),
(113,872,o),
(113,817,cs),
(113,712,o),
(181,655,o),
(260,655,cs),
(336,655,o),
(399,713,o),
(399,797,cs),
(399,860,o),
(345,913,o),
(260,913,c),
(307,965,o),
(399,997,o),
(494,997,cs),
(629,997,o),
(707,924,o),
(707,772,cs),
(707,711,o),
(668,660,o),
(609,625,cs),
(549,590,o),
(471,554,o),
(393,526,cs),
(315,497,o),
(236,455,o),
(177,411,cs),
(117,367,o),
(78,299,o),
(78,219,cs),
(78,66,o),
(192,-27,o),
(356,-27,cs)
);
},
{
closed = 1;
nodes = (
(331,117,o),
(291,162,o),
(291,229,cs),
(291,309,o),
(351,365,o),
(423,397,cs),
(494,429,o),
(622,500,o),
(707,584,c),
(707,371,ls),
(707,334,o),
(692,296,o),
(661,256,cs),
(600,176,o),
(496,117,o),
(408,117,cs)
);
},
{
closed = 1;
nodes = (
(392,1248,ls),
(545,1305,o),
(766,1408,o),
(825,1468,c),
(724,1607,l),
(646,1550,ls),
(541,1475,o),
(357,1335,o),
(249,1243,c),
(278,1204,l)
);
}
);
};
layerId = "EE746D13-63D7-48F9-B77E-C723CA6A668B";
shapes = (
{
ref = a;
},
{
pos = (178,0);
ref = acutecomb;
}
);
width = 1267;
}
);
note = aacute;
unicode = 225;
},
{
glyphname = abreve;
kernLeft = a;
kernRight = a;
lastChange = "2023-03-16 12:53:48 +0000";
layers = (
{
background = {
shapes = (
{
closed = 1;
nodes = (
(615,1204,o),
(681,1240,o),
(718,1290,cs),
(754,1340,o),
(774,1395,o),
(777,1446,c),
(648,1446,l),
(644,1373,o),
(592,1323,o),
(536,1323,cs),
(477,1323,o),
(426,1374,o),
(425,1450,c),
(296,1450,l),
(299,1397,o),
(319,1340,o),
(357,1289,cs),
(395,1238,o),
(461,1204,o),
(538,1204,cs)
);
},
{
closed = 1;
nodes = (
(515,-27,o),
(666,78,o),
(723,223,c),
(728,168,o),
(745,122,o),
(773,83,cs),
(828,6,o),
(908,-27,o),
(997,-27,cs),
(1081,-27,o),
(1141,-9,o),
(1194,39,cs),
(1247,87,o),
(1276,180,o),
(1276,313,cs),
(1276,442,l),
(1167,442,l),
(1167,293,ls),
(1167,174,o),
(1125,115,o),
(1040,115,cs),
(1011,115,o),
(988,125,o),
(969,144,cs),
(932,183,o),
(922,231,o),
(922,283,cs),
(922,743,ls),
(922,874,o),
(880,971,o),
(808,1025,cs),
(735,1079,o),
(646,1102,o),
(537,1102,cs),
(401,1102,o),
(282,1058,o),
(216,998,cs),
(150,938,o),
(113,872,o),
(113,817,cs),
(113,712,o),
(181,655,o),
(260,655,cs),
(336,655,o),
(399,713,o),
(399,797,cs),
(399,860,o),
(345,913,o),
(260,913,c),
(307,965,o),
(399,997,o),
(494,997,cs),
(629,997,o),
(707,924,o),
(707,772,cs),
(707,711,o),
(668,660,o),
(609,625,cs),
(549,590,o),
(471,554,o),
(393,526,cs),
(315,497,o),
(236,455,o),
(177,411,cs),
(117,367,o),
(78,299,o),
(78,219,cs),
(78,66,o),
(192,-27,o),
(356,-27,cs)
);
},
{
closed = 1;
nodes = (
(331,117,o),
(291,162,o),
(291,229,cs),
(291,309,o),
(351,365,o),
(423,397,cs),
(494,429,o),
(622,500,o),
(707,584,c),
(707,371,ls),
(707,334,o),
(692,296,o),
(661,256,cs),
(600,176,o),
(496,117,o),
(408,117,cs)
);
}
);
};
layerId = "EE746D13-63D7-48F9-B77E-C723CA6A668B";
shapes = (
{
ref = a;
},
{
pos = (-35,0);
ref = brevecomb;
}
);
width = 1267;
}
);
note = abreve;
unicode = 259;
},
{
glyphname = acircumflex;
kernLeft = a;
kernRight = a;
lastChange = "2023-03-16 12:53:48 +0000";
layers = (
{
background = {
shapes = (
{
closed = 1;
nodes = (
(515,-27,o),
(666,78,o),
(723,223,c),
(728,168,o),
(745,122,o),
(773,83,cs),
(828,6,o),
(908,-27,o),
(997,-27,cs),
(1081,-27,o),
(1141,-9,o),
(1194,39,cs),
(1247,87,o),
(1276,180,o),
(1276,313,cs),
(1276,442,l),
(1167,442,l),
(1167,293,ls),
(1167,174,o),
(1125,115,o),
(1040,115,cs),
(1011,115,o),
(988,125,o),
(969,144,cs),
(932,183,o),
(922,231,o),
(922,283,cs),
(922,743,ls),
(922,874,o),
(880,971,o),
(808,1025,cs),
(735,1079,o),
(646,1102,o),
(537,1102,cs),
(401,1102,o),
(282,1058,o),
(216,998,cs),
(150,938,o),
(113,872,o),
(113,817,cs),
(113,712,o),
(181,655,o),
(260,655,cs),
(336,655,o),
(399,713,o),
(399,797,cs),
(399,860,o),
(345,913,o),
(260,913,c),
(307,965,o),
(399,997,o),
(494,997,cs),
(629,997,o),
(707,924,o),
(707,772,cs),
(707,711,o),
(668,660,o),
(609,625,cs),
(549,590,o),
(471,554,o),
(393,526,cs),
(315,497,o),
(236,455,o),
(177,411,cs),
(117,367,o),
(78,299,o),
(78,219,cs),
(78,66,o),
(192,-27,o),
(356,-27,cs)
);
},
{
closed = 1;
nodes = (
(331,117,o),
(291,162,o),
(291,229,cs),
(291,309,o),
(351,365,o),
(423,397,cs),
(494,429,o),
(622,500,o),
(707,584,c),
(707,371,ls),
(707,334,o),
(692,296,o),
(661,256,cs),
(600,176,o),
(496,117,o),
(408,117,cs)
);
},
{
closed = 1;
nodes = (
(864,1294,l),
(536,1651,l),
(210,1300,l),
(309,1208,l),
(348,1259,ls),
(401,1328,o),
(489,1436,o),
(536,1477,c),
(588,1430,o),
(664,1339,o),
(765,1204,c)
);
}
);
};
layerId = "EE746D13-63D7-48F9-B77E-C723CA6A668B";
shapes = (
{
ref = a;
},
{
pos = (137,0);
ref = circumflexcomb;
}
);
width = 1267;
}
);
note = acircumflex;
unicode = 226;
},
{
glyphname = adblgrave;
kernLeft = a;
kernRight = a;
lastChange = "2023-03-16 12:53:48 +0000";
layers = (
{
background = {
shapes = (
{
closed = 1;
nodes = (
(988,1243,l),
(867,1347,o),
(722,1482,o),
(554,1648,c),
(453,1509,l),
(512,1449,o),
(750,1312,o),
(844,1264,cs),
(891,1239,o),
(929,1219,o),
(959,1204,c)
);
},
{
closed = 1;
nodes = (
(599,1243,l),
(478,1347,o),
(333,1482,o),
(164,1648,c),
(64,1509,l),
(123,1449,o),
(361,1312,o),
(455,1264,cs),
(502,1239,o),
(540,1219,o),
(570,1204,c)
);
},
{
closed = 1;
nodes = (
(515,-27,o),
(666,78,o),
(723,223,c),
(728,168,o),
(745,122,o),
(773,83,cs),
(828,6,o),
(908,-27,o),
(997,-27,cs),
(1081,-27,o),
(1141,-9,o),
(1194,39,cs),
(1247,87,o),
(1276,180,o),
(1276,313,cs),
(1276,442,l),
(1167,442,l),
(1167,293,ls),
(1167,174,o),
(1125,115,o),
(1040,115,cs),
(1011,115,o),
(988,125,o),
(969,144,cs),
(932,183,o),
(922,231,o),
(922,283,cs),
(922,743,ls),
(922,874,o),
(880,971,o),
(808,1025,cs),
(735,1079,o),
(646,1102,o),
(537,1102,cs),
(401,1102,o),
(282,1058,o),
(216,998,cs),
(150,938,o),
(113,872,o),
(113,817,cs),
(113,712,o),
(181,655,o),
(260,655,cs),
(336,655,o),
(399,713,o),
(399,797,cs),
(399,860,o),
(345,913,o),
(260,913,c),
(307,965,o),
(399,997,o),
(494,997,cs),
(629,997,o),
(707,924,o),
(707,772,cs),
(707,711,o),
(668,660,o),
(609,625,cs),
(549,590,o),
(471,554,o),
(393,526,cs),
(315,497,o),
(236,455,o),
(177,411,cs),
(117,367,o),
(78,299,o),
(78,219,cs),
(78,66,o),
(192,-27,o),
(356,-27,cs)
);
},
{
closed = 1;
nodes = (
(331,117,o),
(291,162,o),
(291,229,cs),
(291,309,o),
(351,365,o),
(423,397,cs),
(494,429,o),
(622,500,o),
(707,584,c),
(707,371,ls),
(707,334,o),
(692,296,o),
(661,256,cs),
(600,176,o),
(496,117,o),
(408,117,cs)
);
}
);
};
layerId = "EE746D13-63D7-48F9-B77E-C723CA6A668B";
shapes = (
{
ref = a;
},
{
pos = (-109,12);
ref = dblgravecomb;
}
);
width = 1267;
}
);
note = uni0201;
unicode = 513;
},
{
glyphname = adieresis;
kernLeft = a;
kernRight = a;
lastChange = "2023-03-16 12:53:48 +0000";
layers = (
{
background = {
shapes = (
{
closed = 1;
nodes = (
(515,-27,o),
(666,78,o),
(723,223,c),
(728,168,o),
(745,122,o),
(773,83,cs),
(828,6,o),
(908,-27,o),
(997,-27,cs),
(1081,-27,o),
(1141,-9,o),
(1194,39,cs),
(1247,87,o),
(1276,180,o),
(1276,313,cs),
(1276,442,l),
(1167,442,l),
(1167,293,ls),
(1167,174,o),
(1125,115,o),
(1040,115,cs),
(1011,115,o),
(988,125,o),
(969,144,cs),
(932,183,o),
(922,231,o),
(922,283,cs),
(922,743,ls),
(922,874,o),
(880,971,o),
(808,1025,cs),
(735,1079,o),
(646,1102,o),
(537,1102,cs),
(401,1102,o),
(282,1058,o),
(216,998,cs),
(150,938,o),
(113,872,o),
(113,817,cs),
(113,712,o),
(181,655,o),
(260,655,cs),
(336,655,o),
(399,713,o),
(399,797,cs),
(399,860,o),
(345,913,o),
(260,913,c),
(307,965,o),
(399,997,o),
(494,997,cs),
(629,997,o),
(707,924,o),
(707,772,cs),
(707,711,o),
(668,660,o),
(609,625,cs),
(549,590,o),
(471,554,o),
(393,526,cs),
(315,497,o),
(236,455,o),
(177,411,cs),
(117,367,o),
(78,299,o),
(78,219,cs),
(78,66,o),
(192,-27,o),
(356,-27,cs)
);
},
{
closed = 1;
nodes = (
(331,117,o),
(291,162,o),
(291,229,cs),
(291,309,o),
(351,365,o),
(423,397,cs),
(494,429,o),
(622,500,o),
(707,584,c),
(707,371,ls),
(707,334,o),
(692,296,o),
(661,256,cs),
(600,176,o),
(496,117,o),
(408,117,cs)
);
},
{
closed = 1;
nodes = (
(848,1204,o),
(913,1268,o),
(913,1341,cs),
(913,1417,o),
(848,1480,o),
(773,1480,cs),
(697,1480,o),
(636,1417,o),
(636,1341,cs),
(636,1266,o),
(697,1204,o),
(773,1204,cs)
);
},
{
closed = 1;
nodes = (
(371,1204,o),
(435,1268,o),
(435,1341,cs),
(435,1417,o),
(373,1480,o),
(298,1480,cs),
(222,1480,o),
(161,1417,o),
(161,1341,cs),
(161,1266,o),
(222,1204,o),
(298,1204,cs)
);
}
);
};
layerId = "EE746D13-63D7-48F9-B77E-C723CA6A668B";
shapes = (
{
ref = a;
},
{
pos = (90,0);
ref = dieresiscomb;
}
);
width = 1267;
}
);
note = adieresis;
unicode = 228;
},
{
glyphname = agrave;
kernLeft = a;
kernRight = a;
lastChange = "2023-03-16 12:53:48 +0000";
layers = (
{
background = {
shapes = (
{
closed = 1;
nodes = (
(515,-27,o),
(666,78,o),
(723,223,c),
(728,168,o),
(745,122,o),
(773,83,cs),
(828,6,o),
(908,-27,o),
(997,-27,cs),
(1081,-27,o),
(1141,-9,o),
(1194,39,cs),
(1247,87,o),
(1276,180,o),
(1276,313,cs),
(1276,442,l),
(1167,442,l),
(1167,293,ls),
(1167,174,o),
(1125,115,o),
(1040,115,cs),
(1011,115,o),
(988,125,o),
(969,144,cs),
(932,183,o),
(922,231,o),
(922,283,cs),
(922,743,ls),
(922,874,o),
(880,971,o),
(808,1025,cs),
(735,1079,o),
(646,1102,o),
(537,1102,cs),
(401,1102,o),
(282,1058,o),
(216,998,cs),
(150,938,o),
(113,872,o),
(113,817,cs),
(113,712,o),
(181,655,o),
(260,655,cs),
(336,655,o),
(399,713,o),
(399,797,cs),
(399,860,o),
(345,913,o),
(260,913,c),
(307,965,o),
(399,997,o),
(494,997,cs),
(629,997,o),
(707,924,o),
(707,772,cs),
(707,711,o),
(668,660,o),
(609,625,cs),
(549,590,o),
(471,554,o),
(393,526,cs),
(315,497,o),
(236,455,o),
(177,411,cs),
(117,367,o),
(78,299,o),
(78,219,cs),
(78,66,o),
(192,-27,o),
(356,-27,cs)
);
},
{
closed = 1;
nodes = (
(331,117,o),
(291,162,o),
(291,229,cs),
(291,309,o),
(351,365,o),
(423,397,cs),
(494,429,o),
(622,500,o),
(707,584,c),
(707,371,ls),
(707,334,o),
(692,296,o),
(661,256,cs),
(600,176,o),
(496,117,o),
(408,117,cs)
);
},
{
closed = 1;
nodes = (
(825,1243,l),
(704,1347,o),
(545,1468,o),
(350,1607,c),
(249,1468,l),
(286,1429,o),
(392,1372,o),
(483,1332,cs),
(574,1291,o),
(706,1238,o),
(747,1223,cs),
(768,1215,o),
(784,1209,o),
(796,1204,c)
);
}
);
};
layerId = "EE746D13-63D7-48F9-B77E-C723CA6A668B";
shapes = (
{
ref = a;
},
{
pos = (178,0);
ref = gravecomb;
}
);
width = 1267;
}
);
note = agrave;
unicode = 224;
},
{
glyphname = ainvertedbreve;
kernLeft = a;
kernRight = a;
lastChange = "2023-03-16 12:53:48 +0000";
layers = (
{
background = {
shapes = (
{
closed = 1;
nodes = (
(777,1204,l),
(774,1257,o),
(755,1314,o),
(717,1365,cs),
(679,1416,o),
(612,1450,o),
(535,1450,cs),
(458,1450,o),
(392,1415,o),
(356,1365,cs),
(319,1315,o),
(299,1259,o),
(296,1208,c),
(425,1208,l),
(429,1281,o),
(481,1331,o),
(537,1331,cs),
(596,1331,o),
(647,1280,o),
(648,1204,c)
);
},
{
closed = 1;
nodes = (
(515,-27,o),
(666,78,o),
(723,223,c),
(728,168,o),
(745,122,o),
(773,83,cs),
(828,6,o),
(908,-27,o),
(997,-27,cs),
(1081,-27,o),
(1141,-9,o),
(1194,39,cs),
(1247,87,o),
(1276,180,o),
(1276,313,cs),
(1276,442,l),
(1167,442,l),
(1167,293,ls),
(1167,174,o),
(1125,115,o),
(1040,115,cs),
(1011,115,o),
(988,125,o),
(969,144,cs),
(932,183,o),
(922,231,o),
(922,283,cs),
(922,743,ls),
(922,874,o),
(880,971,o),
(808,1025,cs),
(735,1079,o),
(646,1102,o),
(537,1102,cs),
(401,1102,o),
(282,1058,o),
(216,998,cs),
(150,938,o),
(113,872,o),
(113,817,cs),
(113,712,o),
(181,655,o),
(260,655,cs),
(336,655,o),
(399,713,o),
(399,797,cs),
(399,860,o),
(345,913,o),
(260,913,c),
(307,965,o),
(399,997,o),
(494,997,cs),
(629,997,o),
(707,924,o),
(707,772,cs),
(707,711,o),
(668,660,o),
(609,625,cs),
(549,590,o),
(471,554,o),
(393,526,cs),
(315,497,o),
(236,455,o),
(177,411,cs),
(117,367,o),
(78,299,o),
(78,219,cs),
(78,66,o),
(192,-27,o),
(356,-27,cs)
);
},
{
closed = 1;
nodes = (
(331,117,o),
(291,162,o),
(291,229,cs),
(291,309,o),
(351,365,o),
(423,397,cs),
(494,429,o),
(622,500,o),
(707,584,c),
(707,371,ls),
(707,334,o),
(692,296,o),
(661,256,cs),
(600,176,o),
(496,117,o),
(408,117,cs)
);
}
);
};
layerId = "EE746D13-63D7-48F9-B77E-C723CA6A668B";
shapes = (
{
ref = a;
},
{
pos = (-35,0);
ref = breveinvertedcomb;
}
);
width = 1267;
}
);
note = uni0203;
unicode = 515;
},
{
glyphname = amacron;
kernLeft = a;
kernRight = a;
lastChange = "2023-03-16 12:53:48 +0000";
layers = (
{
background = {
shapes = (
{
closed = 1;
nodes = (
(828,1204,l),
(828,1342,l),
(246,1342,l),
(246,1204,l)
);
},
{
closed = 1;
nodes = (
(515,-27,o),
(666,78,o),
(723,223,c),
(728,168,o),
(745,122,o),
(773,83,cs),
(828,6,o),
(908,-27,o),
(997,-27,cs),
(1081,-27,o),
(1141,-9,o),
(1194,39,cs),
(1247,87,o),
(1276,180,o),
(1276,313,cs),
(1276,442,l),
(1167,442,l),
(1167,293,ls),
(1167,174,o),
(1125,115,o),
(1040,115,cs),
(1011,115,o),
(988,125,o),
(969,144,cs),
(932,183,o),
(922,231,o),
(922,283,cs),
(922,743,ls),
(922,874,o),
(880,971,o),
(808,1025,cs),
(735,1079,o),
(646,1102,o),
(537,1102,cs),
(401,1102,o),
(282,1058,o),
(216,998,cs),
(150,938,o),
(113,872,o),
(113,817,cs),
(113,712,o),
(181,655,o),
(260,655,cs),
(336,655,o),
(399,713,o),
(399,797,cs),
(399,860,o),
(345,913,o),
(260,913,c),
(307,965,o),
(399,997,o),
(494,997,cs),
(629,997,o),
(707,924,o),
(707,772,cs),
(707,711,o),
(668,660,o),
(609,625,cs),
(549,590,o),
(471,554,o),
(393,526,cs),
(315,497,o),
(236,455,o),
(177,411,cs),
(117,367,o),
(78,299,o),
(78,219,cs),
(78,66,o),
(192,-27,o),
(356,-27,cs)
);
},
{
closed = 1;
nodes = (
(331,117,o),
(291,162,o),
(291,229,cs),
(291,309,o),
(351,365,o),
(423,397,cs),
(494,429,o),
(622,500,o),
(707,584,c),
(707,371,ls),
(707,334,o),
(692,296,o),
(661,256,cs),
(600,176,o),
(496,117,o),
(408,117,cs)
);
}
);
};
layerId = "EE746D13-63D7-48F9-B77E-C723CA6A668B";
shapes = (
{
ref = a;
},
{
pos = (100,0);
ref = macroncomb;
}
);
width = 1267;
}
);
note = amacron;
unicode = 257;
},
{
glyphname = aogonek;
kernLeft = a;
kernRight = a;
lastChange = "2023-03-16 12:53:48 +0000";
layers = (
{
background = {
shapes = (
{
closed = 1;
nodes = (
(1021,-274,l),
(902,-258,o),
(865,-212,o),
(865,-151,cs),
(865,-96,o),
(918,-47,o),
(1023,-28,c),
(1023,3,l),
(950,3,o),
(875,-14,o),
(812,-45,cs),
(748,-77,o),
(705,-134,o),
(705,-202,cs),
(705,-313,o),
(823,-413,o),
(994,-413,c)
);
},
{
closed = 1;
nodes = (
(515,-27,o),
(666,78,o),
(723,223,c),
(728,168,o),
(745,122,o),
(773,83,cs),
(828,6,o),
(908,-27,o),
(997,-27,cs),
(1081,-27,o),
(1141,-9,o),
(1194,39,cs),
(1247,87,o),
(1276,180,o),
(1276,313,cs),
(1276,442,l),
(1167,442,l),
(1167,293,ls),
(1167,174,o),
(1125,115,o),
(1040,115,cs),
(1011,115,o),
(988,125,o),
(969,144,cs),
(932,183,o),
(922,231,o),
(922,283,cs),
(922,743,ls),
(922,874,o),
(880,971,o),
(808,1025,cs),
(735,1079,o),
(646,1102,o),
(537,1102,cs),
(401,1102,o),
(282,1058,o),
(216,998,cs),
(150,938,o),
(113,872,o),
(113,817,cs),
(113,712,o),
(181,655,o),
(260,655,cs),
(336,655,o),
(399,713,o),
(399,797,cs),
(399,860,o),
(345,913,o),
(260,913,c),
(307,965,o),
(399,997,o),
(494,997,cs),
(629,997,o),
(707,924,o),
(707,772,cs),
(707,711,o),
(668,660,o),
(609,625,cs),
(549,590,o),
(471,554,o),
(393,526,cs),
(315,497,o),
(236,455,o),
(177,411,cs),
(117,367,o),
(78,299,o),
(78,219,cs),
(78,66,o),
(192,-27,o),
(356,-27,cs)
);
},
{
closed = 1;
nodes = (
(331,117,o),
(291,162,o),
(291,229,cs),
(291,309,o),
(351,365,o),
(423,397,cs),
(494,429,o),
(622,500,o),
(707,584,c),
(707,371,ls),
(707,334,o),
(692,296,o),
(661,256,cs),
(600,176,o),
(496,117,o),
(408,117,cs)
);
}
);
};
layerId = "EE746D13-63D7-48F9-B77E-C723CA6A668B";
shapes = (
{
ref = a;
},
{
pos = (798,0);
ref = ogonekcomb;
}
);
width = 1267;
}
);
note = aogonek;
unicode = 261;
},
{
glyphname = aring;
kernLeft = a;
kernRight = a;
lastChange = "2023-03-16 12:53:48 +0000";
layers = (
{
background = {
shapes = (
{
closed = 1;
nodes = (
(515,-27,o),
(666,78,o),
(723,223,c),
(728,168,o),
(745,122,o),
(773,83,cs),
(828,6,o),
(908,-27,o),
(997,-27,cs),
(1081,-27,o),
(1141,-9,o),
(1194,39,cs),
(1247,87,o),
(1276,180,o),
(1276,313,cs),
(1276,442,l),
(1167,442,l),
(1167,293,ls),
(1167,174,o),
(1125,115,o),
(1040,115,cs),
(1011,115,o),
(988,125,o),
(969,144,cs),
(932,183,o),
(922,231,o),
(922,283,cs),
(922,743,ls),
(922,874,o),
(880,971,o),
(808,1025,cs),
(735,1079,o),
(646,1102,o),
(537,1102,cs),
(401,1102,o),
(282,1058,o),
(216,998,cs),
(150,938,o),
(113,872,o),
(113,817,cs),
(113,712,o),
(181,655,o),
(260,655,cs),
(336,655,o),
(399,713,o),
(399,797,cs),
(399,860,o),
(345,913,o),
(260,913,c),
(307,965,o),
(399,997,o),
(494,997,cs),
(629,997,o),
(707,924,o),
(707,772,cs),
(707,711,o),
(668,660,o),
(609,625,cs),
(549,590,o),
(471,554,o),
(393,526,cs),
(315,497,o),
(236,455,o),
(177,411,cs),
(117,367,o),
(78,299,o),
(78,219,cs),
(78,66,o),
(192,-27,o),
(356,-27,cs)
);
},
{
closed = 1;
nodes = (
(331,117,o),
(291,162,o),
(291,229,cs),
(291,309,o),
(351,365,o),
(423,397,cs),
(494,429,o),
(622,500,o),
(707,584,c),
(707,371,ls),
(707,334,o),
(692,296,o),
(661,256,cs),
(600,176,o),
(496,117,o),
(408,117,cs)
);
},
{
closed = 1;
nodes = (
(659,1204,o),
(737,1282,o),
(737,1387,cs),
(737,1492,o),
(659,1569,o),
(538,1569,cs),
(414,1569,o),
(337,1492,o),
(337,1387,cs),
(337,1280,o),
(415,1204,o),
(538,1204,cs)
);
},
{
closed = 1;
nodes = (
(476,1262,o),
(425,1308,o),
(425,1387,cs),
(425,1466,o),
(478,1514,o),
(538,1514,cs),
(568,1514,o),
(594,1503,o),
(616,1480,cs),
(638,1457,o),
(649,1426,o),
(649,1387,cs),
(649,1310,o),
(596,1262,o),
(536,1262,cs)
);
}
);
};
layerId = "EE746D13-63D7-48F9-B77E-C723CA6A668B";
shapes = (
{
ref = a;
},
{
pos = (265,-2);
ref = ringcomb;
}
);
width = 1267;
}
);
note = aring;
unicode = 229;
},
{
glyphname = atilde;
kernLeft = a;
kernRight = a;
lastChange = "2023-03-16 12:53:48 +0000";
layers = (
{
background = {
shapes = (
{
closed = 1;
nodes = (
(515,-27,o),
(666,78,o),
(723,223,c),
(728,168,o),
(745,122,o),
(773,83,cs),
(828,6,o),
(908,-27,o),
(997,-27,cs),
(1081,-27,o),
(1141,-9,o),
(1194,39,cs),
(1247,87,o),
(1276,180,o),
(1276,313,cs),
(1276,442,l),
(1167,442,l),
(1167,293,ls),
(1167,174,o),
(1125,115,o),
(1040,115,cs),
(1011,115,o),
(988,125,o),
(969,144,cs),
(932,183,o),
(922,231,o),
(922,283,cs),
(922,743,ls),
(922,874,o),
(880,971,o),
(808,1025,cs),
(735,1079,o),
(646,1102,o),
(537,1102,cs),
(401,1102,o),
(282,1058,o),
(216,998,cs),
(150,938,o),
(113,872,o),
(113,817,cs),
(113,712,o),
(181,655,o),
(260,655,cs),
(336,655,o),
(399,713,o),
(399,797,cs),
(399,860,o),
(345,913,o),
(260,913,c),
(307,965,o),
(399,997,o),
(494,997,cs),
(629,997,o),
(707,924,o),
(707,772,cs),
(707,711,o),
(668,660,o),
(609,625,cs),
(549,590,o),
(471,554,o),
(393,526,cs),
(315,497,o),
(236,455,o),
(177,411,cs),
(117,367,o),
(78,299,o),
(78,219,cs),
(78,66,o),
(192,-27,o),
(356,-27,cs)
);
},
{
closed = 1;
nodes = (
(331,117,o),
(291,162,o),
(291,229,cs),
(291,309,o),
(351,365,o),
(423,397,cs),
(494,429,o),
(622,500,o),
(707,584,c),
(707,371,ls),
(707,334,o),
(692,296,o),
(661,256,cs),
(600,176,o),
(496,117,o),
(408,117,cs)
);
},
{
closed = 1;
nodes = (
(400,1204,o),
(460,1220,o),
(541,1251,cs),
(622,1282,o),
(677,1298,o),
(704,1298,cs),
(771,1298,o),
(792,1274,o),
(792,1206,c),
(880,1206,l),
(880,1383,o),
(835,1449,o),
(712,1449,cs),
(674,1449,o),
(614,1433,o),
(533,1402,cs),
(452,1371,o),
(397,1355,o),
(370,1355,cs),
(303,1355,o),
(282,1379,o),
(282,1447,c),
(194,1447,l),
(194,1270,o),
(239,1204,o),
(362,1204,cs)
);
}
);
};
layerId = "EE746D13-63D7-48F9-B77E-C723CA6A668B";
shapes = (
{
ref = a;
},
{
pos = (121,0);
ref = tildecomb;
}
);
width = 1267;
}
);
note = atilde;
unicode = 227;
},
{
glyphname = ae;
kernLeft = a;
lastChange = "2023-03-16 12:53:48 +0000";
layers = (
{
anchors = (
{
name = bottom;
pos = (864,0);
},
{
name = top;
pos = (864,1073);
}
);
background = {
shapes = (
{
closed = 1;
nodes = (
(577,-29,o),
(744,93,o),
(827,266,c),
(874,118,o),
(1042,-29,o),
(1234,-29,cs),
(1459,-29,o),
(1621,111,o),
(1673,334,c),
(1556,371,l),
(1513,212,o),
(1387,123,o),
(1251,123,cs),
(1209,123,o),
(1171,134,o),
(1137,157,cs),
(1068,201,o),
(1030,270,o),
(1002,350,cs),
(973,430,o),
(963,498,o),
(963,547,c),
(1624,643,l),
(1624,678,o),
(1620,716,o),
(1612,755,cs),
(1596,833,o),
(1557,922,o),
(1501,989,cs),
(1445,1056,o),
(1353,1104,o),
(1245,1104,cs),
(1086,1104,o),
(976,1046,o),
(891,913,c),
(831,1039,o),
(706,1102,o),
(516,1102,cs),
(300,1102,o),
(117,982,o),
(117,834,cs),
(117,717,o),
(183,655,o),
(264,655,cs),
(343,655,o),
(414,714,o),
(414,797,cs),
(414,860,o),
(357,913,o),
(270,913,c),
(317,965,o),
(405,997,o),
(498,997,cs),
(637,997,o),
(733,921,o),
(733,772,cs),
(733,623,l),
(697,614,o),
(619,596,o),
(572,585,cs),
(524,574,o),
(448,553,o),
(399,537,cs),
(350,521,o),
(284,494,o),
(241,468,cs),
(198,442,o),
(153,405,o),
(126,366,cs),
(99,326,o),
(82,275,o),
(82,219,cs),
(82,66,o),
(204,-29,o),
(369,-29,cs)
);
},
{
closed = 1;
nodes = (
(320,117,o),
(273,172,o),
(273,245,cs),
(273,302,o),
(310,351,o),
(383,392,cs),
(456,432,o),
(573,471,o),
(733,508,c),
(737,389,l),
(726,344,o),
(692,283,o),
(637,223,cs),
(582,163,o),
(491,117,o),
(395,117,cs)
);
},
{
closed = 1;
nodes = (
(979,848,o),
(1091,985,o),
(1239,985,cs),
(1358,985,o),
(1440,866,o),
(1440,729,c),
(963,651,l)
);
}
);
};
layerId = "EE746D13-63D7-48F9-B77E-C723CA6A668B";
shapes = (
{
closed = 1;
nodes = (
(577,-29,o),
(744,93,o),
(827,266,c),
(874,118,o),
(1042,-29,o),
(1234,-29,cs),
(1459,-29,o),
(1621,111,o),
(1673,334,c),
(1556,371,l),
(1513,212,o),
(1387,123,o),
(1251,123,cs),
(1209,123,o),
(1171,134,o),
(1137,157,cs),
(1068,201,o),
(1030,270,o),
(1002,350,cs),
(973,430,o),
(963,498,o),
(963,547,c),
(1624,643,l),
(1624,678,o),
(1620,716,o),
(1612,755,cs),
(1596,833,o),
(1557,922,o),
(1501,989,cs),
(1445,1056,o),
(1353,1104,o),
(1245,1104,cs),
(1086,1104,o),
(976,1046,o),
(891,913,c),
(831,1039,o),
(706,1102,o),
(516,1102,cs),
(300,1102,o),
(117,982,o),
(117,834,cs),
(117,717,o),
(183,655,o),
(264,655,cs),
(343,655,o),
(414,714,o),
(414,797,cs),
(414,860,o),
(357,913,o),
(270,913,c),
(317,965,o),
(405,997,o),
(498,997,cs),
(637,997,o),
(733,921,o),
(733,772,cs),
(733,623,l),
(697,614,o),
(619,596,o),
(572,585,cs),
(524,574,o),
(448,553,o),
(399,537,cs),
(350,521,o),
(284,494,o),
(241,468,cs),
(198,442,o),
(153,405,o),
(126,366,cs),
(99,326,o),
(82,275,o),
(82,219,cs),
(82,66,o),
(204,-29,o),
(369,-29,cs)
);
},
{
closed = 1;
nodes = (
(320,117,o),
(273,172,o),
(273,245,cs),
(273,302,o),
(310,351,o),
(383,392,cs),
(456,432,o),
(573,471,o),
(733,508,c),
(737,389,l),
(726,344,o),
(692,283,o),
(637,223,cs),
(582,163,o),
(491,117,o),
(395,117,cs)
);
},
{
closed = 1;
nodes = (
(979,848,o),
(1091,985,o),
(1239,985,cs),
(1358,985,o),
(1440,866,o),
(1440,729,c),
(963,651,l)
);
}
);
width = 1728;
}
);
note = ae;
unicode = 230;
},
{
glyphname = b;
kernRight = b;
lastChange = "2023-03-16 12:53:48 +0000";
layers = (
{
anchors = (
{
name = bottom;
pos = (593,0);
},
{
name = center;
pos = (593,537);
},
{
name = top;
pos = (593,1073);
}
);
background = {
shapes = (
{
closed = 1;
nodes = (
(744,-27,o),
(823,-2,o),
(892,48,cs),
(1030,147,o),
(1108,326,o),
(1108,537,cs),
(1108,869,o),
(926,1102,o),
(647,1102,cs),
(528,1102,o),
(418,1042,o),
(350,942,c),
(350,1505,l),
(-72,1505,l),
(-72,1382,l),
(135,1382,l),
(135,0,l),
(227,0,l),
(305,199,l),
(370,46,o),
(510,-27,o),
(657,-27,cs)
);
},
{
closed = 1;
nodes = (
(562,94,o),
(515,116,o),
(474,161,cs),
(393,249,o),
(350,403,o),
(350,584,cs),
(350,672,o),
(372,765,o),
(413,848,cs),
(453,931,o),
(528,989,o),
(616,989,cs),
(708,989,o),
(781,930,o),
(821,838,cs),
(860,746,o),
(879,640,o),
(879,524,cs),
(879,451,o),
(869,382,o),
(850,318,cs),
(811,190,o),
(725,94,o),
(616,94,cs)
);
}
);
};
layerId = "EE746D13-63D7-48F9-B77E-C723CA6A668B";
shapes = (
{
closed = 1;
nodes = (
(744,-27,o),
(823,-2,o),
(892,48,cs),
(1030,147,o),
(1108,326,o),
(1108,537,cs),
(1108,869,o),
(926,1102,o),
(647,1102,cs),
(528,1102,o),
(418,1042,o),
(350,942,c),
(350,1505,l),
(-72,1505,l),
(-72,1382,l),
(135,1382,l),
(135,0,l),
(227,0,l),
(305,199,l),
(370,46,o),
(510,-27,o),
(657,-27,cs)
);
},
{
closed = 1;
nodes = (
(562,94,o),
(515,116,o),
(474,161,cs),
(393,249,o),
(350,403,o),
(350,584,cs),
(350,672,o),
(372,765,o),
(413,848,cs),
(453,931,o),
(528,989,o),
(616,989,cs),
(708,989,o),
(781,930,o),
(821,838,cs),
(860,746,o),
(879,640,o),
(879,524,cs),
(879,451,o),
(869,382,o),
(850,318,cs),
(811,190,o),
(725,94,o),
(616,94,cs)
);
}
);
width = 1185;
}
);
note = b;
unicode = 98;
},
{
glyphname = c;
kernLeft = c;
lastChange = "2023-03-16 12:53:48 +0000";
layers = (
{
anchors = (
{
name = bottom;
pos = (559,0);
},
{
name = top;
pos = (599,1073);
}
);
background = {
shapes = (
{
closed = 1;
nodes = (
(841,-27,o),
(1012,115,o),
(1063,334,c),
(950,371,l),
(937,328,o),
(901,275,o),
(850,224,cs),
(798,173,o),
(718,135,o),
(637,135,cs),
(426,135,o),
(301,292,o),
(301,549,cs),
(301,658,o),
(330,764,o),
(385,849,cs),
(440,933,o),
(535,989,o),
(651,989,cs),
(755,989,o),
(839,939,o),
(883,868,c),
(800,868,o),
(729,818,o),
(729,731,cs),
(729,646,o),
(796,590,o),
(883,590,cs),
(982,590,o),
(1040,672,o),
(1040,752,cs),
(1040,867,o),
(982,963,o),
(898,1018,cs),
(814,1073,o),
(713,1102,o),
(616,1102,cs),
(443,1102,o),
(298,1033,o),
(210,923,cs),
(122,813,o),
(74,671,o),
(74,516,cs),
(74,353,o),
(132,211,o),
(225,119,cs),
(318,27,o),
(449,-27,o),
(592,-27,cs)
);
}
);
};
layerId = "EE746D13-63D7-48F9-B77E-C723CA6A668B";
shapes = (
{
closed = 1;
nodes = (
(841,-27,o),
(1012,115,o),
(1063,334,c),
(950,371,l),
(924,284,o),
(801,135,o),
(637,135,cs),
(426,135,o),
(301,292,o),
(301,549,cs),
(301,773,o),
(417,989,o),
(651,989,cs),
(755,989,o),
(839,939,o),
(883,868,c),
(800,868,o),
(729,818,o),
(729,731,cs),
(729,646,o),
(796,590,o),
(883,590,cs),
(982,590,o),
(1040,672,o),
(1040,752,cs),
(1040,990,o),
(807,1102,o),
(616,1102,cs),
(269,1102,o),
(74,833,o),
(74,516,cs),
(74,206,o),
(282,-27,o),
(592,-27,cs)
);
}
);
width = 1118;
}
);
note = c;
unicode = 99;
},
{
glyphname = cacute;
kernLeft = c;
lastChange = "2023-03-16 12:53:48 +0000";
layers = (
{
background = {
shapes = (
{
closed = 1;
nodes = (
(841,-27,o),
(1012,115,o),
(1063,334,c),
(950,371,l),
(937,328,o),
(901,275,o),
(850,224,cs),
(798,173,o),
(718,135,o),
(637,135,cs),
(426,135,o),
(301,292,o),
(301,549,cs),
(301,658,o),
(330,764,o),
(385,849,cs),
(440,933,o),
(535,989,o),
(651,989,cs),
(755,989,o),
(839,939,o),
(883,868,c),
(800,868,o),
(729,818,o),
(729,731,cs),
(729,646,o),
(796,590,o),
(883,590,cs),
(982,590,o),
(1040,672,o),
(1040,752,cs),
(1040,867,o),
(982,963,o),
(898,1018,cs),
(814,1073,o),
(713,1102,o),
(616,1102,cs),
(443,1102,o),
(298,1033,o),
(210,923,cs),
(122,813,o),
(74,671,o),
(74,516,cs),
(74,353,o),
(132,211,o),
(225,119,cs),
(318,27,o),
(449,-27,o),
(592,-27,cs)
);
},
{
closed = 1;
nodes = (
(471,1250,ls),
(624,1307,o),
(845,1410,o),
(904,1470,c),
(803,1609,l),
(725,1552,ls),
(620,1477,o),
(436,1337,o),
(328,1245,c),
(357,1206,l)
);
}
);
};
layerId = "EE746D13-63D7-48F9-B77E-C723CA6A668B";
shapes = (
{
ref = c;
},
{
pos = (233,0);
ref = acutecomb;
}
);
width = 1118;
}
);
note = cacute;
unicode = 263;
},
{
glyphname = ccaron;
kernLeft = c;
lastChange = "2023-03-16 12:53:48 +0000";
layers = (
{
background = {
shapes = (
{
closed = 1;
nodes = (
(943,1556,l),
(844,1649,l),
(805,1597,ls),
(752,1529,o),
(664,1421,o),
(617,1380,c),
(565,1427,o),
(489,1518,o),
(388,1653,c),
(289,1563,l),
(617,1206,l)
);
},
{
closed = 1;
nodes = (
(841,-27,o),
(1012,115,o),
(1063,334,c),
(950,371,l),
(937,328,o),
(901,275,o),
(850,224,cs),
(798,173,o),
(718,135,o),
(637,135,cs),
(426,135,o),
(301,292,o),
(301,549,cs),
(301,658,o),
(330,764,o),
(385,849,cs),
(440,933,o),
(535,989,o),
(651,989,cs),
(755,989,o),
(839,939,o),
(883,868,c),
(800,868,o),
(729,818,o),
(729,731,cs),
(729,646,o),
(796,590,o),
(883,590,cs),
(982,590,o),
(1040,672,o),
(1040,752,cs),
(1040,867,o),
(982,963,o),
(898,1018,cs),
(814,1073,o),
(713,1102,o),
(616,1102,cs),
(443,1102,o),
(298,1033,o),
(210,923,cs),
(122,813,o),
(74,671,o),
(74,516,cs),
(74,353,o),
(132,211,o),
(225,119,cs),
(318,27,o),
(449,-27,o),
(592,-27,cs)
);
}
);
};
layerId = "EE746D13-63D7-48F9-B77E-C723CA6A668B";
shapes = (
{
ref = c;
},
{
pos = (208,46);
ref = caroncomb;
}
);
width = 1118;
}
);
note = ccaron;
unicode = 269;
},
{
glyphname = ccedilla;
kernLeft = c;
lastChange = "2023-03-16 12:53:48 +0000";
layers = (
{
background = {
shapes = (
{
closed = 1;
nodes = (
(401,-453,ls),
(438,-446,o),
(495,-429,o),
(548,-405,cs),
(600,-381,o),
(643,-338,o),
(643,-290,cs),
(643,-14,l),
(604,-14,ls),
(489,-14,o),
(395,-105,o),
(395,-182,cs),
(395,-199,o),
(411,-222,o),
(443,-253,cs),
(474,-284,o),
(490,-307,o),
(490,-321,cs),
(490,-334,o),
(475,-347,o),
(446,-359,cs),
(417,-371,o),
(383,-380,o),
(344,-387,c),
(373,-458,l)
);
},
{
closed = 1;
nodes = (
(841,-27,o),
(1012,115,o),
(1063,334,c),
(950,371,l),
(937,328,o),
(901,275,o),
(850,224,cs),
(798,173,o),
(718,135,o),
(637,135,cs),
(426,135,o),
(301,292,o),
(301,549,cs),
(301,658,o),
(330,764,o),
(385,849,cs),
(440,933,o),
(535,989,o),
(651,989,cs),
(755,989,o),
(839,939,o),
(883,868,c),
(800,868,o),
(729,818,o),
(729,731,cs),
(729,646,o),
(796,590,o),
(883,590,cs),
(982,590,o),
(1040,672,o),
(1040,752,cs),
(1040,867,o),
(982,963,o),
(898,1018,cs),
(814,1073,o),
(713,1102,o),
(616,1102,cs),
(443,1102,o),
(298,1033,o),
(210,923,cs),
(122,813,o),
(74,671,o),
(74,516,cs),
(74,353,o),
(132,211,o),
(225,119,cs),
(318,27,o),
(449,-27,o),
(592,-27,cs)
);
}
);
};
layerId = "EE746D13-63D7-48F9-B77E-C723CA6A668B";
shapes = (
{
ref = c;
},
{
pos = (401,0);
ref = cedillacomb;
}
);
width = 1118;
}
);
note = ccedilla;
unicode = 231;
},
{
glyphname = ccircumflex;
kernLeft = c;
lastChange = "2023-03-16 12:53:48 +0000";
layers = (
{
background = {
shapes = (
{
closed = 1;
nodes = (
(956,1296,l),
(628,1653,l),
(302,1302,l),
(401,1210,l),
(440,1261,ls),
(493,1330,o),
(581,1438,o),
(628,1479,c),
(680,1432,o),
(756,1341,o),
(857,1206,c)
);
},
{
closed = 1;
nodes = (
(841,-27,o),
(1012,115,o),
(1063,334,c),
(950,371,l),
(937,328,o),
(901,275,o),
(850,224,cs),
(798,173,o),
(718,135,o),
(637,135,cs),
(426,135,o),
(301,292,o),
(301,549,cs),
(301,658,o),
(330,764,o),
(385,849,cs),
(440,933,o),
(535,989,o),
(651,989,cs),
(755,989,o),
(839,939,o),
(883,868,c),
(800,868,o),
(729,818,o),
(729,731,cs),
(729,646,o),
(796,590,o),
(883,590,cs),
(982,590,o),
(1040,672,o),
(1040,752,cs),
(1040,867,o),
(982,963,o),
(898,1018,cs),
(814,1073,o),
(713,1102,o),
(616,1102,cs),
(443,1102,o),
(298,1033,o),
(210,923,cs),
(122,813,o),
(74,671,o),
(74,516,cs),
(74,353,o),
(132,211,o),
(225,119,cs),
(318,27,o),
(449,-27,o),
(592,-27,cs)
);
}
);
};
layerId = "EE746D13-63D7-48F9-B77E-C723CA6A668B";
shapes = (
{
ref = c;
},
{
pos = (192,0);
ref = circumflexcomb;
}
);
width = 1118;
}
);
note = ccircumflex;
unicode = 265;
},
